<?xml version="1.0" encoding="UTF-8"?>
<svg width="543px" height="396px" viewBox="0 0 543 396" version="1.1" xmlns="http://www.w3.org/2000/svg" xmlns:xlink="http://www.w3.org/1999/xlink">
    <!-- Generator: Sketch 49.2 (51160) - http://www.bohemiancoding.com/sketch -->
    <title>lstm</title>
    <desc>Created with Sketch.</desc>
    <defs>
        <rect id="path-1" x="0" y="0" width="64" height="22"></rect>
        <rect id="path-2" x="263" y="182" width="64" height="22"></rect>
        <rect id="path-3" x="333" y="182" width="64" height="22"></rect>
        <rect id="path-4" x="192" y="182" width="64" height="22"></rect>
        <rect id="path-5" x="0" y="0" width="64" height="22"></rect>
    </defs>
    <g id="lstm" stroke="none" stroke-width="1" fill="none" fill-rule="evenodd">
        <g id="latex-eq" transform="translate(100.000000, 221.000000)" fill="#000000" fill-rule="nonzero">
            <g id="Group-3" transform="translate(20.500000, 10.000000) scale(-1, 1) rotate(-180.000000) translate(-20.500000, -10.000000) ">
                <g id="Group" transform="translate(-0.000000, 3.529591)">
                    <path d="M9.68537368,1.45102023 C9.68537368,1.33010188 9.70032025,1.25452791 9.73021338,1.22429832 C9.7601065,1.19406873 9.84231261,1.17139654 9.97683169,1.15628175 C10.4551217,1.18651133 10.858679,1.42834804 11.1875034,1.88179186 C11.5163278,2.33523568 11.7629461,2.82646649 11.9273583,3.35548428 C12.0020912,3.59732098 12.0618774,3.74091153 12.1067171,3.78625591 C12.1515568,3.83160029 12.3010224,3.85427248 12.555114,3.85427248 L12.6896331,3.85427248 L12.9362514,3.85427248 C13.2351827,3.85427248 13.3846484,3.74846893 13.3846484,3.53686181 C13.3846484,3.38571387 13.3099155,3.12876237 13.1604499,2.76600731 C13.0109842,2.40325225 12.7867858,2.01026761 12.4878545,1.58705338 C12.1889232,1.16383914 11.8003125,0.793526688 11.3220225,0.476116013 C10.8437324,0.158705338 10.3056561,0 9.70779353,0 C8.97541188,0 8.34765618,0.188934926 7.82452642,0.566804777 C7.30139667,0.944674628 7.03235851,1.44346283 7.01741195,2.06316939 C7.01741195,2.24454692 7.29392339,3.12120497 7.84694627,4.69314355 C8.39996915,6.26508214 8.68395387,7.40624909 8.69890044,8.11664441 C8.69890044,8.87238411 8.40744243,9.25025396 7.82452642,9.25025396 L7.69000735,9.25025396 L7.57790811,9.25025396 C6.86047303,9.25025396 6.17293107,8.97063027 5.51528224,8.41138289 C4.99215248,7.94282427 4.58112197,7.45159347 4.28219068,6.93769047 C4.23735099,6.8621165 3.98325939,5.89476968 3.5199159,4.03565001 C3.0565724,2.17653034 2.80995409,1.19406873 2.78006096,1.08826517 C2.64554189,0.755739703 2.43628998,0.491230807 2.15230526,0.294738484 C1.86832054,0.0982461613 1.55444269,0 1.21067171,0 C0.777221345,0 0.470816776,0.128475749 0.291458004,0.385427248 C0.112099232,0.642378747 0.0149465643,0.869100658 0,1.06559298 C0,1.24697051 0.530603034,3.49151743 1.5918091,7.79923373 L3.20603805,14.2834804 L3.11635866,14.2834804 C3.1014121,14.2834804 3.06404569,14.2834804 3.00425943,14.2834804 C2.94447317,14.2834804 2.86974035,14.2910378 2.78006096,14.3061526 C2.69038158,14.3212674 2.60070219,14.3288248 2.51102281,14.3288248 C2.42134342,14.3288248 2.33913732,14.3288248 2.2644045,14.3288248 C2.18967167,14.3288248 2.11493885,14.3288248 2.04020603,14.3288248 C1.96547321,14.3288248 1.9281068,14.3363822 1.9281068,14.351497 C1.74874803,14.3968413 1.65906864,14.5253171 1.65906864,14.7369242 C1.65906864,14.8124982 1.68896177,14.9560887 1.74874803,15.1676958 C1.80853428,15.3793029 1.85337398,15.5153361 1.8832671,15.5757953 C1.94305336,15.6513692 2.05515259,15.6967136 2.2195648,15.7118284 C2.38397701,15.7269432 2.95194645,15.7647302 3.92347314,15.8251894 C5.01457233,15.8856485 5.66474788,15.9158781 5.87399978,15.9158781 C6.12809137,15.9158781 6.2850303,15.8025172 6.34481656,15.5757953 C6.34481656,15.4699917 6.09072496,14.4195135 5.58254178,12.4243607 C5.46296926,11.9255725 5.34339675,11.4192269 5.22382423,10.9053239 C5.10425172,10.3914209 4.99962577,9.99087887 4.90994638,9.70369778 L4.82026699,9.31827053 C4.82026699,9.27292615 4.88752653,9.31071314 5.02204561,9.43163149 C5.88894634,10.0815676 6.81563333,10.4065357 7.80210658,10.4065357 L7.98146535,10.4065357 L8.18324397,10.4065357 C8.40744243,10.4065357 8.62416762,10.3989783 8.83341952,10.3838635 C9.04267142,10.3687487 9.31918286,10.3082895 9.66295384,10.202486 C10.0067248,10.0966824 10.2981828,9.96064928 10.5373278,9.79438655 C10.7764729,9.62812381 10.9931981,9.37872971 11.1875034,9.04620424 C11.3818087,8.71367877 11.4714881,8.30557933 11.4565416,7.82190592 C11.4565416,7.05105143 11.1650836,5.8569827 10.5821675,4.23969973 C9.99925153,2.62241677 9.70032025,1.69285693 9.68537368,1.45102023 Z" id="MJMATHBI-68"></path>
                </g>
                <g id="Group" transform="translate(14.259022, 0.128762)">
                    <g transform="translate(0.009708, 0.005056)" id="MJMATHI-74">
                        <path d="M0.11095582,6.34757868 C0.0369852734,6.4223818 0,6.47581259 0,6.50787107 C0,6.55061571 0.0158508315,6.63610498 0.0475524944,6.7643389 C0.0792541573,6.89257281 0.10567221,6.96737593 0.126806652,6.98874824 C0.147941094,7.04217904 0.195493588,7.06889444 0.269464135,7.06889444 C0.343434682,7.06889444 0.612898817,7.07423752 1.07785654,7.08492368 L1.91795061,7.08492368 L2.21911641,8.36726281 C2.25081807,8.48481056 2.28780334,8.63975987 2.33007223,8.83211074 C2.37234111,9.02446161 2.40932638,9.16338168 2.44102805,9.24887096 C2.47272971,9.33436023 2.50443137,9.44122183 2.53613303,9.56945574 C2.5678347,9.69768965 2.61010358,9.78852201 2.66293969,9.8419528 C2.71577579,9.8953836 2.7686119,9.95950056 2.821448,10.0343037 C2.87428411,10.1091068 2.94825465,10.1571945 3.04335964,10.1785668 C3.13846463,10.1999391 3.23356962,10.2106253 3.32867461,10.2106253 C3.51888459,10.1999391 3.65097485,10.1411653 3.72494539,10.0343037 C3.79891594,9.92744208 3.83590121,9.82592356 3.83590121,9.72974813 C3.83590121,9.65494501 3.78834872,9.40382027 3.69324373,8.97637389 C3.59813874,8.54892752 3.49246653,8.12682422 3.3762271,7.710064 L3.21771879,7.11698216 C3.21771879,7.09560984 3.48189931,7.08492368 4.01026036,7.08492368 L4.81865277,7.08492368 C4.89262331,7.01012056 4.92960859,6.95134669 4.92960859,6.90860205 C4.92960859,6.67350654 4.86092165,6.48649875 4.72354778,6.34757868 L3.02750881,6.34757868 L2.45687888,4.02333901 C2.04475726,2.31355351 1.83869645,1.3945438 1.83869645,1.26630989 C1.83869645,0.817491194 1.98135393,0.593081846 2.2666689,0.593081846 C2.63652163,0.593081846 2.99580715,0.774746556 3.34452544,1.13807598 C3.69324373,1.5014054 3.97327509,1.95022409 4.18461951,2.48453206 C4.20575395,2.54864902 4.232172,2.58605057 4.26387366,2.59673673 C4.29557533,2.60742289 4.37482948,2.61810905 4.50163614,2.62879521 L4.56503946,2.62879521 C4.72354778,2.62879521 4.80280193,2.58605057 4.80280193,2.5005613 C4.80280193,2.46850282 4.7869511,2.40438586 4.75524944,2.30821043 C4.70241334,2.13723188 4.60730835,1.93419485 4.46993447,1.69909934 C4.3325606,1.46400384 4.15291784,1.21287909 3.9310062,0.945725107 C3.70909456,0.678571122 3.43963043,0.454161774 3.1226138,0.272497065 C2.80559717,0.0908323549 2.48329693,0 2.15571308,0 C1.83869645,0 1.53753065,0.0801461955 1.25221569,0.240438586 C0.966900719,0.400730977 0.76083991,0.678571122 0.634033259,1.07395902 C0.612898817,1.15944829 0.602331596,1.30371145 0.602331596,1.50674847 L0.602331596,1.79527478 L1.1571107,4.03936825 C1.52696343,5.54611673 1.71717341,6.30483404 1.72774063,6.3155202 C1.72774063,6.33689252 1.45827649,6.34757868 0.919348225,6.34757868 L0.11095582,6.34757868 Z"></path>
                    </g>
                    <g transform="translate(6.762162, 3.868103)" id="MJMAIN-2212">
                        <path d="M0,0.112204674 C0,0.112204674 0,0.18166471 0,0.320584782 C0,0.459504854 0.0739705468,0.566366448 0.221911641,0.641169564 L9.43124472,0.641169564 C9.58975304,0.555680289 9.66900719,0.448818695 9.66900719,0.320584782 C9.66900719,0.192350869 9.58975304,0.0854892752 9.43124472,0 L0.221911641,0 C0.0739705468,0.0748031158 0,0.18166471 0,0.320584782 L0,0.112204674 Z"></path>
                    </g>
                    <g transform="translate(19.094109, 0.181378)" id="MJMAIN-31">
                        <path d="M2.06060809,9.2649002 L1.85454728,9.184754 C1.70660619,9.1313232 1.49526177,9.07789241 1.22051402,9.02446161 C0.945766277,8.97103081 0.639316869,8.93362925 0.301165798,8.91225694 L0,8.91225694 L0,9.64960193 L0.301165798,9.64960193 C0.797825184,9.67097425 1.2574993,9.75112045 1.68018814,9.89004052 C2.10287697,10.0289606 2.39875916,10.1571945 2.5678347,10.2747423 C2.73691023,10.39229 2.88485133,10.5098378 3.01165798,10.6273855 C3.03279242,10.659444 3.09619575,10.6754732 3.20186796,10.6754732 C3.29697295,10.6754732 3.38679432,10.6434148 3.47133209,10.5792978 L3.47133209,5.78655531 L3.48718292,0.977783585 C3.56115347,0.902980469 3.6245568,0.854892752 3.6773929,0.833520433 C3.73022901,0.812148114 3.85703566,0.790775795 4.05781286,0.769403476 C4.25859005,0.748031158 4.5861739,0.737344998 5.04056441,0.737344998 L5.45268602,0.737344998 L5.45268602,0 L5.27832688,0 C5.05641524,0.0320584782 4.21632117,0.0480877173 2.75804468,0.0480877173 C1.32090262,0.0480877173 0.491375775,0.0320584782 0.269464135,0 L0.0792541573,0 L0.0792541573,0.737344998 L0.491375775,0.737344998 C0.723854637,0.737344998 0.924631836,0.737344998 1.09370737,0.737344998 C1.26278291,0.737344998 1.39487317,0.742688078 1.48997816,0.753374237 C1.58508315,0.764060397 1.66962091,0.780089636 1.74359146,0.801461955 C1.81756201,0.822834273 1.85983089,0.833520433 1.87039811,0.833520433 C1.88096533,0.833520433 1.912667,0.860235831 1.9655031,0.913666628 C2.01833921,0.967097425 2.05004087,0.988469744 2.06060809,0.977783585 L2.06060809,9.2649002 Z"></path>
                    </g>
                </g>
            </g>
            <g id="Group" transform="translate(330.000000, 41.000000) scale(-1, 1) rotate(-180.000000) translate(-330.000000, -41.000000) translate(320.000000, 31.000000)">
                <g transform="translate(0.000000, 3.423501)" id="MJMATHBI-68">
                    <path d="M9.68537368,1.45102023 C9.68537368,1.33010188 9.70032025,1.25452791 9.73021338,1.22429832 C9.7601065,1.19406873 9.84231261,1.17139654 9.97683169,1.15628175 C10.4551217,1.18651133 10.858679,1.42834804 11.1875034,1.88179186 C11.5163278,2.33523568 11.7629461,2.82646649 11.9273583,3.35548428 C12.0020912,3.59732098 12.0618774,3.74091153 12.1067171,3.78625591 C12.1515568,3.83160029 12.3010224,3.85427248 12.555114,3.85427248 L12.6896331,3.85427248 L12.9362514,3.85427248 C13.2351827,3.85427248 13.3846484,3.74846893 13.3846484,3.53686181 C13.3846484,3.38571387 13.3099155,3.12876237 13.1604499,2.76600731 C13.0109842,2.40325225 12.7867858,2.01026761 12.4878545,1.58705338 C12.1889232,1.16383914 11.8003125,0.793526688 11.3220225,0.476116013 C10.8437324,0.158705338 10.3056561,0 9.70779353,0 C8.97541188,0 8.34765618,0.188934926 7.82452642,0.566804777 C7.30139667,0.944674628 7.03235851,1.44346283 7.01741195,2.06316939 C7.01741195,2.24454692 7.29392339,3.12120497 7.84694627,4.69314355 C8.39996915,6.26508214 8.68395387,7.40624909 8.69890044,8.11664441 C8.69890044,8.87238411 8.40744243,9.25025396 7.82452642,9.25025396 L7.69000735,9.25025396 L7.57790811,9.25025396 C6.86047303,9.25025396 6.17293107,8.97063027 5.51528224,8.41138289 C4.99215248,7.94282427 4.58112197,7.45159347 4.28219068,6.93769047 C4.23735099,6.8621165 3.98325939,5.89476968 3.5199159,4.03565001 C3.0565724,2.17653034 2.80995409,1.19406873 2.78006096,1.08826517 C2.64554189,0.755739703 2.43628998,0.491230807 2.15230526,0.294738484 C1.86832054,0.0982461613 1.55444269,0 1.21067171,0 C0.777221345,0 0.470816776,0.128475749 0.291458004,0.385427248 C0.112099232,0.642378747 0.0149465643,0.869100658 0,1.06559298 C0,1.24697051 0.530603034,3.49151743 1.5918091,7.79923373 L3.20603805,14.2834804 L3.11635866,14.2834804 C3.1014121,14.2834804 3.06404569,14.2834804 3.00425943,14.2834804 C2.94447317,14.2834804 2.86974035,14.2910378 2.78006096,14.3061526 C2.69038158,14.3212674 2.60070219,14.3288248 2.51102281,14.3288248 C2.42134342,14.3288248 2.33913732,14.3288248 2.2644045,14.3288248 C2.18967167,14.3288248 2.11493885,14.3288248 2.04020603,14.3288248 C1.96547321,14.3288248 1.9281068,14.3363822 1.9281068,14.351497 C1.74874803,14.3968413 1.65906864,14.5253171 1.65906864,14.7369242 C1.65906864,14.8124982 1.68896177,14.9560887 1.74874803,15.1676958 C1.80853428,15.3793029 1.85337398,15.5153361 1.8832671,15.5757953 C1.94305336,15.6513692 2.05515259,15.6967136 2.2195648,15.7118284 C2.38397701,15.7269432 2.95194645,15.7647302 3.92347314,15.8251894 C5.01457233,15.8856485 5.66474788,15.9158781 5.87399978,15.9158781 C6.12809137,15.9158781 6.2850303,15.8025172 6.34481656,15.5757953 C6.34481656,15.4699917 6.09072496,14.4195135 5.58254178,12.4243607 C5.46296926,11.9255725 5.34339675,11.4192269 5.22382423,10.9053239 C5.10425172,10.3914209 4.99962577,9.99087887 4.90994638,9.70369778 L4.82026699,9.31827053 C4.82026699,9.27292615 4.88752653,9.31071314 5.02204561,9.43163149 C5.88894634,10.0815676 6.81563333,10.4065357 7.80210658,10.4065357 L7.98146535,10.4065357 L8.18324397,10.4065357 C8.40744243,10.4065357 8.62416762,10.3989783 8.83341952,10.3838635 C9.04267142,10.3687487 9.31918286,10.3082895 9.66295384,10.202486 C10.0067248,10.0966824 10.2981828,9.96064928 10.5373278,9.79438655 C10.7764729,9.62812381 10.9931981,9.37872971 11.1875034,9.04620424 C11.3818087,8.71367877 11.4714881,8.30557933 11.4565416,7.82190592 C11.4565416,7.05105143 11.1650836,5.8569827 10.5821675,4.23969973 C9.99925153,2.62241677 9.70032025,1.69285693 9.68537368,1.45102023 Z"></path>
                </g>
                <g transform="translate(14.271308, 0.014329)" id="MJMATHI-74">
                    <path d="M0.11095582,6.34757868 C0.0369852734,6.4223818 0,6.47581259 0,6.50787107 C0,6.55061571 0.0158508315,6.63610498 0.0475524944,6.7643389 C0.0792541573,6.89257281 0.10567221,6.96737593 0.126806652,6.98874824 C0.147941094,7.04217904 0.195493588,7.06889444 0.269464135,7.06889444 C0.343434682,7.06889444 0.612898817,7.07423752 1.07785654,7.08492368 L1.91795061,7.08492368 L2.21911641,8.36726281 C2.25081807,8.48481056 2.28780334,8.63975987 2.33007223,8.83211074 C2.37234111,9.02446161 2.40932638,9.16338168 2.44102805,9.24887096 C2.47272971,9.33436023 2.50443137,9.44122183 2.53613303,9.56945574 C2.5678347,9.69768965 2.61010358,9.78852201 2.66293969,9.8419528 C2.71577579,9.8953836 2.7686119,9.95950056 2.821448,10.0343037 C2.87428411,10.1091068 2.94825465,10.1571945 3.04335964,10.1785668 C3.13846463,10.1999391 3.23356962,10.2106253 3.32867461,10.2106253 C3.51888459,10.1999391 3.65097485,10.1411653 3.72494539,10.0343037 C3.79891594,9.92744208 3.83590121,9.82592356 3.83590121,9.72974813 C3.83590121,9.65494501 3.78834872,9.40382027 3.69324373,8.97637389 C3.59813874,8.54892752 3.49246653,8.12682422 3.3762271,7.710064 L3.21771879,7.11698216 C3.21771879,7.09560984 3.48189931,7.08492368 4.01026036,7.08492368 L4.81865277,7.08492368 C4.89262331,7.01012056 4.92960859,6.95134669 4.92960859,6.90860205 C4.92960859,6.67350654 4.86092165,6.48649875 4.72354778,6.34757868 L3.02750881,6.34757868 L2.45687888,4.02333901 C2.04475726,2.31355351 1.83869645,1.3945438 1.83869645,1.26630989 C1.83869645,0.817491194 1.98135393,0.593081846 2.2666689,0.593081846 C2.63652163,0.593081846 2.99580715,0.774746556 3.34452544,1.13807598 C3.69324373,1.5014054 3.97327509,1.95022409 4.18461951,2.48453206 C4.20575395,2.54864902 4.232172,2.58605057 4.26387366,2.59673673 C4.29557533,2.60742289 4.37482948,2.61810905 4.50163614,2.62879521 L4.56503946,2.62879521 C4.72354778,2.62879521 4.80280193,2.58605057 4.80280193,2.5005613 C4.80280193,2.46850282 4.7869511,2.40438586 4.75524944,2.30821043 C4.70241334,2.13723188 4.60730835,1.93419485 4.46993447,1.69909934 C4.3325606,1.46400384 4.15291784,1.21287909 3.9310062,0.945725107 C3.70909456,0.678571122 3.43963043,0.454161774 3.1226138,0.272497065 C2.80559717,0.0908323549 2.48329693,0 2.15571308,0 C1.83869645,0 1.53753065,0.0801461955 1.25221569,0.240438586 C0.966900719,0.400730977 0.76083991,0.678571122 0.634033259,1.07395902 C0.612898817,1.15944829 0.602331596,1.30371145 0.602331596,1.50674847 L0.602331596,1.79527478 L1.1571107,4.03936825 C1.52696343,5.54611673 1.71717341,6.30483404 1.72774063,6.3155202 C1.72774063,6.33689252 1.45827649,6.34757868 0.919348225,6.34757868 L0.11095582,6.34757868 Z"></path>
                </g>
            </g>
            <g id="Group" transform="translate(57.000000, 99.500000) scale(-1, 1) rotate(-180.000000) translate(-57.000000, -99.500000) translate(47.000000, 92.000000)">
                <g transform="translate(0.000000, 3.400829)" id="MJMATHBI-78">
                    <path d="M0.695015241,6.5976076 L0.44839693,6.5976076 C0.149465643,6.5976076 0,6.70341116 0,6.91501828 C0,6.94524787 0.0149465643,7.02837923 0.044839693,7.16441238 C0.0747328216,7.30044553 0.156938925,7.48938045 0.291458004,7.73121716 C0.425977083,7.97305386 0.575442727,8.22244796 0.739854934,8.47939946 C0.904267142,8.73635096 1.15835874,9.00841726 1.50212971,9.29559834 C1.84590069,9.58277943 2.21209152,9.82461613 2.60070219,10.0211085 C3.21351133,10.2931748 3.76653421,10.4292079 4.25977083,10.4292079 L4.32703037,10.4292079 C4.88005325,10.4292079 5.22382423,10.4216505 5.35834331,10.4065357 C6.4942822,10.2100434 7.24161042,9.83217353 7.60032796,9.27292615 L7.82452642,9.49964806 C8.45228213,10.1344694 9.1323508,10.4518801 9.86473245,10.4518801 C10.6867935,10.4518801 11.3220225,10.2176008 11.7704194,9.74904216 C12.2188163,9.28048355 12.4504881,8.71367877 12.4654346,8.04862783 C12.4654346,7.39869169 12.2711293,6.89990349 11.8825186,6.55226322 C11.493908,6.20462296 11.0754042,6.02324543 10.6270072,6.00813064 C10.2832363,6.00813064 9.99177825,6.11393419 9.75263322,6.32554131 C9.51348819,6.53714843 9.39391568,6.82432951 9.39391568,7.18708457 C9.39391568,7.71610236 9.58822101,8.16198879 9.97683169,8.52474385 C10.171137,8.67589179 10.4102821,8.81192493 10.6942668,8.93284329 C10.6942668,8.94795808 10.6643736,8.97818767 10.6045874,9.02353205 C10.5448011,9.06887643 10.4401752,9.12177821 10.2907095,9.18223739 C10.1412439,9.24269656 9.97683169,9.27292615 9.79747291,9.27292615 C9.61811414,9.27292615 9.48359506,9.25781136 9.39391568,9.22758177 C8.90067906,9.00085986 8.54943479,8.57008823 8.34018289,7.93526688 C7.42844247,4.53443822 6.97257226,2.56195759 6.97257226,2.01782501 C6.97257226,1.47369242 7.35370965,1.20162613 8.11598443,1.20162613 C8.77363326,1.20162613 9.37149583,1.42834804 9.90957215,1.88179186 C10.4476485,2.33523568 10.8213126,2.84913868 11.0305645,3.42350085 C11.0903507,3.63510797 11.1426637,3.76358372 11.1875034,3.8089281 C11.2323431,3.85427248 11.3818087,3.87694467 11.6359003,3.87694467 L11.7704194,3.87694467 L12.0170377,3.87694467 C12.315969,3.87694467 12.4654346,3.77114112 12.4654346,3.559534 C12.4654346,3.36304168 12.368282,3.08341799 12.1739766,2.72066293 C11.9796713,2.35790787 11.7106331,1.97248062 11.3668622,1.56438118 C11.0230912,1.15628175 10.5373278,0.793526688 9.90957215,0.476116013 C9.28181645,0.158705338 8.62416762,0.00755739703 7.93662566,0.0226721911 C6.68111425,0.0226721911 5.70211429,0.347640263 4.99962577,0.997576408 L4.82026699,1.20162613 C4.17756473,0.430771631 3.45265636,0.0453443822 2.64554189,0.0453443822 L2.53344265,0.0453443822 C1.68148849,0.0453443822 1.0462595,0.287181087 0.627755702,0.770854497 C0.209251901,1.25452791 0,1.7835457 0,2.35790787 C0,3.08341799 0.201778618,3.61243578 0.605335855,3.94496125 C1.00889309,4.27748672 1.41992361,4.45130685 1.83842741,4.46642164 C2.18219839,4.46642164 2.4736564,4.36061808 2.71280142,4.14901097 C2.95194645,3.93740385 3.07151897,3.65022276 3.07151897,3.28746771 C3.07151897,2.75844991 2.87721363,2.31256349 2.48860296,1.94980843 C2.29429762,1.79866049 2.05515259,1.66262735 1.77116787,1.54170899 C1.801061,1.46613502 1.90568695,1.39056105 2.08504572,1.31498708 C2.2644045,1.23941311 2.45123655,1.19406873 2.64554189,1.17895394 C2.9743663,1.17895394 3.2658243,1.31498708 3.5199159,1.58705338 C3.77400749,1.85911967 3.96831283,2.17653034 4.10283191,2.5392854 C5.01457233,5.94011406 5.47044254,7.91259469 5.47044254,8.45672727 C5.47044254,9.00085986 5.08930515,9.27292615 4.32703037,9.27292615 C3.78895406,9.27292615 3.25087774,9.09910602 2.71280142,8.75146576 C2.17472511,8.40382549 1.74874803,7.83702072 1.43487018,7.05105143 C1.37508392,6.83944431 1.32277094,6.71096856 1.27793125,6.66562418 C1.23309156,6.6202798 1.08362591,6.5976076 0.82953432,6.5976076 L0.695015241,6.5976076 Z"></path>
                </g>
                <g transform="translate(14.110087, 0.014329)" id="MJMATHI-74">
                    <path d="M0.11095582,6.34757868 C0.0369852734,6.4223818 0,6.47581259 0,6.50787107 C0,6.55061571 0.0158508315,6.63610498 0.0475524944,6.7643389 C0.0792541573,6.89257281 0.10567221,6.96737593 0.126806652,6.98874824 C0.147941094,7.04217904 0.195493588,7.06889444 0.269464135,7.06889444 C0.343434682,7.06889444 0.612898817,7.07423752 1.07785654,7.08492368 L1.91795061,7.08492368 L2.21911641,8.36726281 C2.25081807,8.48481056 2.28780334,8.63975987 2.33007223,8.83211074 C2.37234111,9.02446161 2.40932638,9.16338168 2.44102805,9.24887096 C2.47272971,9.33436023 2.50443137,9.44122183 2.53613303,9.56945574 C2.5678347,9.69768965 2.61010358,9.78852201 2.66293969,9.8419528 C2.71577579,9.8953836 2.7686119,9.95950056 2.821448,10.0343037 C2.87428411,10.1091068 2.94825465,10.1571945 3.04335964,10.1785668 C3.13846463,10.1999391 3.23356962,10.2106253 3.32867461,10.2106253 C3.51888459,10.1999391 3.65097485,10.1411653 3.72494539,10.0343037 C3.79891594,9.92744208 3.83590121,9.82592356 3.83590121,9.72974813 C3.83590121,9.65494501 3.78834872,9.40382027 3.69324373,8.97637389 C3.59813874,8.54892752 3.49246653,8.12682422 3.3762271,7.710064 L3.21771879,7.11698216 C3.21771879,7.09560984 3.48189931,7.08492368 4.01026036,7.08492368 L4.81865277,7.08492368 C4.89262331,7.01012056 4.92960859,6.95134669 4.92960859,6.90860205 C4.92960859,6.67350654 4.86092165,6.48649875 4.72354778,6.34757868 L3.02750881,6.34757868 L2.45687888,4.02333901 C2.04475726,2.31355351 1.83869645,1.3945438 1.83869645,1.26630989 C1.83869645,0.817491194 1.98135393,0.593081846 2.2666689,0.593081846 C2.63652163,0.593081846 2.99580715,0.774746556 3.34452544,1.13807598 C3.69324373,1.5014054 3.97327509,1.95022409 4.18461951,2.48453206 C4.20575395,2.54864902 4.232172,2.58605057 4.26387366,2.59673673 C4.29557533,2.60742289 4.37482948,2.61810905 4.50163614,2.62879521 L4.56503946,2.62879521 C4.72354778,2.62879521 4.80280193,2.58605057 4.80280193,2.5005613 C4.80280193,2.46850282 4.7869511,2.40438586 4.75524944,2.30821043 C4.70241334,2.13723188 4.60730835,1.93419485 4.46993447,1.69909934 C4.3325606,1.46400384 4.15291784,1.21287909 3.9310062,0.945725107 C3.70909456,0.678571122 3.43963043,0.454161774 3.1226138,0.272497065 C2.80559717,0.0908323549 2.48329693,0 2.15571308,0 C1.83869645,0 1.53753065,0.0801461955 1.25221569,0.240438586 C0.966900719,0.400730977 0.76083991,0.678571122 0.634033259,1.07395902 C0.612898817,1.15944829 0.602331596,1.30371145 0.602331596,1.50674847 L0.602331596,1.79527478 L1.1571107,4.03936825 C1.52696343,5.54611673 1.71717341,6.30483404 1.72774063,6.3155202 C1.72774063,6.33689252 1.45827649,6.34757868 0.919348225,6.34757868 L0.11095582,6.34757868 Z"></path>
                </g>
            </g>
        </g>
        <g id="Group-5-Copy-7" transform="translate(25.000000, 336.000000)" fill="#CEEFEA" stroke="#00A88F" stroke-width="2">
            <circle id="Oval-11" cx="9.5" cy="9.5" r="9.5"></circle>
        </g>
        <text id="C-Copy" font-family="Helvetica-Bold, Helvetica" font-size="11" font-weight="bold" fill="#00A88F">
            <tspan x="30.0280762" y="349">C</tspan>
        </text>
        <g id="Group-2" transform="translate(332.000000, 337.000000)">
            <g id="Group-5-Copy-6" fill="#CEEFEA" stroke="#00A88F" stroke-width="2">
                <circle id="Oval-11" cx="9.5" cy="9.5" r="9.5"></circle>
            </g>
            <text id="LC" font-family="Helvetica-Bold, Helvetica" font-size="9" font-weight="bold" fill="#00A88F">
                <tspan x="3.60147095" y="12.3999939">LC</tspan>
            </text>
        </g>
        <polygon id="Triangle-3-Copy" fill="#00A88F" points="490 245.5 479 251 479 240"></polygon>
        <polygon id="Triangle-3-Copy-3" fill="#00A88F" points="69 245.5 58 251 58 240"></polygon>
        <rect id="Rectangle-21" stroke="#00A88F" stroke-width="4" x="84" y="48" width="376" height="240"></rect>
        <path d="M33.3545518,96 L509.01926,96" id="Path-76" stroke="#00A88F" stroke-width="2"></path>
        <polyline id="Path-77-Copy" stroke="#00A88F" stroke-width="2" points="34.2307809 246 365.951398 246 365.951398 152 387.811086 152"></polyline>
        <polyline id="Path-77-Copy-2" stroke="#00A88F" stroke-width="2" points="404 152 404 246 510 246"></polyline>
        <path d="M294,152 L294,246" id="Path-79" stroke="#00A88F" stroke-width="2"></path>
        <path d="M277,135 C242.333333,135 225,135 225,135 C225,135 225.005936,172.333333 225.017808,247" id="Path-78-Copy-2" stroke="#00A88F" stroke-width="2"></path>
        <path d="M184,117.06959 L184,245.059246" id="Path-78-Copy" stroke="#00A88F" stroke-width="2"></path>
        <g id="Group-4" transform="translate(152.000000, 150.000000)">
            <g id="Rectangle-22">
                <use fill="#CEEFEA" fill-rule="evenodd" xlink:href="#path-1"></use>
                <rect stroke="#00A88F" stroke-width="2" x="1" y="1" width="62" height="20"></rect>
            </g>
            <text id="SIGMOID" font-family="Helvetica-Bold, Helvetica" font-size="11" font-weight="bold" fill="#00A88F">
                <tspan x="7.16577148" y="14">SIGMOID</tspan>
            </text>
        </g>
        <g id="Rectangle-22">
            <use fill="#CEEFEA" fill-rule="evenodd" xlink:href="#path-2"></use>
            <rect stroke="#00A88F" stroke-width="2" x="264" y="183" width="62" height="20"></rect>
        </g>
        <path d="M294.294163,132.17193 L294.294163,111.997855" id="Path-82" stroke="#00A88F" stroke-width="2"></path>
        <g id="Group-11" transform="translate(398.000000, 96.000000)">
            <polygon id="Triangle-3-Copy-10" fill="#00A88F" transform="translate(6.099976, 39.500000) rotate(-270.000000) translate(-6.099976, -39.500000) " points="11.5999756 39.5 0.599975586 45 0.599975586 34"></polygon>
            <path d="M6,0 L6,35.6720816" id="Path-81" stroke="#00A88F" stroke-width="2"></path>
        </g>
        <text id="TANH" font-family="Helvetica-Bold, Helvetica" font-size="11" font-weight="bold" fill="#00A88F">
            <tspan x="279.224609" y="197">TANH</tspan>
        </text>
        <g id="Rectangle-22">
            <use fill="#CEEFEA" fill-rule="evenodd" xlink:href="#path-3"></use>
            <rect stroke="#00A88F" stroke-width="2" x="334" y="183" width="62" height="20"></rect>
        </g>
        <g id="Rectangle-22">
            <use fill="#CEEFEA" fill-rule="evenodd" xlink:href="#path-4"></use>
            <rect stroke="#00A88F" stroke-width="2" x="193" y="183" width="62" height="20"></rect>
        </g>
        <g id="Group-10" transform="translate(372.000000, 103.000000)">
            <g id="Rectangle-22-Copy">
                <use fill="#CEEFEA" fill-rule="evenodd" xlink:href="#path-5"></use>
                <rect stroke="#00A88F" stroke-width="2" x="1" y="1" width="62" height="20"></rect>
            </g>
            <text id="TANH-Copy" font-family="Helvetica-Bold, Helvetica" font-size="11" font-weight="bold" fill="#00A88F">
                <tspan x="16.2246094" y="14">TANH</tspan>
            </text>
        </g>
        <text id="SIGMOID" font-family="Helvetica-Bold, Helvetica" font-size="11" font-weight="bold" fill="#00A88F">
            <tspan x="200.165771" y="197">SIGMOID</tspan>
        </text>
        <text id="SIGMOID-Copy" font-family="Helvetica-Bold, Helvetica" font-size="11" font-weight="bold" fill="#00A88F">
            <tspan x="341.165771" y="197">SIGMOID</tspan>
        </text>
        <g id="Group-5-Copy" transform="translate(284.000000, 87.000000)" stroke="#00A88F" stroke-width="2">
            <circle id="Oval-11" fill="#CEEFEA" cx="9.5" cy="9.5" r="9.5"></circle>
            <g id="Group" transform="translate(9.500000, 9.500000) rotate(45.000000) translate(-9.500000, -9.500000) translate(6.000000, 6.000000)">
                <path d="M0,0 L7,7" id="Path-80"></path>
                <path d="M7,0 L0,7" id="Path-80-Copy"></path>
            </g>
        </g>
        <path d="M155,266 L155,310" id="Path-77" stroke="#979797" stroke-width="2"></path>
        <g id="Group-5-Copy-5" transform="translate(145.000000, 236.000000)" fill="#CEEFEA" stroke="#00A88F" stroke-width="2">
            <circle id="Oval-11" cx="9.5" cy="9.5" r="9.5"></circle>
        </g>
        <text id="C" font-family="Helvetica-Bold, Helvetica" font-size="11" font-weight="bold" fill="#00A88F">
            <tspan x="150.028076" y="249">C</tspan>
        </text>
        <g id="Group-2-Copy" transform="translate(215.000000, 214.000000)">
            <g id="Group-5-Copy-6" fill="#CEEFEA" stroke="#00A88F" stroke-width="2">
                <circle id="Oval-11" cx="9.5" cy="9.5" r="9.5"></circle>
            </g>
            <text id="LC" font-family="Helvetica-Bold, Helvetica" font-size="9" font-weight="bold" fill="#00A88F">
                <tspan x="3.60147095" y="12.3999939">LC</tspan>
            </text>
        </g>
        <g id="Group-2-Copy-4" transform="translate(174.000000, 214.000000)">
            <g id="Group-5-Copy-6" fill="#CEEFEA" stroke="#00A88F" stroke-width="2">
                <circle id="Oval-11" cx="9.5" cy="9.5" r="9.5"></circle>
            </g>
            <text id="LC" font-family="Helvetica-Bold, Helvetica" font-size="9" font-weight="bold" fill="#00A88F">
                <tspan x="3.60147095" y="12.3999939">LC</tspan>
            </text>
        </g>
        <g id="Group-2-Copy-2" transform="translate(284.000000, 214.000000)">
            <g id="Group-5-Copy-6" fill="#CEEFEA" stroke="#00A88F" stroke-width="2">
                <circle id="Oval-11" cx="9.5" cy="9.5" r="9.5"></circle>
            </g>
            <text id="LC" font-family="Helvetica-Bold, Helvetica" font-size="9" font-weight="bold" fill="#00A88F">
                <tspan x="3.60147095" y="12.3999939">LC</tspan>
            </text>
        </g>
        <g id="Group-2-Copy-3" transform="translate(356.000000, 214.000000)">
            <g id="Group-5-Copy-6" fill="#CEEFEA" stroke="#00A88F" stroke-width="2">
                <circle id="Oval-11" cx="9.5" cy="9.5" r="9.5"></circle>
            </g>
            <text id="LC" font-family="Helvetica-Bold, Helvetica" font-size="9" font-weight="bold" fill="#00A88F">
                <tspan x="3.60147095" y="12.3999939">LC</tspan>
            </text>
        </g>
        <g id="Group-7" transform="translate(441.000000, 10.000000)">
            <path d="M6,237 L6,6" id="Path-78" stroke="#00A88F" stroke-width="2"></path>
            <polygon id="Triangle-3" fill="#00A88F" points="6.29998779 0 11.7999878 11 0.799987793 11"></polygon>
        </g>
        <polygon id="Triangle-3-Copy-5" fill="#00A88F" transform="translate(183.899994, 113.500000) rotate(-90.000000) translate(-183.899994, -113.500000) " points="189.399994 113.5 178.399994 119 178.399994 108"></polygon>
        <polygon id="Triangle-3-Copy-9" fill="#00A88F" transform="translate(155.100006, 262.500000) rotate(-90.000000) translate(-155.100006, -262.500000) " points="160.600006 262.5 149.600006 268 149.600006 257"></polygon>
        <polygon id="Triangle-3-Copy-6" fill="#00A88F" transform="translate(294.200012, 113.500000) rotate(-90.000000) translate(-294.200012, -113.500000) " points="299.700012 113.5 288.700012 119 288.700012 108"></polygon>
        <polygon id="Triangle-3-Copy-7" fill="#00A88F" transform="translate(294.100006, 150.500000) rotate(-90.000000) translate(-294.100006, -150.500000) " points="299.600006 150.5 288.600006 156 288.600006 145"></polygon>
        <polygon id="Triangle-3-Copy-8" fill="#00A88F" points="282 134.5 271 140 271 129"></polygon>
        <polygon id="Triangle-3-Copy-11" fill="#00A88F" points="392 152.100006 381 157.600006 381 146.600006"></polygon>
        <polygon id="Triangle-3-Copy-2" fill="#00A88F" points="490 95.5 479 101 479 90"></polygon>
        <polygon id="Triangle-3-Copy-4" fill="#00A88F" points="69 95.5 58 101 58 90"></polygon>
        <text id="LSTM-CELL-Copy" font-family="Helvetica-Bold, Helvetica" font-size="19" font-weight="bold" fill="#000000">
            <tspan x="222.20166" y="40">LSTM CELL</tspan>
        </text>
        <g id="Group-6" transform="translate(481.000000, 168.000000)" fill="#00A88F">
            <circle id="Oval-10" cx="3" cy="3" r="3"></circle>
            <circle id="Oval-10-Copy" cx="15" cy="3" r="3"></circle>
            <circle id="Oval-10-Copy-2" cx="26" cy="3" r="3"></circle>
        </g>
        <g id="Group-6-Copy" transform="translate(38.000000, 168.000000)" fill="#00A88F">
            <circle id="Oval-10" cx="3" cy="3" r="3"></circle>
            <circle id="Oval-10-Copy" cx="15" cy="3" r="3"></circle>
            <circle id="Oval-10-Copy-2" cx="26" cy="3" r="3"></circle>
        </g>
        <text id="Vector-concatenation" font-family="Helvetica" font-size="16" font-weight="normal" fill="#000000">
            <tspan x="54.3398438" y="352">Vector concatenation</tspan>
        </text>
        <text id="Linear-combination" font-family="Helvetica" font-size="16" font-weight="normal" fill="#000000">
            <tspan x="362" y="352">Linear combination</tspan>
        </text>
        <text id="Element-wise-multipl" font-family="Helvetica" font-size="16" font-weight="normal" fill="#000000">
            <tspan x="55" y="380">Element-wise multiplication</tspan>
        </text>
        <text id="Element-wise-additio" font-family="Helvetica" font-size="16" font-weight="normal" fill="#000000">
            <tspan x="362" y="380">Element-wise addition</tspan>
        </text>
        <g id="Group-8" transform="translate(25.000000, 366.000000)" fill="#CEEFEA" stroke="#00A88F" stroke-width="2">
            <circle id="Oval-11" cx="9.5" cy="9.5" r="9.5"></circle>
            <circle id="Oval-11-Copy" cx="9.5" cy="9.5" r="3.5"></circle>
        </g>
        <g id="Group-8-Copy" transform="translate(174.000000, 86.000000)" fill="#CEEFEA" stroke="#00A88F" stroke-width="2">
            <circle id="Oval-11" cx="9.5" cy="9.5" r="9.5"></circle>
            <circle id="Oval-11-Copy" cx="9.5" cy="9.5" r="3.5"></circle>
        </g>
        <g id="Group-8-Copy-2" transform="translate(285.000000, 125.000000)" fill="#CEEFEA" stroke="#00A88F" stroke-width="2">
            <circle id="Oval-11" cx="9.5" cy="9.5" r="9.5"></circle>
            <circle id="Oval-11-Copy" cx="9.5" cy="9.5" r="3.5"></circle>
        </g>
        <g id="Group-8-Copy-3" transform="translate(394.500000, 143.000000)" fill="#CEEFEA" stroke="#00A88F" stroke-width="2">
            <circle id="Oval-11" cx="9.5" cy="9.5" r="9.5"></circle>
            <circle id="Oval-11-Copy" cx="9.5" cy="9.5" r="3.5"></circle>
        </g>
        <g id="Group-5-Copy" transform="translate(332.000000, 365.000000)" stroke="#00A88F" stroke-width="2">
            <circle id="Oval-11" fill="#CEEFEA" cx="9.5" cy="9.5" r="9.5"></circle>
            <g id="Group" transform="translate(9.500000, 9.500000) rotate(45.000000) translate(-9.500000, -9.500000) translate(6.000000, 6.000000)">
                <path d="M0,0 L7,7" id="Path-80"></path>
                <path d="M7,0 L0,7" id="Path-80-Copy"></path>
            </g>
        </g>
        <g id="Group" transform="translate(240.500000, 125.805876) scale(-1, 1) rotate(-180.000000) translate(-240.500000, -125.805876) translate(119.000000, 74.305876)" fill="#000000" fill-rule="nonzero">
            <g transform="translate(37.000000, 40.000000)" id="MJMATHBI-66">
                <path d="M11.6856737,14.4669089 C11.8800611,14.3921445 11.9772548,14.2575686 11.9772548,14.0631812 C11.9772548,13.8089823 11.895014,13.5174011 11.7305323,13.1884378 C11.640815,13.1136735 11.0352235,13.0762913 9.9137577,13.0762913 L8.32127626,13.0762913 L8.32127626,13.0314326 C8.2913705,13.0015269 8.1941768,12.5080819 8.02969515,11.5510978 C7.8652135,10.5941136 7.67082609,9.45769494 7.44653293,8.14184173 C7.22223977,6.82598852 7.02037593,5.83909862 6.8409414,5.18117201 C6.18301479,2.2803138 4.94940241,0.56820934 3.14010425,0.0448586321 C3.00552835,0.0149528774 2.79618807,0 2.5120834,0 C1.73453378,0 1.12894224,0.179434529 0.695308798,0.538303586 C0.261675354,0.897172643 0.0373821934,1.34575896 0.0224293161,1.88406255 C0.00747643869,2.42236613 0.186910967,2.86347602 0.560732902,3.2073922 C0.934554836,3.55130838 1.36071184,3.73821934 1.83920392,3.7681251 C2.19807297,3.7681251 2.48965408,3.66345496 2.71394724,3.45411467 C2.9382404,3.24477439 3.05786342,2.96814616 3.0728163,2.62422998 C3.0728163,2.05602064 2.81861739,1.56257569 2.31021955,1.14389512 L2.48965408,1.1214658 L2.73637656,1.1214658 C2.99057548,1.16632444 3.22982151,1.45790554 3.45411467,1.99620913 C3.52887906,2.26536092 3.70083715,3.17001 3.96998894,4.71015637 C4.05970621,5.17369557 4.22418786,6.09329753 4.4634339,7.46896225 C4.70267993,8.84462697 4.93444953,10.123098 5.15874269,11.3043753 C5.38303586,12.4856526 5.487706,13.0762913 5.47275312,13.0762913 L4.12699416,13.0762913 L3.29710946,13.0762913 C2.99805191,13.0762913 2.78871163,13.0987206 2.66908861,13.1435792 C2.54946559,13.1884378 2.48217764,13.3005844 2.46722477,13.480019 C2.52703628,14.0183225 2.6466593,14.332333 2.82609382,14.4220502 C2.88590533,14.451956 3.38682673,14.4669089 4.328858,14.4669089 L5.7194756,14.4669089 L5.74190491,14.5117675 C6.01105671,16.2911599 6.2802085,17.4574843 6.54936029,18.0107408 C6.81851208,18.5789501 7.18485758,19.0424893 7.64839678,19.4013584 C8.11193598,19.7602275 8.51566367,19.9845206 8.85957985,20.0742379 C9.20349602,20.1639551 9.53993577,20.2162902 9.86889907,20.2312431 C10.855789,20.2312431 11.5510978,20.0443321 11.9548255,19.6705102 C12.3585532,19.2966883 12.5678934,18.8555784 12.5828463,18.3471805 C12.5828463,17.808877 12.3959353,17.3602906 12.0221134,17.0014216 C11.6482915,16.6425525 11.2370873,16.463118 10.788501,16.463118 C10.429632,16.463118 10.1305744,16.5677881 9.89132838,16.7771284 C9.65208235,16.9864687 9.53245933,17.2705734 9.53245933,17.6294424 C9.53245933,17.7939241 9.55488864,17.9509293 9.59974728,18.1004581 C9.64460591,18.2499868 9.70441742,18.3845627 9.7791818,18.5041858 C9.85394619,18.6238088 9.92123414,18.7210025 9.98104565,18.7957669 C10.0408572,18.8705312 10.1006687,18.9378192 10.1604802,18.9976307 L10.2501974,19.087348 C10.1754331,19.087348 10.0931922,19.0948244 10.003475,19.1097773 C9.2558311,19.1097773 8.88200916,18.4368978 8.88200916,17.0911388 L8.88200916,16.9341336 L8.85957985,16.1266782 L8.72500395,15.3640815 C8.63528668,14.8257779 8.58295161,14.5491497 8.56799874,14.5341968 L8.56799874,14.4669089 L11.6856737,14.4669089 Z"></path>
            </g>
            <g transform="translate(48.000000, 38.000000)" id="MJMATHI-67">
                <path d="M4.77311546,3.93266656 C4.6145402,3.79523467 4.38196314,3.64723109 4.0753843,3.48865582 C3.76880545,3.33008056 3.44636908,3.25079292 3.10807519,3.25079292 C2.44205907,3.25079292 1.90818902,3.48865582 1.50646501,3.96438161 C1.10474101,4.44010741 0.898593166,5.04797926 0.888021482,5.78799716 C0.888021482,6.89802401 1.29503133,7.91819154 2.10905102,8.84849976 C2.92307071,9.77880798 3.82694972,10.2492479 4.82068804,10.2598196 C5.31755721,10.2598196 5.77742547,10.0060992 6.20029284,9.49865835 L6.24786542,9.56208845 C6.26900879,9.59380351 6.295438,9.62551856 6.32715306,9.65723361 C6.35886811,9.68894867 6.40644069,9.7312354 6.46987079,9.78409382 C6.5333009,9.83695225 6.60201685,9.87395314 6.67601864,9.89509651 C6.75002043,9.91623988 6.8345939,9.9320974 6.92973906,9.94266909 C7.07774264,9.94266909 7.19931701,9.89509651 7.29446217,9.79995135 C7.38960733,9.70480619 7.44246575,9.60437519 7.45303743,9.49865835 C7.45303743,9.34008308 7.15174443,8.06090928 6.54915843,5.66113695 C5.94657242,3.26136461 5.62942189,2.03504923 5.59770684,1.98219081 C5.40741652,1.41131985 5.00040668,0.940879903 4.3766773,0.570870952 C3.75294793,0.200862002 3.03935924,0.0105716843 2.23591123,0 C0.745303743,0 0,0.359437266 0,1.0783118 C0,1.35317559 0.0951451587,1.59632433 0.285435476,1.80775802 C0.475725794,2.0191917 0.718874533,2.12490855 1.01488169,2.12490855 C1.17345696,2.12490855 1.32146054,2.07733597 1.45889243,1.98219081 C1.59632433,1.88704565 1.67032612,1.72318454 1.6808978,1.49060749 C1.6808978,1.38489064 1.67032612,1.28445964 1.64918275,1.18931448 C1.62803938,1.09416933 1.59103849,1.02016754 1.53818007,0.967309114 C1.48532164,0.914450692 1.44303491,0.861592271 1.41131985,0.808733849 C1.3796048,0.755875428 1.34260391,0.713588691 1.30031717,0.681873638 L1.26860212,0.650158585 L1.28445964,0.650158585 C1.39017649,0.618443532 1.70732702,0.602586005 2.23591123,0.602586005 C2.63763523,0.602586005 2.95478576,0.666016111 3.18736282,0.792876323 C3.43051156,0.90916485 3.65780277,1.08359764 3.86923646,1.3161747 C4.08067014,1.54875175 4.22867372,1.79718633 4.3132472,2.06147844 C4.3766773,2.26234044 4.46125078,2.59006265 4.56696762,3.04464508 C4.70439952,3.55208593 4.77311546,3.84809309 4.77311546,3.93266656 Z M5.93071489,8.4520616 L5.86728479,8.62649439 C5.83556974,8.74278292 5.80914053,8.82207055 5.78799716,8.86435729 C5.76685379,8.90664403 5.73513874,8.98064582 5.692852,9.08636266 C5.65056526,9.1920795 5.59770684,9.26608129 5.53427673,9.30836803 C5.47084663,9.35065477 5.40213068,9.40879903 5.32812889,9.48280082 C5.2541271,9.55680261 5.15898194,9.60437519 5.04269341,9.62551856 C4.92640489,9.64666193 4.81011636,9.66251945 4.69382783,9.67309114 C4.22867372,9.67309114 3.77937714,9.3929415 3.34593808,8.83264224 C3.02878755,8.42034655 2.76449545,7.79133133 2.55306176,6.94559659 C2.34162807,6.09986184 2.23591123,5.48670415 2.23591123,5.10612352 C2.23591123,4.27096046 2.56363344,3.85337893 3.21907787,3.85337893 C3.81109219,3.85337893 4.39253483,4.22338788 4.96340578,4.96340578 L5.09026599,5.12198105 L5.93071489,8.4520616 Z"></path>
            </g>
            <g transform="translate(112.000000, 15.000000)">
                <g transform="translate(0.000000, 6.459643)" id="MJMATHBI-69">
                    <path d="M4.05970621,13.9734639 C4.05970621,14.4370031 4.23914074,14.8482072 4.59800979,15.2070763 C4.95687885,15.5659453 5.36060654,15.7453799 5.80919286,15.7453799 C6.21292055,15.7453799 6.51945454,15.6332333 6.72879482,15.4089401 C6.9381351,15.184647 7.05028168,14.9005423 7.06523456,14.5566261 C7.06523456,14.0930869 6.88580003,13.6818828 6.52693097,13.3230137 C6.16806192,12.9641447 5.74190491,12.7847102 5.24845996,12.7847102 C4.90454378,12.7847102 4.62043911,12.8968567 4.39614595,13.1211499 C4.17185279,13.3454431 4.05970621,13.6295477 4.05970621,13.9734639 Z M0,6.81851208 C0,6.95308798 0.0747643869,7.19233402 0.224293161,7.5362502 C0.373821934,7.88016638 0.590638656,8.26894119 0.874743326,8.70257463 C1.158848,9.13620808 1.54762281,9.51003001 2.04106776,9.82404044 C2.53451272,10.1380509 3.0728163,10.3025325 3.65597852,10.3174854 C3.92513031,10.3174854 4.1942821,10.2875796 4.4634339,10.2277681 C4.73258569,10.1679566 5.0241668,10.0707629 5.33817722,9.93618702 C5.65218765,9.80161112 5.89891012,9.5847944 6.07834465,9.28573685 C6.25777918,8.9866793 6.35497288,8.64276312 6.36992576,8.25398831 C6.36992576,8.02969515 6.21292055,7.50634444 5.89891012,6.68393619 C5.5848997,5.86152793 5.23350708,4.96435529 4.84473227,3.99241826 C4.45595746,3.02048123 4.20923498,2.39993682 4.10456484,2.13078503 C4.02980045,1.83172748 3.99241826,1.60743432 3.99241826,1.45790554 C3.99241826,1.23361238 4.08961196,1.1214658 4.28399937,1.1214658 C4.58305692,1.1214658 4.89706734,1.28594745 5.22603064,1.61491076 C5.68956984,2.03359132 6.02600958,2.60180066 6.23534987,3.31953878 C6.31011425,3.55878482 6.36992576,3.70083715 6.41478439,3.74569578 C6.45964303,3.79055441 6.6091718,3.81298373 6.86337072,3.81298373 L6.99794661,3.81298373 L7.24466909,3.81298373 C7.54372664,3.81298373 7.69325541,3.70831359 7.69325541,3.49897331 C7.69325541,3.37935029 7.61849102,3.14758069 7.46896225,2.80366451 C7.31943348,2.45974833 7.11009319,2.07097352 6.8409414,1.63734007 C6.57178961,1.20370663 6.17553836,0.822408256 5.65218765,0.493444953 C5.12883694,0.164481651 4.56810404,0 3.96998894,0 C3.32701522,0 2.72890012,0.17195809 2.17564366,0.515874269 C1.6223872,0.859790449 1.33828253,1.37566472 1.32332965,2.06349708 C1.32332965,2.36255463 1.69715158,3.44663824 2.44479545,5.31574791 C3.19243932,7.18485758 3.57373769,8.14931817 3.58869057,8.20912968 C3.66345496,8.47828147 3.70083715,8.70257463 3.70083715,8.88200916 C3.70083715,9.09134944 3.61111989,9.19601959 3.43168536,9.19601959 C3.11767493,9.19601959 2.79618807,9.03153794 2.46722477,8.70257463 C2.00368557,8.28389407 1.66724583,7.71568473 1.45790554,6.99794661 C1.38314116,6.75870057 1.32332965,6.61664824 1.27847102,6.57178961 C1.23361238,6.52693097 1.08408361,6.50450166 0.829884694,6.50450166 L0.695308798,6.50450166 L0.448586321,6.50450166 C0.149528774,6.50450166 0,6.6091718 0,6.81851208 Z"></path>
                </g>
                <g transform="translate(8.706634, 0.010631)" id="MJMATHI-67">
                    <path d="M4.77311546,3.93266656 C4.6145402,3.79523467 4.38196314,3.64723109 4.0753843,3.48865582 C3.76880545,3.33008056 3.44636908,3.25079292 3.10807519,3.25079292 C2.44205907,3.25079292 1.90818902,3.48865582 1.50646501,3.96438161 C1.10474101,4.44010741 0.898593166,5.04797926 0.888021482,5.78799716 C0.888021482,6.89802401 1.29503133,7.91819154 2.10905102,8.84849976 C2.92307071,9.77880798 3.82694972,10.2492479 4.82068804,10.2598196 C5.31755721,10.2598196 5.77742547,10.0060992 6.20029284,9.49865835 L6.24786542,9.56208845 C6.26900879,9.59380351 6.295438,9.62551856 6.32715306,9.65723361 C6.35886811,9.68894867 6.40644069,9.7312354 6.46987079,9.78409382 C6.5333009,9.83695225 6.60201685,9.87395314 6.67601864,9.89509651 C6.75002043,9.91623988 6.8345939,9.9320974 6.92973906,9.94266909 C7.07774264,9.94266909 7.19931701,9.89509651 7.29446217,9.79995135 C7.38960733,9.70480619 7.44246575,9.60437519 7.45303743,9.49865835 C7.45303743,9.34008308 7.15174443,8.06090928 6.54915843,5.66113695 C5.94657242,3.26136461 5.62942189,2.03504923 5.59770684,1.98219081 C5.40741652,1.41131985 5.00040668,0.940879903 4.3766773,0.570870952 C3.75294793,0.200862002 3.03935924,0.0105716843 2.23591123,0 C0.745303743,0 0,0.359437266 0,1.0783118 C0,1.35317559 0.0951451587,1.59632433 0.285435476,1.80775802 C0.475725794,2.0191917 0.718874533,2.12490855 1.01488169,2.12490855 C1.17345696,2.12490855 1.32146054,2.07733597 1.45889243,1.98219081 C1.59632433,1.88704565 1.67032612,1.72318454 1.6808978,1.49060749 C1.6808978,1.38489064 1.67032612,1.28445964 1.64918275,1.18931448 C1.62803938,1.09416933 1.59103849,1.02016754 1.53818007,0.967309114 C1.48532164,0.914450692 1.44303491,0.861592271 1.41131985,0.808733849 C1.3796048,0.755875428 1.34260391,0.713588691 1.30031717,0.681873638 L1.26860212,0.650158585 L1.28445964,0.650158585 C1.39017649,0.618443532 1.70732702,0.602586005 2.23591123,0.602586005 C2.63763523,0.602586005 2.95478576,0.666016111 3.18736282,0.792876323 C3.43051156,0.90916485 3.65780277,1.08359764 3.86923646,1.3161747 C4.08067014,1.54875175 4.22867372,1.79718633 4.3132472,2.06147844 C4.3766773,2.26234044 4.46125078,2.59006265 4.56696762,3.04464508 C4.70439952,3.55208593 4.77311546,3.84809309 4.77311546,3.93266656 Z M5.93071489,8.4520616 L5.86728479,8.62649439 C5.83556974,8.74278292 5.80914053,8.82207055 5.78799716,8.86435729 C5.76685379,8.90664403 5.73513874,8.98064582 5.692852,9.08636266 C5.65056526,9.1920795 5.59770684,9.26608129 5.53427673,9.30836803 C5.47084663,9.35065477 5.40213068,9.40879903 5.32812889,9.48280082 C5.2541271,9.55680261 5.15898194,9.60437519 5.04269341,9.62551856 C4.92640489,9.64666193 4.81011636,9.66251945 4.69382783,9.67309114 C4.22867372,9.67309114 3.77937714,9.3929415 3.34593808,8.83264224 C3.02878755,8.42034655 2.76449545,7.79133133 2.55306176,6.94559659 C2.34162807,6.09986184 2.23591123,5.48670415 2.23591123,5.10612352 C2.23591123,4.27096046 2.56363344,3.85337893 3.21907787,3.85337893 C3.81109219,3.85337893 4.39253483,4.22338788 4.96340578,4.96340578 L5.09026599,5.12198105 L5.93071489,8.4520616 Z"></path>
                </g>
            </g>
            <g transform="translate(222.000000, 0.000000)">
                <g transform="translate(0.000000, 6.459643)" id="MJMATHBI-6F">
                    <path d="M4.82230295,0 C3.88027168,0 3.0728163,0.127099458 2.39993682,0.381298373 C1.72705734,0.635497288 1.23361238,0.971937029 0.919601959,1.3906176 C0.605591534,1.80929816 0.373821934,2.23545517 0.224293161,2.66908861 C0.0747643869,3.10272206 0,3.5363555 0,3.96998894 C0,4.52324541 0.104670142,5.10640762 0.314010425,5.7194756 C0.523350708,6.33254357 0.844837572,6.94561154 1.27847102,7.55867951 C1.71210446,8.17174749 2.31021955,8.71752751 3.0728163,9.19601959 C3.83541305,9.67451166 4.70267993,10.003475 5.67461696,10.1829095 C6.0484389,10.2576739 6.3774022,10.2950561 6.66150687,10.2950561 L6.8409414,10.3174854 C6.9755173,10.3174854 7.08766388,10.3174854 7.17738114,10.3174854 C8.64276312,10.3174854 9.816564,9.98852209 10.6987838,9.33059548 C11.5810035,8.67266888 12.0295898,7.70820829 12.0445427,6.43721371 C12.0445427,4.7923972 11.3866161,3.31206234 10.0707629,1.99620913 C8.7549097,0.680355921 7.00542305,0.0149528774 4.82230295,0 Z M6.95308798,9.15116095 C6.53440741,9.15116095 6.07086821,9.03901437 5.56247038,8.81472121 C5.05407255,8.59042805 4.63539199,8.23903543 4.30642868,7.76054336 C3.93260675,7.2072869 3.61111989,6.38487864 3.34196809,5.29331859 C3.0728163,4.20175854 2.9382404,3.4391618 2.9382404,3.00552835 C2.9382404,2.60180066 2.99805191,2.2803138 3.11767493,2.04106776 C3.41673248,1.45790554 4.02980045,1.16632444 4.95687885,1.16632444 C6.55683673,1.16632444 7.67082609,2.01116201 8.29884694,3.70083715 C8.44837572,4.11951772 8.62033381,4.72510925 8.81472121,5.51761175 C9.00910862,6.31011425 9.10630232,6.90075291 9.10630232,7.28952772 C9.10630232,7.57363239 9.09134944,7.80540199 9.06144369,7.98483652 C8.94182067,8.34370558 8.73995683,8.61285737 8.45585216,8.7922919 C8.17174749,8.97172643 7.93250145,9.07639657 7.73811404,9.10630232 C7.54372664,9.13620808 7.28205128,9.15116095 6.95308798,9.15116095 Z"></path>
                </g>
                <g transform="translate(12.413864, 0.010631)" id="MJMATHI-67">
                    <path d="M4.77311546,3.93266656 C4.6145402,3.79523467 4.38196314,3.64723109 4.0753843,3.48865582 C3.76880545,3.33008056 3.44636908,3.25079292 3.10807519,3.25079292 C2.44205907,3.25079292 1.90818902,3.48865582 1.50646501,3.96438161 C1.10474101,4.44010741 0.898593166,5.04797926 0.888021482,5.78799716 C0.888021482,6.89802401 1.29503133,7.91819154 2.10905102,8.84849976 C2.92307071,9.77880798 3.82694972,10.2492479 4.82068804,10.2598196 C5.31755721,10.2598196 5.77742547,10.0060992 6.20029284,9.49865835 L6.24786542,9.56208845 C6.26900879,9.59380351 6.295438,9.62551856 6.32715306,9.65723361 C6.35886811,9.68894867 6.40644069,9.7312354 6.46987079,9.78409382 C6.5333009,9.83695225 6.60201685,9.87395314 6.67601864,9.89509651 C6.75002043,9.91623988 6.8345939,9.9320974 6.92973906,9.94266909 C7.07774264,9.94266909 7.19931701,9.89509651 7.29446217,9.79995135 C7.38960733,9.70480619 7.44246575,9.60437519 7.45303743,9.49865835 C7.45303743,9.34008308 7.15174443,8.06090928 6.54915843,5.66113695 C5.94657242,3.26136461 5.62942189,2.03504923 5.59770684,1.98219081 C5.40741652,1.41131985 5.00040668,0.940879903 4.3766773,0.570870952 C3.75294793,0.200862002 3.03935924,0.0105716843 2.23591123,0 C0.745303743,0 0,0.359437266 0,1.0783118 C0,1.35317559 0.0951451587,1.59632433 0.285435476,1.80775802 C0.475725794,2.0191917 0.718874533,2.12490855 1.01488169,2.12490855 C1.17345696,2.12490855 1.32146054,2.07733597 1.45889243,1.98219081 C1.59632433,1.88704565 1.67032612,1.72318454 1.6808978,1.49060749 C1.6808978,1.38489064 1.67032612,1.28445964 1.64918275,1.18931448 C1.62803938,1.09416933 1.59103849,1.02016754 1.53818007,0.967309114 C1.48532164,0.914450692 1.44303491,0.861592271 1.41131985,0.808733849 C1.3796048,0.755875428 1.34260391,0.713588691 1.30031717,0.681873638 L1.26860212,0.650158585 L1.28445964,0.650158585 C1.39017649,0.618443532 1.70732702,0.602586005 2.23591123,0.602586005 C2.63763523,0.602586005 2.95478576,0.666016111 3.18736282,0.792876323 C3.43051156,0.90916485 3.65780277,1.08359764 3.86923646,1.3161747 C4.08067014,1.54875175 4.22867372,1.79718633 4.3132472,2.06147844 C4.3766773,2.26234044 4.46125078,2.59006265 4.56696762,3.04464508 C4.70439952,3.55208593 4.77311546,3.84809309 4.77311546,3.93266656 Z M5.93071489,8.4520616 L5.86728479,8.62649439 C5.83556974,8.74278292 5.80914053,8.82207055 5.78799716,8.86435729 C5.76685379,8.90664403 5.73513874,8.98064582 5.692852,9.08636266 C5.65056526,9.1920795 5.59770684,9.26608129 5.53427673,9.30836803 C5.47084663,9.35065477 5.40213068,9.40879903 5.32812889,9.48280082 C5.2541271,9.55680261 5.15898194,9.60437519 5.04269341,9.62551856 C4.92640489,9.64666193 4.81011636,9.66251945 4.69382783,9.67309114 C4.22867372,9.67309114 3.77937714,9.3929415 3.34593808,8.83264224 C3.02878755,8.42034655 2.76449545,7.79133133 2.55306176,6.94559659 C2.34162807,6.09986184 2.23591123,5.48670415 2.23591123,5.10612352 C2.23591123,4.27096046 2.56363344,3.85337893 3.21907787,3.85337893 C3.81109219,3.85337893 4.39253483,4.22338788 4.96340578,4.96340578 L5.09026599,5.12198105 L5.93071489,8.4520616 Z"></path>
                </g>
            </g>
            <g transform="translate(0.000000, 88.000000)">
                <g transform="translate(0.000000, 3.364397)" id="MJMATHBI-63">
                    <path d="M7.22223977,7.46896225 C7.22223977,7.75306692 7.28952772,8.02221871 7.42410362,8.27641763 C7.55867951,8.53061654 7.70073185,8.71752751 7.85026062,8.83715053 L8.05212447,9.01658506 C7.91754857,9.1212552 7.58858527,9.17359027 7.06523456,9.17359027 C5.88395725,9.17359027 4.95687885,8.70257463 4.28399937,7.76054336 C3.92513031,7.2072869 3.61111989,6.39983152 3.34196809,5.33817722 C3.0728163,4.27652293 2.93076397,3.46906755 2.91581109,2.91581109 C2.91581109,1.73453378 3.61859632,1.14389512 5.0241668,1.14389512 C6.9381351,1.14389512 8.38108777,1.60743432 9.3530248,2.53451272 C9.57731796,2.75880588 9.74927605,2.84852314 9.86889907,2.80366451 C9.95861633,2.75880588 10.0857158,2.6466593 10.2501974,2.46722477 C10.4146791,2.28779024 10.5043964,2.1457379 10.5193492,2.04106776 C10.5193492,1.98125625 10.4670142,1.88406255 10.362344,1.74948665 C10.2576739,1.61491076 10.0707629,1.44295267 9.80161112,1.23361238 C9.53245933,1.0242721 9.19601959,0.829884694 8.7922919,0.650450166 C8.38856421,0.471015637 7.85026062,0.321486864 7.17738114,0.201863845 C6.50450166,0.0822408256 5.74938135,0.0149528774 4.91202022,0 C3.94008319,0 3.11019849,0.127099458 2.42236613,0.381298373 C1.73453378,0.635497288 1.22613594,0.971937029 0.897172643,1.3906176 C0.56820934,1.80929816 0.336439741,2.22050229 0.201863845,2.62422998 C0.0672879482,3.02795767 0,3.46159111 0,3.92513031 C0,5.61480545 0.665403043,7.09514031 1.99620913,8.36613489 C3.32701522,9.63712947 4.99426104,10.2801032 6.99794661,10.2950561 C7.56615595,10.2950561 7.89511925,10.2875796 7.98483652,10.2726268 C8.76238614,10.1530037 9.33807192,9.89880482 9.71189386,9.51003001 C10.0857158,9.1212552 10.2801032,8.68762176 10.2950561,8.20912968 C10.310009,7.7306376 10.1455273,7.31195704 9.80161112,6.95308798 C9.45769494,6.59421892 9.03901437,6.38487864 8.54556942,6.32506713 L8.45585216,6.32506713 C8.0969831,6.32506713 7.80540199,6.42973727 7.58110883,6.63907755 C7.35681567,6.84841784 7.23719265,7.12504607 7.22223977,7.46896225 Z"></path>
                </g>
                <g transform="translate(10.900648, 0.000000)">
                    <g transform="translate(0.009712, 0.005002)" id="MJMATHI-74">
                        <path d="M0.111002685,6.27958048 C0.0370008951,6.35358227 0,6.40644069 0,6.43815574 C0,6.48044248 0.0158575265,6.56501595 0.0475725794,6.69187616 C0.0792876323,6.81873638 0.105716843,6.89273817 0.126860212,6.91388154 C0.14800358,6.96673996 0.19557616,6.99316917 0.26957795,6.99316917 C0.34357974,6.99316917 0.61315769,6.99845501 1.0783118,7.00902669 L1.9187607,7.00902669 L2.2200537,8.27762881 C2.25176876,8.39391734 2.28876965,8.54720676 2.33105639,8.73749708 C2.37334313,8.9277874 2.41034402,9.06521929 2.44205907,9.14979277 C2.47377413,9.23436624 2.50548918,9.34008308 2.53720423,9.46694329 C2.56891929,9.59380351 2.61120602,9.68366282 2.66406444,9.73652124 C2.71692287,9.78937967 2.76978129,9.85280977 2.82263971,9.92681156 C2.87549813,10.0008134 2.94949992,10.0483859 3.04464508,10.0695293 C3.13979024,10.0906727 3.2349354,10.1012444 3.33008056,10.1012444 C3.52037087,10.0906727 3.65251693,10.0325284 3.72651872,9.92681156 C3.80052051,9.82109472 3.8375214,9.72066372 3.8375214,9.62551856 C3.8375214,9.55151677 3.78994882,9.30308219 3.69480366,8.88021482 C3.59965851,8.45734744 3.49394166,8.03976591 3.37765314,7.62747023 L3.21907787,7.04074175 C3.21907787,7.01959838 3.48336998,7.00902669 4.01195419,7.00902669 L4.82068804,7.00902669 C4.89468983,6.9350249 4.93169073,6.87688064 4.93169073,6.8345939 C4.93169073,6.60201685 4.86297478,6.41701237 4.72554288,6.27958048 L3.02878755,6.27958048 L2.4579166,3.98023914 C2.04562091,2.28876965 1.83947307,1.3796048 1.83947307,1.25274459 C1.83947307,0.808733849 1.98219081,0.586728479 2.26762628,0.586728479 C2.63763523,0.586728479 2.9970725,0.766447112 3.34593808,1.12588438 C3.69480366,1.48532164 3.9749533,1.92933239 4.18638698,2.4579166 C4.20753035,2.52134671 4.23395956,2.5583476 4.26567462,2.56891929 C4.29738967,2.57949097 4.3766773,2.59006265 4.50353751,2.60063434 L4.56696762,2.60063434 C4.72554288,2.60063434 4.80483052,2.5583476 4.80483052,2.47377413 C4.80483052,2.44205907 4.78897299,2.37862897 4.75725794,2.28348381 C4.70439952,2.11433686 4.60925436,1.91347486 4.47182246,1.6808978 C4.33439056,1.44832075 4.15467193,1.19988617 3.93266656,0.935594061 C3.71066119,0.671301953 3.44108324,0.449296583 3.12393271,0.26957795 C2.80678218,0.0898593166 2.48434581,0 2.1566236,0 C1.83947307,0 1.53818007,0.0792876323 1.25274459,0.237862897 C0.967309114,0.396438161 0.76116127,0.671301953 0.634301058,1.06245427 C0.61315769,1.14702775 0.602586005,1.28974549 0.602586005,1.49060749 L0.602586005,1.77604296 L1.15759943,3.99609667 C1.52760838,5.48670415 1.7178987,6.23729374 1.72847038,6.24786542 C1.72847038,6.26900879 1.45889243,6.27958048 0.919736535,6.27958048 L0.111002685,6.27958048 Z"></path>
                    </g>
                    <g transform="translate(6.765018, 3.826666)" id="MJMAIN-2212">
                        <path d="M0,0.111002685 C0,0.111002685 0,0.179718633 0,0.317150529 C0,0.454582425 0.0740017901,0.560299268 0.22200537,0.634301058 L9.43522824,0.634301058 C9.59380351,0.549727584 9.67309114,0.444010741 9.67309114,0.317150529 C9.67309114,0.190290317 9.59380351,0.0845734744 9.43522824,0 L0.22200537,0 C0.0740017901,0.0740017901 0,0.179718633 0,0.317150529 L0,0.111002685 Z"></path>
                    </g>
                    <g transform="translate(19.102174, 0.179435)" id="MJMAIN-31">
                        <path d="M2.06147844,9.16565029 L1.8553306,9.08636266 C1.70732702,9.03350424 1.49589333,8.98064582 1.22102954,8.9277874 C0.946165745,8.87492897 0.6395869,8.83792808 0.301293003,8.81678471 L0,8.81678471 L0,9.54623093 L0.301293003,9.54623093 C0.798162165,9.5673743 1.25803043,9.64666193 1.6808978,9.78409382 C2.10376518,9.92152572 2.39977234,10.0483859 2.56891929,10.1646745 C2.73806623,10.280963 2.88606982,10.3972515 3.01293003,10.51354 C3.0340734,10.5452551 3.0975035,10.5611126 3.20322034,10.5611126 C3.2983655,10.5611126 3.38822482,10.5293976 3.47279829,10.4659675 L3.47279829,5.72456705 L3.48865582,0.967309114 C3.56265761,0.893307324 3.62608772,0.845734744 3.67894614,0.824591376 C3.73180456,0.803448007 3.85866477,0.782304639 4.05952677,0.76116127 C4.26038877,0.740017901 4.58811099,0.729446217 5.04269341,0.729446217 L5.4549891,0.729446217 L5.4549891,0 L5.28055631,0 C5.05855094,0.0317150529 4.21810204,0.0475725794 2.7592096,0.0475725794 C1.32146054,0.0475725794 0.49158332,0.0317150529 0.26957795,0 L0.0792876323,0 L0.0792876323,0.729446217 L0.49158332,0.729446217 C0.724160375,0.729446217 0.925022377,0.729446217 1.09416933,0.729446217 C1.26331627,0.729446217 1.39546233,0.734732059 1.49060749,0.745303743 C1.58575265,0.755875428 1.67032612,0.771732954 1.74432791,0.792876323 C1.8183297,0.814019691 1.86061644,0.824591376 1.87118812,0.824591376 C1.88175981,0.824591376 1.91347486,0.851020587 1.96633328,0.903879008 C2.0191917,0.95673743 2.05090676,0.977880798 2.06147844,0.967309114 L2.06147844,9.16565029 Z"></path>
                    </g>
                </g>
            </g>
            <g transform="translate(209.000000, 88.000000)">
                <g transform="translate(0.000000, 3.386827)" id="MJMATHBI-63">
                    <path d="M7.22223977,7.46896225 C7.22223977,7.75306692 7.28952772,8.02221871 7.42410362,8.27641763 C7.55867951,8.53061654 7.70073185,8.71752751 7.85026062,8.83715053 L8.05212447,9.01658506 C7.91754857,9.1212552 7.58858527,9.17359027 7.06523456,9.17359027 C5.88395725,9.17359027 4.95687885,8.70257463 4.28399937,7.76054336 C3.92513031,7.2072869 3.61111989,6.39983152 3.34196809,5.33817722 C3.0728163,4.27652293 2.93076397,3.46906755 2.91581109,2.91581109 C2.91581109,1.73453378 3.61859632,1.14389512 5.0241668,1.14389512 C6.9381351,1.14389512 8.38108777,1.60743432 9.3530248,2.53451272 C9.57731796,2.75880588 9.74927605,2.84852314 9.86889907,2.80366451 C9.95861633,2.75880588 10.0857158,2.6466593 10.2501974,2.46722477 C10.4146791,2.28779024 10.5043964,2.1457379 10.5193492,2.04106776 C10.5193492,1.98125625 10.4670142,1.88406255 10.362344,1.74948665 C10.2576739,1.61491076 10.0707629,1.44295267 9.80161112,1.23361238 C9.53245933,1.0242721 9.19601959,0.829884694 8.7922919,0.650450166 C8.38856421,0.471015637 7.85026062,0.321486864 7.17738114,0.201863845 C6.50450166,0.0822408256 5.74938135,0.0149528774 4.91202022,0 C3.94008319,0 3.11019849,0.127099458 2.42236613,0.381298373 C1.73453378,0.635497288 1.22613594,0.971937029 0.897172643,1.3906176 C0.56820934,1.80929816 0.336439741,2.22050229 0.201863845,2.62422998 C0.0672879482,3.02795767 0,3.46159111 0,3.92513031 C0,5.61480545 0.665403043,7.09514031 1.99620913,8.36613489 C3.32701522,9.63712947 4.99426104,10.2801032 6.99794661,10.2950561 C7.56615595,10.2950561 7.89511925,10.2875796 7.98483652,10.2726268 C8.76238614,10.1530037 9.33807192,9.89880482 9.71189386,9.51003001 C10.0857158,9.1212552 10.2801032,8.68762176 10.2950561,8.20912968 C10.310009,7.7306376 10.1455273,7.31195704 9.80161112,6.95308798 C9.45769494,6.59421892 9.03901437,6.38487864 8.54556942,6.32506713 L8.45585216,6.32506713 C8.0969831,6.32506713 7.80540199,6.42973727 7.58110883,6.63907755 C7.35681567,6.84841784 7.23719265,7.12504607 7.22223977,7.46896225 Z"></path>
                </g>
                <g transform="translate(10.916685, 0.014175)" id="MJMATHI-74">
                    <path d="M0.111002685,6.27958048 C0.0370008951,6.35358227 0,6.40644069 0,6.43815574 C0,6.48044248 0.0158575265,6.56501595 0.0475725794,6.69187616 C0.0792876323,6.81873638 0.105716843,6.89273817 0.126860212,6.91388154 C0.14800358,6.96673996 0.19557616,6.99316917 0.26957795,6.99316917 C0.34357974,6.99316917 0.61315769,6.99845501 1.0783118,7.00902669 L1.9187607,7.00902669 L2.2200537,8.27762881 C2.25176876,8.39391734 2.28876965,8.54720676 2.33105639,8.73749708 C2.37334313,8.9277874 2.41034402,9.06521929 2.44205907,9.14979277 C2.47377413,9.23436624 2.50548918,9.34008308 2.53720423,9.46694329 C2.56891929,9.59380351 2.61120602,9.68366282 2.66406444,9.73652124 C2.71692287,9.78937967 2.76978129,9.85280977 2.82263971,9.92681156 C2.87549813,10.0008134 2.94949992,10.0483859 3.04464508,10.0695293 C3.13979024,10.0906727 3.2349354,10.1012444 3.33008056,10.1012444 C3.52037087,10.0906727 3.65251693,10.0325284 3.72651872,9.92681156 C3.80052051,9.82109472 3.8375214,9.72066372 3.8375214,9.62551856 C3.8375214,9.55151677 3.78994882,9.30308219 3.69480366,8.88021482 C3.59965851,8.45734744 3.49394166,8.03976591 3.37765314,7.62747023 L3.21907787,7.04074175 C3.21907787,7.01959838 3.48336998,7.00902669 4.01195419,7.00902669 L4.82068804,7.00902669 C4.89468983,6.9350249 4.93169073,6.87688064 4.93169073,6.8345939 C4.93169073,6.60201685 4.86297478,6.41701237 4.72554288,6.27958048 L3.02878755,6.27958048 L2.4579166,3.98023914 C2.04562091,2.28876965 1.83947307,1.3796048 1.83947307,1.25274459 C1.83947307,0.808733849 1.98219081,0.586728479 2.26762628,0.586728479 C2.63763523,0.586728479 2.9970725,0.766447112 3.34593808,1.12588438 C3.69480366,1.48532164 3.9749533,1.92933239 4.18638698,2.4579166 C4.20753035,2.52134671 4.23395956,2.5583476 4.26567462,2.56891929 C4.29738967,2.57949097 4.3766773,2.59006265 4.50353751,2.60063434 L4.56696762,2.60063434 C4.72554288,2.60063434 4.80483052,2.5583476 4.80483052,2.47377413 C4.80483052,2.44205907 4.78897299,2.37862897 4.75725794,2.28348381 C4.70439952,2.11433686 4.60925436,1.91347486 4.47182246,1.6808978 C4.33439056,1.44832075 4.15467193,1.19988617 3.93266656,0.935594061 C3.71066119,0.671301953 3.44108324,0.449296583 3.12393271,0.26957795 C2.80678218,0.0898593166 2.48434581,0 2.1566236,0 C1.83947307,0 1.53818007,0.0792876323 1.25274459,0.237862897 C0.967309114,0.396438161 0.76116127,0.671301953 0.634301058,1.06245427 C0.61315769,1.14702775 0.602586005,1.28974549 0.602586005,1.49060749 L0.602586005,1.77604296 L1.15759943,3.99609667 C1.52760838,5.48670415 1.7178987,6.23729374 1.72847038,6.24786542 C1.72847038,6.26900879 1.45889243,6.27958048 0.919736535,6.27958048 L0.111002685,6.27958048 Z"></path>
                </g>
            </g>
            <g transform="translate(150.000000, -0.000000)">
                <g transform="translate(0.000000, 3.386827)" id="MJMATHBI-63">
                    <path d="M7.22223977,7.46896225 C7.22223977,7.75306692 7.28952772,8.02221871 7.42410362,8.27641763 C7.55867951,8.53061654 7.70073185,8.71752751 7.85026062,8.83715053 L8.05212447,9.01658506 C7.91754857,9.1212552 7.58858527,9.17359027 7.06523456,9.17359027 C5.88395725,9.17359027 4.95687885,8.70257463 4.28399937,7.76054336 C3.92513031,7.2072869 3.61111989,6.39983152 3.34196809,5.33817722 C3.0728163,4.27652293 2.93076397,3.46906755 2.91581109,2.91581109 C2.91581109,1.73453378 3.61859632,1.14389512 5.0241668,1.14389512 C6.9381351,1.14389512 8.38108777,1.60743432 9.3530248,2.53451272 C9.57731796,2.75880588 9.74927605,2.84852314 9.86889907,2.80366451 C9.95861633,2.75880588 10.0857158,2.6466593 10.2501974,2.46722477 C10.4146791,2.28779024 10.5043964,2.1457379 10.5193492,2.04106776 C10.5193492,1.98125625 10.4670142,1.88406255 10.362344,1.74948665 C10.2576739,1.61491076 10.0707629,1.44295267 9.80161112,1.23361238 C9.53245933,1.0242721 9.19601959,0.829884694 8.7922919,0.650450166 C8.38856421,0.471015637 7.85026062,0.321486864 7.17738114,0.201863845 C6.50450166,0.0822408256 5.74938135,0.0149528774 4.91202022,0 C3.94008319,0 3.11019849,0.127099458 2.42236613,0.381298373 C1.73453378,0.635497288 1.22613594,0.971937029 0.897172643,1.3906176 C0.56820934,1.80929816 0.336439741,2.22050229 0.201863845,2.62422998 C0.0672879482,3.02795767 0,3.46159111 0,3.92513031 C0,5.61480545 0.665403043,7.09514031 1.99620913,8.36613489 C3.32701522,9.63712947 4.99426104,10.2801032 6.99794661,10.2950561 C7.56615595,10.2950561 7.89511925,10.2875796 7.98483652,10.2726268 C8.76238614,10.1530037 9.33807192,9.89880482 9.71189386,9.51003001 C10.0857158,9.1212552 10.2801032,8.68762176 10.2950561,8.20912968 C10.310009,7.7306376 10.1455273,7.31195704 9.80161112,6.95308798 C9.45769494,6.59421892 9.03901437,6.38487864 8.54556942,6.32506713 L8.45585216,6.32506713 C8.0969831,6.32506713 7.80540199,6.42973727 7.58110883,6.63907755 C7.35681567,6.84841784 7.23719265,7.12504607 7.22223977,7.46896225 Z"></path>
                </g>
                <g transform="translate(1.973780, 15.431369)" id="MJMAINB-7E">
                    <path d="M5.54004107,0 C5.19612489,0 4.71015637,0.17195809 4.08213552,0.515874269 C3.45411467,0.859790449 2.98309904,1.03922498 2.66908861,1.05417785 C2.16069078,1.05417785 1.64481651,0.792502501 1.1214658,0.269151793 L0.85231401,0 L0.426157005,0.381298373 C0.366345496,0.426157005 0.299057548,0.478492076 0.224293161,0.538303586 C0.149528774,0.598115095 0.0897172643,0.657926605 0.0448586321,0.717738114 L0,0.762596746 C0.927078397,1.80929816 1.44295267,2.38498394 1.54762281,2.48965408 C2.05602064,2.95319328 2.54198915,3.18496288 3.00552835,3.18496288 C3.14010425,3.18496288 3.24477439,3.17748644 3.31953878,3.16253356 C3.58869057,3.10272206 4.00737114,2.91581109 4.57558048,2.60180066 C5.14378982,2.28779024 5.5848997,2.13078503 5.89891012,2.13078503 C6.40730796,2.13078503 6.92318223,2.39246038 7.44653293,2.91581109 L7.71568473,3.18496288 L8.14184173,2.80366451 C8.20165324,2.75880588 8.26894119,2.70647081 8.34370558,2.6466593 C8.41846996,2.58684779 8.47828147,2.52703628 8.5231401,2.46722477 L8.56799874,2.42236613 C7.64092034,1.37566472 7.12504607,0.79997894 7.02037593,0.695308798 C6.5119781,0.231769599 6.01853314,0 5.54004107,0 Z"></path>
                </g>
                <g transform="translate(13.044015, 0.014175)" id="MJMATHI-74">
                    <path d="M0.111002685,6.27958048 C0.0370008951,6.35358227 0,6.40644069 0,6.43815574 C0,6.48044248 0.0158575265,6.56501595 0.0475725794,6.69187616 C0.0792876323,6.81873638 0.105716843,6.89273817 0.126860212,6.91388154 C0.14800358,6.96673996 0.19557616,6.99316917 0.26957795,6.99316917 C0.34357974,6.99316917 0.61315769,6.99845501 1.0783118,7.00902669 L1.9187607,7.00902669 L2.2200537,8.27762881 C2.25176876,8.39391734 2.28876965,8.54720676 2.33105639,8.73749708 C2.37334313,8.9277874 2.41034402,9.06521929 2.44205907,9.14979277 C2.47377413,9.23436624 2.50548918,9.34008308 2.53720423,9.46694329 C2.56891929,9.59380351 2.61120602,9.68366282 2.66406444,9.73652124 C2.71692287,9.78937967 2.76978129,9.85280977 2.82263971,9.92681156 C2.87549813,10.0008134 2.94949992,10.0483859 3.04464508,10.0695293 C3.13979024,10.0906727 3.2349354,10.1012444 3.33008056,10.1012444 C3.52037087,10.0906727 3.65251693,10.0325284 3.72651872,9.92681156 C3.80052051,9.82109472 3.8375214,9.72066372 3.8375214,9.62551856 C3.8375214,9.55151677 3.78994882,9.30308219 3.69480366,8.88021482 C3.59965851,8.45734744 3.49394166,8.03976591 3.37765314,7.62747023 L3.21907787,7.04074175 C3.21907787,7.01959838 3.48336998,7.00902669 4.01195419,7.00902669 L4.82068804,7.00902669 C4.89468983,6.9350249 4.93169073,6.87688064 4.93169073,6.8345939 C4.93169073,6.60201685 4.86297478,6.41701237 4.72554288,6.27958048 L3.02878755,6.27958048 L2.4579166,3.98023914 C2.04562091,2.28876965 1.83947307,1.3796048 1.83947307,1.25274459 C1.83947307,0.808733849 1.98219081,0.586728479 2.26762628,0.586728479 C2.63763523,0.586728479 2.9970725,0.766447112 3.34593808,1.12588438 C3.69480366,1.48532164 3.9749533,1.92933239 4.18638698,2.4579166 C4.20753035,2.52134671 4.23395956,2.5583476 4.26567462,2.56891929 C4.29738967,2.57949097 4.3766773,2.59006265 4.50353751,2.60063434 L4.56696762,2.60063434 C4.72554288,2.60063434 4.80483052,2.5583476 4.80483052,2.47377413 C4.80483052,2.44205907 4.78897299,2.37862897 4.75725794,2.28348381 C4.70439952,2.11433686 4.60925436,1.91347486 4.47182246,1.6808978 C4.33439056,1.44832075 4.15467193,1.19988617 3.93266656,0.935594061 C3.71066119,0.671301953 3.44108324,0.449296583 3.12393271,0.26957795 C2.80678218,0.0898593166 2.48434581,0 2.1566236,0 C1.83947307,0 1.53818007,0.0792876323 1.25274459,0.237862897 C0.967309114,0.396438161 0.76116127,0.671301953 0.634301058,1.06245427 C0.61315769,1.14702775 0.602586005,1.28974549 0.602586005,1.49060749 L0.602586005,1.77604296 L1.15759943,3.99609667 C1.52760838,5.48670415 1.7178987,6.23729374 1.72847038,6.24786542 C1.72847038,6.26900879 1.45889243,6.27958048 0.919736535,6.27958048 L0.111002685,6.27958048 Z"></path>
                </g>
            </g>
        </g>
    </g>
</svg>