<?xml version="1.0" encoding="UTF-8"?>
<svg width="543px" height="340px" viewBox="0 0 543 340" version="1.1" xmlns="http://www.w3.org/2000/svg" xmlns:xlink="http://www.w3.org/1999/xlink">
    <!-- Generator: Sketch 49.2 (51160) - http://www.bohemiancoding.com/sketch -->
    <title>lstm_output_gate</title>
    <desc>Created with Sketch.</desc>
    <defs>
        <rect id="path-1" x="152" y="150" width="64" height="22"></rect>
        <rect id="path-2" x="263" y="182" width="64" height="22"></rect>
        <rect id="path-3" x="192" y="182" width="64" height="22"></rect>
        <rect id="path-4" x="0" y="0" width="64" height="22"></rect>
        <rect id="path-5" x="333" y="182" width="64" height="22"></rect>
    </defs>
    <g id="lstm_output_gate" stroke="none" stroke-width="1" fill="none" fill-rule="evenodd">
        <g id="Group-3" transform="translate(120.500000, 231.000000) scale(-1, 1) rotate(-180.000000) translate(-120.500000, -231.000000) translate(100.000000, 221.000000)" fill="#000000" fill-rule="nonzero">
            <g id="Group" transform="translate(-0.000000, 3.529591)">
                <path d="M9.68537368,1.45102023 C9.68537368,1.33010188 9.70032025,1.25452791 9.73021338,1.22429832 C9.7601065,1.19406873 9.84231261,1.17139654 9.97683169,1.15628175 C10.4551217,1.18651133 10.858679,1.42834804 11.1875034,1.88179186 C11.5163278,2.33523568 11.7629461,2.82646649 11.9273583,3.35548428 C12.0020912,3.59732098 12.0618774,3.74091153 12.1067171,3.78625591 C12.1515568,3.83160029 12.3010224,3.85427248 12.555114,3.85427248 L12.6896331,3.85427248 L12.9362514,3.85427248 C13.2351827,3.85427248 13.3846484,3.74846893 13.3846484,3.53686181 C13.3846484,3.38571387 13.3099155,3.12876237 13.1604499,2.76600731 C13.0109842,2.40325225 12.7867858,2.01026761 12.4878545,1.58705338 C12.1889232,1.16383914 11.8003125,0.793526688 11.3220225,0.476116013 C10.8437324,0.158705338 10.3056561,0 9.70779353,0 C8.97541188,0 8.34765618,0.188934926 7.82452642,0.566804777 C7.30139667,0.944674628 7.03235851,1.44346283 7.01741195,2.06316939 C7.01741195,2.24454692 7.29392339,3.12120497 7.84694627,4.69314355 C8.39996915,6.26508214 8.68395387,7.40624909 8.69890044,8.11664441 C8.69890044,8.87238411 8.40744243,9.25025396 7.82452642,9.25025396 L7.69000735,9.25025396 L7.57790811,9.25025396 C6.86047303,9.25025396 6.17293107,8.97063027 5.51528224,8.41138289 C4.99215248,7.94282427 4.58112197,7.45159347 4.28219068,6.93769047 C4.23735099,6.8621165 3.98325939,5.89476968 3.5199159,4.03565001 C3.0565724,2.17653034 2.80995409,1.19406873 2.78006096,1.08826517 C2.64554189,0.755739703 2.43628998,0.491230807 2.15230526,0.294738484 C1.86832054,0.0982461613 1.55444269,0 1.21067171,0 C0.777221345,0 0.470816776,0.128475749 0.291458004,0.385427248 C0.112099232,0.642378747 0.0149465643,0.869100658 0,1.06559298 C0,1.24697051 0.530603034,3.49151743 1.5918091,7.79923373 L3.20603805,14.2834804 L3.11635866,14.2834804 C3.1014121,14.2834804 3.06404569,14.2834804 3.00425943,14.2834804 C2.94447317,14.2834804 2.86974035,14.2910378 2.78006096,14.3061526 C2.69038158,14.3212674 2.60070219,14.3288248 2.51102281,14.3288248 C2.42134342,14.3288248 2.33913732,14.3288248 2.2644045,14.3288248 C2.18967167,14.3288248 2.11493885,14.3288248 2.04020603,14.3288248 C1.96547321,14.3288248 1.9281068,14.3363822 1.9281068,14.351497 C1.74874803,14.3968413 1.65906864,14.5253171 1.65906864,14.7369242 C1.65906864,14.8124982 1.68896177,14.9560887 1.74874803,15.1676958 C1.80853428,15.3793029 1.85337398,15.5153361 1.8832671,15.5757953 C1.94305336,15.6513692 2.05515259,15.6967136 2.2195648,15.7118284 C2.38397701,15.7269432 2.95194645,15.7647302 3.92347314,15.8251894 C5.01457233,15.8856485 5.66474788,15.9158781 5.87399978,15.9158781 C6.12809137,15.9158781 6.2850303,15.8025172 6.34481656,15.5757953 C6.34481656,15.4699917 6.09072496,14.4195135 5.58254178,12.4243607 C5.46296926,11.9255725 5.34339675,11.4192269 5.22382423,10.9053239 C5.10425172,10.3914209 4.99962577,9.99087887 4.90994638,9.70369778 L4.82026699,9.31827053 C4.82026699,9.27292615 4.88752653,9.31071314 5.02204561,9.43163149 C5.88894634,10.0815676 6.81563333,10.4065357 7.80210658,10.4065357 L7.98146535,10.4065357 L8.18324397,10.4065357 C8.40744243,10.4065357 8.62416762,10.3989783 8.83341952,10.3838635 C9.04267142,10.3687487 9.31918286,10.3082895 9.66295384,10.202486 C10.0067248,10.0966824 10.2981828,9.96064928 10.5373278,9.79438655 C10.7764729,9.62812381 10.9931981,9.37872971 11.1875034,9.04620424 C11.3818087,8.71367877 11.4714881,8.30557933 11.4565416,7.82190592 C11.4565416,7.05105143 11.1650836,5.8569827 10.5821675,4.23969973 C9.99925153,2.62241677 9.70032025,1.69285693 9.68537368,1.45102023 Z" id="MJMATHBI-68"></path>
            </g>
            <g id="Group" transform="translate(14.259022, 0.128762)">
                <g transform="translate(0.009708, 0.005056)" id="MJMATHI-74">
                    <path d="M0.11095582,6.34757868 C0.0369852734,6.4223818 0,6.47581259 0,6.50787107 C0,6.55061571 0.0158508315,6.63610498 0.0475524944,6.7643389 C0.0792541573,6.89257281 0.10567221,6.96737593 0.126806652,6.98874824 C0.147941094,7.04217904 0.195493588,7.06889444 0.269464135,7.06889444 C0.343434682,7.06889444 0.612898817,7.07423752 1.07785654,7.08492368 L1.91795061,7.08492368 L2.21911641,8.36726281 C2.25081807,8.48481056 2.28780334,8.63975987 2.33007223,8.83211074 C2.37234111,9.02446161 2.40932638,9.16338168 2.44102805,9.24887096 C2.47272971,9.33436023 2.50443137,9.44122183 2.53613303,9.56945574 C2.5678347,9.69768965 2.61010358,9.78852201 2.66293969,9.8419528 C2.71577579,9.8953836 2.7686119,9.95950056 2.821448,10.0343037 C2.87428411,10.1091068 2.94825465,10.1571945 3.04335964,10.1785668 C3.13846463,10.1999391 3.23356962,10.2106253 3.32867461,10.2106253 C3.51888459,10.1999391 3.65097485,10.1411653 3.72494539,10.0343037 C3.79891594,9.92744208 3.83590121,9.82592356 3.83590121,9.72974813 C3.83590121,9.65494501 3.78834872,9.40382027 3.69324373,8.97637389 C3.59813874,8.54892752 3.49246653,8.12682422 3.3762271,7.710064 L3.21771879,7.11698216 C3.21771879,7.09560984 3.48189931,7.08492368 4.01026036,7.08492368 L4.81865277,7.08492368 C4.89262331,7.01012056 4.92960859,6.95134669 4.92960859,6.90860205 C4.92960859,6.67350654 4.86092165,6.48649875 4.72354778,6.34757868 L3.02750881,6.34757868 L2.45687888,4.02333901 C2.04475726,2.31355351 1.83869645,1.3945438 1.83869645,1.26630989 C1.83869645,0.817491194 1.98135393,0.593081846 2.2666689,0.593081846 C2.63652163,0.593081846 2.99580715,0.774746556 3.34452544,1.13807598 C3.69324373,1.5014054 3.97327509,1.95022409 4.18461951,2.48453206 C4.20575395,2.54864902 4.232172,2.58605057 4.26387366,2.59673673 C4.29557533,2.60742289 4.37482948,2.61810905 4.50163614,2.62879521 L4.56503946,2.62879521 C4.72354778,2.62879521 4.80280193,2.58605057 4.80280193,2.5005613 C4.80280193,2.46850282 4.7869511,2.40438586 4.75524944,2.30821043 C4.70241334,2.13723188 4.60730835,1.93419485 4.46993447,1.69909934 C4.3325606,1.46400384 4.15291784,1.21287909 3.9310062,0.945725107 C3.70909456,0.678571122 3.43963043,0.454161774 3.1226138,0.272497065 C2.80559717,0.0908323549 2.48329693,0 2.15571308,0 C1.83869645,0 1.53753065,0.0801461955 1.25221569,0.240438586 C0.966900719,0.400730977 0.76083991,0.678571122 0.634033259,1.07395902 C0.612898817,1.15944829 0.602331596,1.30371145 0.602331596,1.50674847 L0.602331596,1.79527478 L1.1571107,4.03936825 C1.52696343,5.54611673 1.71717341,6.30483404 1.72774063,6.3155202 C1.72774063,6.33689252 1.45827649,6.34757868 0.919348225,6.34757868 L0.11095582,6.34757868 Z"></path>
                </g>
                <g transform="translate(6.762162, 3.868103)" id="MJMAIN-2212">
                    <path d="M0,0.112204674 C0,0.112204674 0,0.18166471 0,0.320584782 C0,0.459504854 0.0739705468,0.566366448 0.221911641,0.641169564 L9.43124472,0.641169564 C9.58975304,0.555680289 9.66900719,0.448818695 9.66900719,0.320584782 C9.66900719,0.192350869 9.58975304,0.0854892752 9.43124472,0 L0.221911641,0 C0.0739705468,0.0748031158 0,0.18166471 0,0.320584782 L0,0.112204674 Z"></path>
                </g>
                <g transform="translate(19.094109, 0.181378)" id="MJMAIN-31">
                    <path d="M2.06060809,9.2649002 L1.85454728,9.184754 C1.70660619,9.1313232 1.49526177,9.07789241 1.22051402,9.02446161 C0.945766277,8.97103081 0.639316869,8.93362925 0.301165798,8.91225694 L0,8.91225694 L0,9.64960193 L0.301165798,9.64960193 C0.797825184,9.67097425 1.2574993,9.75112045 1.68018814,9.89004052 C2.10287697,10.0289606 2.39875916,10.1571945 2.5678347,10.2747423 C2.73691023,10.39229 2.88485133,10.5098378 3.01165798,10.6273855 C3.03279242,10.659444 3.09619575,10.6754732 3.20186796,10.6754732 C3.29697295,10.6754732 3.38679432,10.6434148 3.47133209,10.5792978 L3.47133209,5.78655531 L3.48718292,0.977783585 C3.56115347,0.902980469 3.6245568,0.854892752 3.6773929,0.833520433 C3.73022901,0.812148114 3.85703566,0.790775795 4.05781286,0.769403476 C4.25859005,0.748031158 4.5861739,0.737344998 5.04056441,0.737344998 L5.45268602,0.737344998 L5.45268602,0 L5.27832688,0 C5.05641524,0.0320584782 4.21632117,0.0480877173 2.75804468,0.0480877173 C1.32090262,0.0480877173 0.491375775,0.0320584782 0.269464135,0 L0.0792541573,0 L0.0792541573,0.737344998 L0.491375775,0.737344998 C0.723854637,0.737344998 0.924631836,0.737344998 1.09370737,0.737344998 C1.26278291,0.737344998 1.39487317,0.742688078 1.48997816,0.753374237 C1.58508315,0.764060397 1.66962091,0.780089636 1.74359146,0.801461955 C1.81756201,0.822834273 1.85983089,0.833520433 1.87039811,0.833520433 C1.88096533,0.833520433 1.912667,0.860235831 1.9655031,0.913666628 C2.01833921,0.967097425 2.05004087,0.988469744 2.06060809,0.977783585 L2.06060809,9.2649002 Z"></path>
                </g>
            </g>
        </g>
        <g id="Group" transform="translate(430.000000, 262.000000) scale(-1, 1) rotate(-180.000000) translate(-430.000000, -262.000000) translate(420.000000, 252.000000)" fill="#000000" fill-rule="nonzero">
            <g transform="translate(0.000000, 3.423501)" id="MJMATHBI-68">
                <path d="M9.68537368,1.45102023 C9.68537368,1.33010188 9.70032025,1.25452791 9.73021338,1.22429832 C9.7601065,1.19406873 9.84231261,1.17139654 9.97683169,1.15628175 C10.4551217,1.18651133 10.858679,1.42834804 11.1875034,1.88179186 C11.5163278,2.33523568 11.7629461,2.82646649 11.9273583,3.35548428 C12.0020912,3.59732098 12.0618774,3.74091153 12.1067171,3.78625591 C12.1515568,3.83160029 12.3010224,3.85427248 12.555114,3.85427248 L12.6896331,3.85427248 L12.9362514,3.85427248 C13.2351827,3.85427248 13.3846484,3.74846893 13.3846484,3.53686181 C13.3846484,3.38571387 13.3099155,3.12876237 13.1604499,2.76600731 C13.0109842,2.40325225 12.7867858,2.01026761 12.4878545,1.58705338 C12.1889232,1.16383914 11.8003125,0.793526688 11.3220225,0.476116013 C10.8437324,0.158705338 10.3056561,0 9.70779353,0 C8.97541188,0 8.34765618,0.188934926 7.82452642,0.566804777 C7.30139667,0.944674628 7.03235851,1.44346283 7.01741195,2.06316939 C7.01741195,2.24454692 7.29392339,3.12120497 7.84694627,4.69314355 C8.39996915,6.26508214 8.68395387,7.40624909 8.69890044,8.11664441 C8.69890044,8.87238411 8.40744243,9.25025396 7.82452642,9.25025396 L7.69000735,9.25025396 L7.57790811,9.25025396 C6.86047303,9.25025396 6.17293107,8.97063027 5.51528224,8.41138289 C4.99215248,7.94282427 4.58112197,7.45159347 4.28219068,6.93769047 C4.23735099,6.8621165 3.98325939,5.89476968 3.5199159,4.03565001 C3.0565724,2.17653034 2.80995409,1.19406873 2.78006096,1.08826517 C2.64554189,0.755739703 2.43628998,0.491230807 2.15230526,0.294738484 C1.86832054,0.0982461613 1.55444269,0 1.21067171,0 C0.777221345,0 0.470816776,0.128475749 0.291458004,0.385427248 C0.112099232,0.642378747 0.0149465643,0.869100658 0,1.06559298 C0,1.24697051 0.530603034,3.49151743 1.5918091,7.79923373 L3.20603805,14.2834804 L3.11635866,14.2834804 C3.1014121,14.2834804 3.06404569,14.2834804 3.00425943,14.2834804 C2.94447317,14.2834804 2.86974035,14.2910378 2.78006096,14.3061526 C2.69038158,14.3212674 2.60070219,14.3288248 2.51102281,14.3288248 C2.42134342,14.3288248 2.33913732,14.3288248 2.2644045,14.3288248 C2.18967167,14.3288248 2.11493885,14.3288248 2.04020603,14.3288248 C1.96547321,14.3288248 1.9281068,14.3363822 1.9281068,14.351497 C1.74874803,14.3968413 1.65906864,14.5253171 1.65906864,14.7369242 C1.65906864,14.8124982 1.68896177,14.9560887 1.74874803,15.1676958 C1.80853428,15.3793029 1.85337398,15.5153361 1.8832671,15.5757953 C1.94305336,15.6513692 2.05515259,15.6967136 2.2195648,15.7118284 C2.38397701,15.7269432 2.95194645,15.7647302 3.92347314,15.8251894 C5.01457233,15.8856485 5.66474788,15.9158781 5.87399978,15.9158781 C6.12809137,15.9158781 6.2850303,15.8025172 6.34481656,15.5757953 C6.34481656,15.4699917 6.09072496,14.4195135 5.58254178,12.4243607 C5.46296926,11.9255725 5.34339675,11.4192269 5.22382423,10.9053239 C5.10425172,10.3914209 4.99962577,9.99087887 4.90994638,9.70369778 L4.82026699,9.31827053 C4.82026699,9.27292615 4.88752653,9.31071314 5.02204561,9.43163149 C5.88894634,10.0815676 6.81563333,10.4065357 7.80210658,10.4065357 L7.98146535,10.4065357 L8.18324397,10.4065357 C8.40744243,10.4065357 8.62416762,10.3989783 8.83341952,10.3838635 C9.04267142,10.3687487 9.31918286,10.3082895 9.66295384,10.202486 C10.0067248,10.0966824 10.2981828,9.96064928 10.5373278,9.79438655 C10.7764729,9.62812381 10.9931981,9.37872971 11.1875034,9.04620424 C11.3818087,8.71367877 11.4714881,8.30557933 11.4565416,7.82190592 C11.4565416,7.05105143 11.1650836,5.8569827 10.5821675,4.23969973 C9.99925153,2.62241677 9.70032025,1.69285693 9.68537368,1.45102023 Z"></path>
            </g>
            <g transform="translate(14.271308, 0.014329)" id="MJMATHI-74">
                <path d="M0.11095582,6.34757868 C0.0369852734,6.4223818 0,6.47581259 0,6.50787107 C0,6.55061571 0.0158508315,6.63610498 0.0475524944,6.7643389 C0.0792541573,6.89257281 0.10567221,6.96737593 0.126806652,6.98874824 C0.147941094,7.04217904 0.195493588,7.06889444 0.269464135,7.06889444 C0.343434682,7.06889444 0.612898817,7.07423752 1.07785654,7.08492368 L1.91795061,7.08492368 L2.21911641,8.36726281 C2.25081807,8.48481056 2.28780334,8.63975987 2.33007223,8.83211074 C2.37234111,9.02446161 2.40932638,9.16338168 2.44102805,9.24887096 C2.47272971,9.33436023 2.50443137,9.44122183 2.53613303,9.56945574 C2.5678347,9.69768965 2.61010358,9.78852201 2.66293969,9.8419528 C2.71577579,9.8953836 2.7686119,9.95950056 2.821448,10.0343037 C2.87428411,10.1091068 2.94825465,10.1571945 3.04335964,10.1785668 C3.13846463,10.1999391 3.23356962,10.2106253 3.32867461,10.2106253 C3.51888459,10.1999391 3.65097485,10.1411653 3.72494539,10.0343037 C3.79891594,9.92744208 3.83590121,9.82592356 3.83590121,9.72974813 C3.83590121,9.65494501 3.78834872,9.40382027 3.69324373,8.97637389 C3.59813874,8.54892752 3.49246653,8.12682422 3.3762271,7.710064 L3.21771879,7.11698216 C3.21771879,7.09560984 3.48189931,7.08492368 4.01026036,7.08492368 L4.81865277,7.08492368 C4.89262331,7.01012056 4.92960859,6.95134669 4.92960859,6.90860205 C4.92960859,6.67350654 4.86092165,6.48649875 4.72354778,6.34757868 L3.02750881,6.34757868 L2.45687888,4.02333901 C2.04475726,2.31355351 1.83869645,1.3945438 1.83869645,1.26630989 C1.83869645,0.817491194 1.98135393,0.593081846 2.2666689,0.593081846 C2.63652163,0.593081846 2.99580715,0.774746556 3.34452544,1.13807598 C3.69324373,1.5014054 3.97327509,1.95022409 4.18461951,2.48453206 C4.20575395,2.54864902 4.232172,2.58605057 4.26387366,2.59673673 C4.29557533,2.60742289 4.37482948,2.61810905 4.50163614,2.62879521 L4.56503946,2.62879521 C4.72354778,2.62879521 4.80280193,2.58605057 4.80280193,2.5005613 C4.80280193,2.46850282 4.7869511,2.40438586 4.75524944,2.30821043 C4.70241334,2.13723188 4.60730835,1.93419485 4.46993447,1.69909934 C4.3325606,1.46400384 4.15291784,1.21287909 3.9310062,0.945725107 C3.70909456,0.678571122 3.43963043,0.454161774 3.1226138,0.272497065 C2.80559717,0.0908323549 2.48329693,0 2.15571308,0 C1.83869645,0 1.53753065,0.0801461955 1.25221569,0.240438586 C0.966900719,0.400730977 0.76083991,0.678571122 0.634033259,1.07395902 C0.612898817,1.15944829 0.602331596,1.30371145 0.602331596,1.50674847 L0.602331596,1.79527478 L1.1571107,4.03936825 C1.52696343,5.54611673 1.71717341,6.30483404 1.72774063,6.3155202 C1.72774063,6.33689252 1.45827649,6.34757868 0.919348225,6.34757868 L0.11095582,6.34757868 Z"></path>
            </g>
        </g>
        <g id="Group" transform="translate(157.000000, 320.500000) scale(-1, 1) rotate(-180.000000) translate(-157.000000, -320.500000) translate(147.000000, 313.000000)" fill="#000000" fill-rule="nonzero">
            <g transform="translate(0.000000, 3.400829)" id="MJMATHBI-78">
                <path d="M0.695015241,6.5976076 L0.44839693,6.5976076 C0.149465643,6.5976076 0,6.70341116 0,6.91501828 C0,6.94524787 0.0149465643,7.02837923 0.044839693,7.16441238 C0.0747328216,7.30044553 0.156938925,7.48938045 0.291458004,7.73121716 C0.425977083,7.97305386 0.575442727,8.22244796 0.739854934,8.47939946 C0.904267142,8.73635096 1.15835874,9.00841726 1.50212971,9.29559834 C1.84590069,9.58277943 2.21209152,9.82461613 2.60070219,10.0211085 C3.21351133,10.2931748 3.76653421,10.4292079 4.25977083,10.4292079 L4.32703037,10.4292079 C4.88005325,10.4292079 5.22382423,10.4216505 5.35834331,10.4065357 C6.4942822,10.2100434 7.24161042,9.83217353 7.60032796,9.27292615 L7.82452642,9.49964806 C8.45228213,10.1344694 9.1323508,10.4518801 9.86473245,10.4518801 C10.6867935,10.4518801 11.3220225,10.2176008 11.7704194,9.74904216 C12.2188163,9.28048355 12.4504881,8.71367877 12.4654346,8.04862783 C12.4654346,7.39869169 12.2711293,6.89990349 11.8825186,6.55226322 C11.493908,6.20462296 11.0754042,6.02324543 10.6270072,6.00813064 C10.2832363,6.00813064 9.99177825,6.11393419 9.75263322,6.32554131 C9.51348819,6.53714843 9.39391568,6.82432951 9.39391568,7.18708457 C9.39391568,7.71610236 9.58822101,8.16198879 9.97683169,8.52474385 C10.171137,8.67589179 10.4102821,8.81192493 10.6942668,8.93284329 C10.6942668,8.94795808 10.6643736,8.97818767 10.6045874,9.02353205 C10.5448011,9.06887643 10.4401752,9.12177821 10.2907095,9.18223739 C10.1412439,9.24269656 9.97683169,9.27292615 9.79747291,9.27292615 C9.61811414,9.27292615 9.48359506,9.25781136 9.39391568,9.22758177 C8.90067906,9.00085986 8.54943479,8.57008823 8.34018289,7.93526688 C7.42844247,4.53443822 6.97257226,2.56195759 6.97257226,2.01782501 C6.97257226,1.47369242 7.35370965,1.20162613 8.11598443,1.20162613 C8.77363326,1.20162613 9.37149583,1.42834804 9.90957215,1.88179186 C10.4476485,2.33523568 10.8213126,2.84913868 11.0305645,3.42350085 C11.0903507,3.63510797 11.1426637,3.76358372 11.1875034,3.8089281 C11.2323431,3.85427248 11.3818087,3.87694467 11.6359003,3.87694467 L11.7704194,3.87694467 L12.0170377,3.87694467 C12.315969,3.87694467 12.4654346,3.77114112 12.4654346,3.559534 C12.4654346,3.36304168 12.368282,3.08341799 12.1739766,2.72066293 C11.9796713,2.35790787 11.7106331,1.97248062 11.3668622,1.56438118 C11.0230912,1.15628175 10.5373278,0.793526688 9.90957215,0.476116013 C9.28181645,0.158705338 8.62416762,0.00755739703 7.93662566,0.0226721911 C6.68111425,0.0226721911 5.70211429,0.347640263 4.99962577,0.997576408 L4.82026699,1.20162613 C4.17756473,0.430771631 3.45265636,0.0453443822 2.64554189,0.0453443822 L2.53344265,0.0453443822 C1.68148849,0.0453443822 1.0462595,0.287181087 0.627755702,0.770854497 C0.209251901,1.25452791 0,1.7835457 0,2.35790787 C0,3.08341799 0.201778618,3.61243578 0.605335855,3.94496125 C1.00889309,4.27748672 1.41992361,4.45130685 1.83842741,4.46642164 C2.18219839,4.46642164 2.4736564,4.36061808 2.71280142,4.14901097 C2.95194645,3.93740385 3.07151897,3.65022276 3.07151897,3.28746771 C3.07151897,2.75844991 2.87721363,2.31256349 2.48860296,1.94980843 C2.29429762,1.79866049 2.05515259,1.66262735 1.77116787,1.54170899 C1.801061,1.46613502 1.90568695,1.39056105 2.08504572,1.31498708 C2.2644045,1.23941311 2.45123655,1.19406873 2.64554189,1.17895394 C2.9743663,1.17895394 3.2658243,1.31498708 3.5199159,1.58705338 C3.77400749,1.85911967 3.96831283,2.17653034 4.10283191,2.5392854 C5.01457233,5.94011406 5.47044254,7.91259469 5.47044254,8.45672727 C5.47044254,9.00085986 5.08930515,9.27292615 4.32703037,9.27292615 C3.78895406,9.27292615 3.25087774,9.09910602 2.71280142,8.75146576 C2.17472511,8.40382549 1.74874803,7.83702072 1.43487018,7.05105143 C1.37508392,6.83944431 1.32277094,6.71096856 1.27793125,6.66562418 C1.23309156,6.6202798 1.08362591,6.5976076 0.82953432,6.5976076 L0.695015241,6.5976076 Z"></path>
            </g>
            <g transform="translate(14.110087, 0.014329)" id="MJMATHI-74">
                <path d="M0.11095582,6.34757868 C0.0369852734,6.4223818 0,6.47581259 0,6.50787107 C0,6.55061571 0.0158508315,6.63610498 0.0475524944,6.7643389 C0.0792541573,6.89257281 0.10567221,6.96737593 0.126806652,6.98874824 C0.147941094,7.04217904 0.195493588,7.06889444 0.269464135,7.06889444 C0.343434682,7.06889444 0.612898817,7.07423752 1.07785654,7.08492368 L1.91795061,7.08492368 L2.21911641,8.36726281 C2.25081807,8.48481056 2.28780334,8.63975987 2.33007223,8.83211074 C2.37234111,9.02446161 2.40932638,9.16338168 2.44102805,9.24887096 C2.47272971,9.33436023 2.50443137,9.44122183 2.53613303,9.56945574 C2.5678347,9.69768965 2.61010358,9.78852201 2.66293969,9.8419528 C2.71577579,9.8953836 2.7686119,9.95950056 2.821448,10.0343037 C2.87428411,10.1091068 2.94825465,10.1571945 3.04335964,10.1785668 C3.13846463,10.1999391 3.23356962,10.2106253 3.32867461,10.2106253 C3.51888459,10.1999391 3.65097485,10.1411653 3.72494539,10.0343037 C3.79891594,9.92744208 3.83590121,9.82592356 3.83590121,9.72974813 C3.83590121,9.65494501 3.78834872,9.40382027 3.69324373,8.97637389 C3.59813874,8.54892752 3.49246653,8.12682422 3.3762271,7.710064 L3.21771879,7.11698216 C3.21771879,7.09560984 3.48189931,7.08492368 4.01026036,7.08492368 L4.81865277,7.08492368 C4.89262331,7.01012056 4.92960859,6.95134669 4.92960859,6.90860205 C4.92960859,6.67350654 4.86092165,6.48649875 4.72354778,6.34757868 L3.02750881,6.34757868 L2.45687888,4.02333901 C2.04475726,2.31355351 1.83869645,1.3945438 1.83869645,1.26630989 C1.83869645,0.817491194 1.98135393,0.593081846 2.2666689,0.593081846 C2.63652163,0.593081846 2.99580715,0.774746556 3.34452544,1.13807598 C3.69324373,1.5014054 3.97327509,1.95022409 4.18461951,2.48453206 C4.20575395,2.54864902 4.232172,2.58605057 4.26387366,2.59673673 C4.29557533,2.60742289 4.37482948,2.61810905 4.50163614,2.62879521 L4.56503946,2.62879521 C4.72354778,2.62879521 4.80280193,2.58605057 4.80280193,2.5005613 C4.80280193,2.46850282 4.7869511,2.40438586 4.75524944,2.30821043 C4.70241334,2.13723188 4.60730835,1.93419485 4.46993447,1.69909934 C4.3325606,1.46400384 4.15291784,1.21287909 3.9310062,0.945725107 C3.70909456,0.678571122 3.43963043,0.454161774 3.1226138,0.272497065 C2.80559717,0.0908323549 2.48329693,0 2.15571308,0 C1.83869645,0 1.53753065,0.0801461955 1.25221569,0.240438586 C0.966900719,0.400730977 0.76083991,0.678571122 0.634033259,1.07395902 C0.612898817,1.15944829 0.602331596,1.30371145 0.602331596,1.50674847 L0.602331596,1.79527478 L1.1571107,4.03936825 C1.52696343,5.54611673 1.71717341,6.30483404 1.72774063,6.3155202 C1.72774063,6.33689252 1.45827649,6.34757868 0.919348225,6.34757868 L0.11095582,6.34757868 Z"></path>
            </g>
        </g>
        <polygon id="Triangle-3-Copy" fill="#00A88F" points="490 245.5 479 251 479 240"></polygon>
        <polygon id="Triangle-3-Copy-3" fill="#00A88F" points="69 245.5 58 251 58 240"></polygon>
        <rect id="Rectangle-21" stroke="#00A88F" stroke-width="4" x="84" y="48" width="376" height="240"></rect>
        <path d="M33.3545518,96 L509.01926,96" id="Path-76" stroke="#00A88F" stroke-width="2"></path>
        <polyline id="Path-77-Copy-2" stroke="#00A88F" stroke-width="2" points="404 152 404 246 510 246"></polyline>
        <path d="M294,152 L294,246" id="Path-79" stroke="#DFDFDF" stroke-width="2"></path>
        <path d="M277,135 C242.333333,135 225,135 225,135 C225,135 225.005936,172.333333 225.017808,247" id="Path-78-Copy-2" stroke="#DFDFDF" stroke-width="2"></path>
        <path d="M184,117.06959 L184,245.059246" id="Path-78-Copy" stroke="#DFDFDF" stroke-width="2"></path>
        <g id="Rectangle-22">
            <use fill="#FFFFFF" fill-rule="evenodd" xlink:href="#path-1"></use>
            <rect stroke="#DFDFDF" stroke-width="2" x="153" y="151" width="62" height="20"></rect>
        </g>
        <text id="SIGMOID" font-family="Helvetica-Bold, Helvetica" font-size="11" font-weight="bold" fill="#DFDFDF">
            <tspan x="159.165771" y="164">SIGMOID</tspan>
        </text>
        <g id="Rectangle-22">
            <use fill="#FFFFFF" fill-rule="evenodd" xlink:href="#path-2"></use>
            <rect stroke="#DFDFDF" stroke-width="2" x="264" y="183" width="62" height="20"></rect>
        </g>
        <path d="M294.294163,132.17193 L294.294163,111.997855" id="Path-82" stroke="#DFDFDF" stroke-width="2"></path>
        <g id="Group-11" transform="translate(398.000000, 96.000000)">
            <polygon id="Triangle-3-Copy-10" fill="#00A88F" transform="translate(6.099976, 39.500000) rotate(-270.000000) translate(-6.099976, -39.500000) " points="11.5999756 39.5 0.599975586 45 0.599975586 34"></polygon>
            <path d="M6,0 L6,35.6720816" id="Path-81" stroke="#00A88F" stroke-width="2"></path>
        </g>
        <text id="TANH" font-family="Helvetica-Bold, Helvetica" font-size="11" font-weight="bold" fill="#DFDFDF">
            <tspan x="279.224609" y="197">TANH</tspan>
        </text>
        <g id="Rectangle-22">
            <use fill="#FFFFFF" fill-rule="evenodd" xlink:href="#path-3"></use>
            <rect stroke="#DFDFDF" stroke-width="2" x="193" y="183" width="62" height="20"></rect>
        </g>
        <g id="Group-10" transform="translate(372.000000, 103.000000)">
            <g id="Rectangle-22-Copy">
                <use fill="#CEEFEA" fill-rule="evenodd" xlink:href="#path-4"></use>
                <rect stroke="#00A88F" stroke-width="2" x="1" y="1" width="62" height="20"></rect>
            </g>
            <text id="TANH-Copy" font-family="Helvetica-Bold, Helvetica" font-size="11" font-weight="bold" fill="#00A88F">
                <tspan x="16.2246094" y="14">TANH</tspan>
            </text>
        </g>
        <text id="SIGMOID" font-family="Helvetica-Bold, Helvetica" font-size="11" font-weight="bold" fill="#DFDFDF">
            <tspan x="200.165771" y="197">SIGMOID</tspan>
        </text>
        <circle id="Oval-11" stroke="#DFDFDF" stroke-width="2" fill="#FFFFFF" cx="293.5" cy="96.5" r="9.5"></circle>
        <path d="M290,93 L297,100" id="Path-80" stroke="#DFDFDF" stroke-width="2" transform="translate(293.500000, 96.500000) rotate(45.000000) translate(-293.500000, -96.500000) "></path>
        <path d="M297,93 L290,100" id="Path-80-Copy" stroke="#DFDFDF" stroke-width="2" transform="translate(293.500000, 96.500000) rotate(45.000000) translate(-293.500000, -96.500000) "></path>
        <path d="M155,266 L155,310" id="Path-77" stroke="#979797" stroke-width="2"></path>
        <circle id="Oval-11" stroke="#DFDFDF" stroke-width="2" fill="#FFFFFF" cx="224.5" cy="223.5" r="9.5"></circle>
        <text id="LC" font-family="Helvetica-Bold, Helvetica" font-size="9" font-weight="bold" fill="#DFDFDF">
            <tspan x="218.601471" y="226.399994">LC</tspan>
        </text>
        <circle id="Oval-11" stroke="#DFDFDF" stroke-width="2" fill="#FFFFFF" cx="183.5" cy="223.5" r="9.5"></circle>
        <text id="LC" font-family="Helvetica-Bold, Helvetica" font-size="9" font-weight="bold" fill="#DFDFDF">
            <tspan x="177.601471" y="226.399994">LC</tspan>
        </text>
        <circle id="Oval-11" stroke="#DFDFDF" stroke-width="2" fill="#FFFFFF" cx="293.5" cy="223.5" r="9.5"></circle>
        <text id="LC" font-family="Helvetica-Bold, Helvetica" font-size="9" font-weight="bold" fill="#DFDFDF">
            <tspan x="287.601471" y="226.399994">LC</tspan>
        </text>
        <g id="Group-7" transform="translate(441.000000, 10.000000)">
            <path d="M6,237 L6,6" id="Path-78" stroke="#00A88F" stroke-width="2"></path>
            <polygon id="Triangle-3" fill="#00A88F" points="6.29998779 0 11.7999878 11 0.799987793 11"></polygon>
        </g>
        <polygon id="Triangle-3-Copy-5" fill="#DFDFDF" transform="translate(183.899994, 113.500000) rotate(-90.000000) translate(-183.899994, -113.500000) " points="189.399994 113.5 178.399994 119 178.399994 108"></polygon>
        <polygon id="Triangle-3-Copy-9" fill="#00A88F" transform="translate(155.100006, 262.500000) rotate(-90.000000) translate(-155.100006, -262.500000) " points="160.600006 262.5 149.600006 268 149.600006 257"></polygon>
        <polygon id="Triangle-3-Copy-6" fill="#DFDFDF" transform="translate(294.200012, 113.500000) rotate(-90.000000) translate(-294.200012, -113.500000) " points="299.700012 113.5 288.700012 119 288.700012 108"></polygon>
        <polygon id="Triangle-3-Copy-7" fill="#DFDFDF" transform="translate(294.100006, 150.500000) rotate(-90.000000) translate(-294.100006, -150.500000) " points="299.600006 150.5 288.600006 156 288.600006 145"></polygon>
        <polygon id="Triangle-3-Copy-8" fill="#DFDFDF" points="282 134.5 271 140 271 129"></polygon>
        <polygon id="Triangle-3-Copy-11" fill="#00A88F" points="392 152.100006 381 157.600006 381 146.600006"></polygon>
        <polygon id="Triangle-3-Copy-2" fill="#00A88F" points="490 95.5 479 101 479 90"></polygon>
        <polygon id="Triangle-3-Copy-4" fill="#00A88F" points="69 95.5 58 101 58 90"></polygon>
        <text id="LSTM-CELL-Copy" font-family="Helvetica-Bold, Helvetica" font-size="19" font-weight="bold" fill="#000000">
            <tspan x="222.20166" y="40">LSTM CELL</tspan>
        </text>
        <g id="Group-6" transform="translate(481.000000, 168.000000)" fill="#00A88F">
            <circle id="Oval-10" cx="3" cy="3" r="3"></circle>
            <circle id="Oval-10-Copy" cx="15" cy="3" r="3"></circle>
            <circle id="Oval-10-Copy-2" cx="26" cy="3" r="3"></circle>
        </g>
        <g id="Group-6-Copy" transform="translate(38.000000, 168.000000)" fill="#00A88F">
            <circle id="Oval-10" cx="3" cy="3" r="3"></circle>
            <circle id="Oval-10-Copy" cx="15" cy="3" r="3"></circle>
            <circle id="Oval-10-Copy-2" cx="26" cy="3" r="3"></circle>
        </g>
        <polyline id="Path-77-Copy" stroke="#00A88F" stroke-width="2" points="34.2307809 246 365.951398 246 365.951398 152 387.811086 152"></polyline>
        <g id="Group-2-Copy-3" transform="translate(356.000000, 214.000000)">
            <g id="Group-5-Copy-6" fill="#CEEFEA" stroke="#00A88F" stroke-width="2">
                <circle id="Oval-11" cx="9.5" cy="9.5" r="9.5"></circle>
            </g>
            <text id="LC" font-family="Helvetica-Bold, Helvetica" font-size="9" font-weight="bold" fill="#00A88F">
                <tspan x="3.60147095" y="12.3999939">LC</tspan>
            </text>
        </g>
        <g id="Group-5-Copy-5" transform="translate(145.000000, 236.000000)" fill="#CEEFEA" stroke="#00A88F" stroke-width="2">
            <circle id="Oval-11" cx="9.5" cy="9.5" r="9.5"></circle>
        </g>
        <text id="C" font-family="Helvetica-Bold, Helvetica" font-size="11" font-weight="bold" fill="#00A88F">
            <tspan x="150.028076" y="249">C</tspan>
        </text>
        <g id="Rectangle-22">
            <use fill="#CEEFEA" fill-rule="evenodd" xlink:href="#path-5"></use>
            <rect stroke="#00A88F" stroke-width="2" x="334" y="183" width="62" height="20"></rect>
        </g>
        <text id="SIGMOID-Copy" font-family="Helvetica-Bold, Helvetica" font-size="11" font-weight="bold" fill="#00A88F">
            <tspan x="341.165771" y="197">SIGMOID</tspan>
        </text>
        <path d="M167.685674,131.541542 C167.880061,131.466777 167.977255,131.332201 167.977255,131.137814 C167.977255,130.883615 167.895014,130.592034 167.730532,130.263071 C167.640815,130.188306 167.035224,130.150924 165.913758,130.150924 L164.321276,130.150924 C164.291371,130.07616 164.194177,129.582715 164.029695,128.62573 C163.865213,127.668746 163.670826,126.532328 163.446533,125.216474 C163.22224,123.900621 163.020376,122.913731 162.840941,122.255805 C162.183015,119.354946 160.949402,117.642842 159.140104,117.119491 C159.005528,117.089586 158.796188,117.074633 158.512083,117.074633 C157.734534,117.074633 157.128942,117.254067 156.695309,117.612936 C156.261675,117.971805 156.037382,118.420392 156.022429,118.958695 C156.007476,119.496999 156.186911,119.938109 156.560733,120.282025 C156.934555,120.625941 157.360712,120.812852 157.839204,120.842758 C158.198073,120.842758 158.489654,120.738088 158.713947,120.528747 C158.93824,120.319407 159.057863,120.042779 159.072816,119.698863 C159.072816,119.130653 158.818617,118.637208 158.31022,118.218528 L158.489654,118.196098 L158.736377,118.196098 C158.990575,118.240957 159.229822,118.532538 159.454115,119.070842 C159.528879,119.339994 159.700837,120.244643 159.969989,121.784789 C160.059706,122.248328 160.224188,123.16793 160.463434,124.543595 C160.70268,125.91926 160.93445,127.197731 161.158743,128.379008 C161.383036,129.560285 161.487706,130.150924 161.472753,130.150924 L160.126994,130.150924 L159.297109,130.150924 C158.998052,130.150924 158.788712,130.173353 158.669089,130.218212 C158.549466,130.263071 158.482178,130.375217 158.467225,130.554652 C158.527036,131.092955 158.646659,131.406966 158.826094,131.496683 C158.885905,131.526589 159.386827,131.541542 160.328858,131.541542 L161.719476,131.541542 C162.011057,133.365793 162.280208,134.532117 162.54936,135.085373 C162.818512,135.653583 163.184858,136.117122 163.648397,136.475991 C164.111936,136.83486 164.515664,137.059153 164.85958,137.148871 C165.203496,137.238588 165.539936,137.290923 165.868899,137.305876 C166.855789,137.305876 167.551098,137.118965 167.954825,136.745143 C168.358553,136.371321 168.567893,135.930211 168.582846,135.421813 C168.582846,134.88351 168.395935,134.434923 168.022113,134.076054 C167.648291,133.717185 167.237087,133.537751 166.788501,133.537751 C166.429632,133.537751 166.130574,133.642421 165.891328,133.851761 C165.652082,134.061101 165.532459,134.345206 165.532459,134.704075 C165.532459,134.868557 165.554889,135.025562 165.599747,135.175091 C165.644606,135.32462 165.704417,135.459195 165.779182,135.578818 C165.853946,135.698441 165.921234,135.795635 165.981046,135.8704 C166.040857,135.945164 166.100669,136.012452 166.16048,136.072263 L166.250197,136.161981 C166.175433,136.161981 166.093192,136.169457 166.003475,136.18441 C165.255831,136.18441 164.882009,135.51153 164.882009,134.165772 L164.882009,134.008766 L164.85958,133.201311 L164.725004,132.438714 C164.635287,131.900411 164.582952,131.623782 164.567999,131.608829 L164.567999,131.541542 L167.685674,131.541542 Z" id="MJMATHBI-66" fill="#DFDFDF" fill-rule="nonzero" transform="translate(162.302206, 127.190254) scale(-1, 1) rotate(-180.000000) translate(-162.302206, -127.190254) "></path>
        <path d="M171.773115,132.978723 C171.61454,132.841291 171.381963,132.693287 171.075384,132.534712 C170.768805,132.376137 170.446369,132.296849 170.108075,132.296849 C169.442059,132.296849 168.908189,132.534712 168.506465,133.010438 C168.104741,133.486164 167.898593,134.094035 167.888021,134.834053 C167.888021,135.94408 168.295031,136.964248 169.109051,137.894556 C169.923071,138.824864 170.82695,139.295304 171.820688,139.305876 C172.317557,139.305876 172.777425,139.052155 173.200293,138.544715 L173.247865,138.608145 C173.269009,138.63986 173.295438,138.671575 173.327153,138.70329 C173.358868,138.735005 173.406441,138.777292 173.469871,138.83015 C173.533301,138.883008 173.602017,138.920009 173.676019,138.941153 C173.75002,138.962296 173.834594,138.978154 173.929739,138.988725 C174.077743,138.988725 174.199317,138.941153 174.294462,138.846008 C174.389607,138.750862 174.442466,138.650431 174.453037,138.544715 C174.453037,138.386139 174.151744,137.106965 173.549158,134.707193 C172.946572,132.307421 172.629422,131.081105 172.597707,131.028247 C172.407417,130.457376 172.000407,129.986936 171.376677,129.616927 C170.752948,129.246918 170.039359,129.056628 169.235911,129.046056 C167.745304,129.046056 167,129.405493 167,130.124368 C167,130.399232 167.095145,130.64238 167.285435,130.853814 C167.475726,131.065248 167.718875,131.170965 168.014882,131.170965 C168.173457,131.170965 168.321461,131.123392 168.458892,131.028247 C168.596324,130.933102 168.670326,130.769241 168.680898,130.536664 C168.680898,130.430947 168.670326,130.330516 168.649183,130.235371 C168.628039,130.140225 168.591038,130.066224 168.53818,130.013365 C168.485322,129.960507 168.443035,129.907648 168.41132,129.85479 C168.379605,129.801932 168.342604,129.759645 168.300317,129.72793 L168.268602,129.696215 L168.28446,129.696215 C168.390176,129.6645 168.707327,129.648642 169.235911,129.648642 C169.637635,129.648642 169.954786,129.712072 170.187363,129.838932 C170.430512,129.955221 170.657803,130.129654 170.869236,130.362231 C171.08067,130.594808 171.228674,130.843242 171.313247,131.107535 C171.376677,131.308397 171.461251,131.636119 171.566968,132.090701 C171.7044,132.598142 171.773115,132.894149 171.773115,132.978723 Z M172.930715,137.498118 L172.867285,137.672551 C172.83557,137.788839 172.809141,137.868127 172.787997,137.910413 C172.766854,137.9527 172.735139,138.026702 172.692852,138.132419 C172.650565,138.238136 172.597707,138.312137 172.534277,138.354424 C172.470847,138.396711 172.402131,138.454855 172.328129,138.528857 C172.254127,138.602859 172.158982,138.650431 172.042693,138.671575 C171.926405,138.692718 171.810116,138.708576 171.693828,138.719147 C171.228674,138.719147 170.779377,138.438998 170.345938,137.878698 C170.028788,137.466403 169.764495,136.837387 169.553062,135.991653 C169.341628,135.145918 169.235911,134.53276 169.235911,134.15218 C169.235911,133.317017 169.563633,132.899435 170.219078,132.899435 C170.811092,132.899435 171.392535,133.269444 171.963406,134.009462 L172.090266,134.168037 L172.930715,137.498118 Z" id="MJMATHI-67" fill="#DFDFDF" fill-rule="nonzero" transform="translate(170.726519, 134.175966) scale(-1, 1) rotate(-180.000000) translate(-170.726519, -134.175966) "></path>
        <path d="M235.059706,154.074317 C235.059706,154.537856 235.239141,154.94906 235.59801,155.307929 C235.956879,155.666798 236.360607,155.846233 236.809193,155.846233 C237.212921,155.846233 237.519455,155.734086 237.728795,155.509793 C237.938135,155.2855 238.050282,155.001395 238.065235,154.657479 C238.065235,154.19394 237.8858,153.782736 237.526931,153.423867 C237.168062,153.064998 236.741905,152.885563 236.24846,152.885563 C235.904544,152.885563 235.620439,152.99771 235.396146,153.222003 C235.171853,153.446296 235.059706,153.730401 235.059706,154.074317 Z M231,146.919365 C231,147.053941 231.074764,147.293187 231.224293,147.637103 C231.373822,147.981019 231.590639,148.369794 231.874743,148.803428 C232.158848,149.237061 232.547623,149.610883 233.041068,149.924893 C233.534513,150.238904 234.072816,150.403385 234.655979,150.418338 C234.92513,150.418338 235.194282,150.388433 235.463434,150.328621 C235.732586,150.268809 236.024167,150.171616 236.338177,150.03704 C236.652188,149.902464 236.89891,149.685647 237.078345,149.38659 C237.257779,149.087532 237.354973,148.743616 237.369926,148.354841 C237.369926,148.130548 237.212921,147.607197 236.89891,146.784789 C236.5849,145.962381 236.233507,145.065208 235.844732,144.093271 C235.455957,143.121334 235.209235,142.50079 235.104565,142.231638 C235.0298,141.93258 234.992418,141.708287 234.992418,141.558758 C234.992418,141.334465 235.089612,141.222319 235.283999,141.222319 C235.583057,141.222319 235.897067,141.3868 236.226031,141.715764 C236.68957,142.134444 237.02601,142.702654 237.23535,143.420392 C237.310114,143.659638 237.369926,143.80169 237.414784,143.846549 C237.459643,143.891407 237.609172,143.913837 237.863371,143.913837 L237.997947,143.913837 L238.244669,143.913837 C238.543727,143.913837 238.693255,143.809166 238.693255,143.599826 C238.693255,143.480203 238.618491,143.248434 238.468962,142.904517 C238.319433,142.560601 238.110093,142.171826 237.840941,141.738193 C237.57179,141.304559 237.175538,140.923261 236.652188,140.594298 C236.128837,140.265335 235.568104,140.100853 234.969989,140.100853 C234.327015,140.100853 233.7289,140.272811 233.175644,140.616727 C232.622387,140.960643 232.338283,141.476518 232.32333,142.16435 C232.32333,142.463407 232.697152,143.547491 233.444795,145.416601 C234.192439,147.28571 234.573738,148.250171 234.588691,148.309983 C234.663455,148.579134 234.700837,148.803428 234.700837,148.982862 C234.700837,149.192202 234.61112,149.296872 234.431685,149.296872 C234.117675,149.296872 233.796188,149.132391 233.467225,148.803428 C233.003686,148.384747 232.667246,147.816538 232.457906,147.098799 C232.383141,146.859553 232.32333,146.717501 232.278471,146.672642 C232.233612,146.627784 232.084084,146.605355 231.829885,146.605355 L231.695309,146.605355 L231.448586,146.605355 C231.149529,146.605355 231,146.710025 231,146.919365 Z" id="MJMATHBI-69" fill="#DFDFDF" fill-rule="nonzero" transform="translate(234.846628, 147.973543) scale(-1, 1) rotate(-180.000000) translate(-234.846628, -147.973543) "></path>
        <path d="M244.47975,155.968091 C244.321175,155.830659 244.088597,155.682656 243.782019,155.52408 C243.47544,155.365505 243.153003,155.286218 242.81471,155.286218 C242.148693,155.286218 241.614823,155.52408 241.213099,155.999806 C240.811375,156.475532 240.605228,157.083404 240.594656,157.823422 C240.594656,158.933449 241.001666,159.953616 241.815685,160.883924 C242.629705,161.814233 243.533584,162.284673 244.527322,162.295244 C245.024192,162.295244 245.48406,162.041524 245.906927,161.534083 L245.9545,161.597513 C245.975643,161.629228 246.002072,161.660943 246.033787,161.692658 C246.065502,161.724373 246.113075,161.76666 246.176505,161.819518 C246.239935,161.872377 246.308651,161.909378 246.382653,161.930521 C246.456655,161.951665 246.541228,161.967522 246.636373,161.978094 C246.784377,161.978094 246.905951,161.930521 247.001097,161.835376 C247.096242,161.740231 247.1491,161.6398 247.159672,161.534083 C247.159672,161.375508 246.858379,160.096334 246.255793,157.696562 C245.653207,155.296789 245.336056,154.070474 245.304341,154.017615 C245.114051,153.446745 244.707041,152.976305 244.083312,152.606296 C243.459582,152.236287 242.745994,152.045996 241.942546,152.035425 C240.451938,152.035425 239.706634,152.394862 239.706634,153.113736 C239.706634,153.3886 239.801779,153.631749 239.99207,153.843183 C240.18236,154.054616 240.425509,154.160333 240.721516,154.160333 C240.880091,154.160333 241.028095,154.112761 241.165527,154.017615 C241.302959,153.92247 241.37696,153.758609 241.387532,153.526032 C241.387532,153.420315 241.37696,153.319884 241.355817,153.224739 C241.334674,153.129594 241.297673,153.055592 241.244814,153.002734 C241.191956,152.949875 241.149669,152.897017 241.117954,152.844159 C241.086239,152.7913 241.049238,152.749013 241.006952,152.717298 L240.975236,152.685583 L240.991094,152.685583 C241.096811,152.653868 241.413961,152.638011 241.942546,152.638011 C242.34427,152.638011 242.66142,152.701441 242.893997,152.828301 C243.137146,152.94459 243.364437,153.119022 243.575871,153.351599 C243.787304,153.584176 243.935308,153.832611 244.019882,154.096903 C244.083312,154.297765 244.167885,154.625487 244.273602,155.08007 C244.411034,155.587511 244.47975,155.883518 244.47975,155.968091 Z M245.637349,160.487486 L245.573919,160.661919 C245.542204,160.778208 245.515775,160.857495 245.494631,160.899782 C245.473488,160.942069 245.441773,161.01607 245.399486,161.121787 C245.3572,161.227504 245.304341,161.301506 245.240911,161.343793 C245.177481,161.386079 245.108765,161.444224 245.034763,161.518225 C244.960761,161.592227 244.865616,161.6398 244.749328,161.660943 C244.633039,161.682087 244.516751,161.697944 244.400462,161.708516 C243.935308,161.708516 243.486011,161.428366 243.052572,160.868067 C242.735422,160.455771 242.47113,159.826756 242.259696,158.981021 C242.048262,158.135287 241.942546,157.522129 241.942546,157.141548 C241.942546,156.306385 242.270268,155.888804 242.925712,155.888804 C243.517727,155.888804 244.099169,156.258813 244.67004,156.99883 L244.7969,157.157406 L245.637349,160.487486 Z" id="MJMATHI-67" fill="#DFDFDF" fill-rule="nonzero" transform="translate(243.433153, 157.165334) scale(-1, 1) rotate(-180.000000) translate(-243.433153, -157.165334) "></path>
        <g id="Group" transform="translate(351.500000, 168.305876) scale(-1, 1) rotate(-180.000000) translate(-351.500000, -168.305876) translate(341.000000, 159.305876)" fill="#000000" fill-rule="nonzero">
            <g transform="translate(0.000000, 6.459643)" id="MJMATHBI-6F">
                <path d="M4.82230295,0 C3.88027168,0 3.0728163,0.127099458 2.39993682,0.381298373 C1.72705734,0.635497288 1.23361238,0.971937029 0.919601959,1.3906176 C0.605591534,1.80929816 0.373821934,2.23545517 0.224293161,2.66908861 C0.0747643869,3.10272206 0,3.5363555 0,3.96998894 C0,4.52324541 0.104670142,5.10640762 0.314010425,5.7194756 C0.523350708,6.33254357 0.844837572,6.94561154 1.27847102,7.55867951 C1.71210446,8.17174749 2.31021955,8.71752751 3.0728163,9.19601959 C3.83541305,9.67451166 4.70267993,10.003475 5.67461696,10.1829095 C6.0484389,10.2576739 6.3774022,10.2950561 6.66150687,10.2950561 L6.8409414,10.3174854 C6.9755173,10.3174854 7.08766388,10.3174854 7.17738114,10.3174854 C8.64276312,10.3174854 9.816564,9.98852209 10.6987838,9.33059548 C11.5810035,8.67266888 12.0295898,7.70820829 12.0445427,6.43721371 C12.0445427,4.7923972 11.3866161,3.31206234 10.0707629,1.99620913 C8.7549097,0.680355921 7.00542305,0.0149528774 4.82230295,0 Z M6.95308798,9.15116095 C6.53440741,9.15116095 6.07086821,9.03901437 5.56247038,8.81472121 C5.05407255,8.59042805 4.63539199,8.23903543 4.30642868,7.76054336 C3.93260675,7.2072869 3.61111989,6.38487864 3.34196809,5.29331859 C3.0728163,4.20175854 2.9382404,3.4391618 2.9382404,3.00552835 C2.9382404,2.60180066 2.99805191,2.2803138 3.11767493,2.04106776 C3.41673248,1.45790554 4.02980045,1.16632444 4.95687885,1.16632444 C6.55683673,1.16632444 7.67082609,2.01116201 8.29884694,3.70083715 C8.44837572,4.11951772 8.62033381,4.72510925 8.81472121,5.51761175 C9.00910862,6.31011425 9.10630232,6.90075291 9.10630232,7.28952772 C9.10630232,7.57363239 9.09134944,7.80540199 9.06144369,7.98483652 C8.94182067,8.34370558 8.73995683,8.61285737 8.45585216,8.7922919 C8.17174749,8.97172643 7.93250145,9.07639657 7.73811404,9.10630232 C7.54372664,9.13620808 7.28205128,9.15116095 6.95308798,9.15116095 Z"></path>
            </g>
            <g transform="translate(12.413864, 0.010631)" id="MJMATHI-67">
                <path d="M4.77311546,3.93266656 C4.6145402,3.79523467 4.38196314,3.64723109 4.0753843,3.48865582 C3.76880545,3.33008056 3.44636908,3.25079292 3.10807519,3.25079292 C2.44205907,3.25079292 1.90818902,3.48865582 1.50646501,3.96438161 C1.10474101,4.44010741 0.898593166,5.04797926 0.888021482,5.78799716 C0.888021482,6.89802401 1.29503133,7.91819154 2.10905102,8.84849976 C2.92307071,9.77880798 3.82694972,10.2492479 4.82068804,10.2598196 C5.31755721,10.2598196 5.77742547,10.0060992 6.20029284,9.49865835 L6.24786542,9.56208845 C6.26900879,9.59380351 6.295438,9.62551856 6.32715306,9.65723361 C6.35886811,9.68894867 6.40644069,9.7312354 6.46987079,9.78409382 C6.5333009,9.83695225 6.60201685,9.87395314 6.67601864,9.89509651 C6.75002043,9.91623988 6.8345939,9.9320974 6.92973906,9.94266909 C7.07774264,9.94266909 7.19931701,9.89509651 7.29446217,9.79995135 C7.38960733,9.70480619 7.44246575,9.60437519 7.45303743,9.49865835 C7.45303743,9.34008308 7.15174443,8.06090928 6.54915843,5.66113695 C5.94657242,3.26136461 5.62942189,2.03504923 5.59770684,1.98219081 C5.40741652,1.41131985 5.00040668,0.940879903 4.3766773,0.570870952 C3.75294793,0.200862002 3.03935924,0.0105716843 2.23591123,0 C0.745303743,0 0,0.359437266 0,1.0783118 C0,1.35317559 0.0951451587,1.59632433 0.285435476,1.80775802 C0.475725794,2.0191917 0.718874533,2.12490855 1.01488169,2.12490855 C1.17345696,2.12490855 1.32146054,2.07733597 1.45889243,1.98219081 C1.59632433,1.88704565 1.67032612,1.72318454 1.6808978,1.49060749 C1.6808978,1.38489064 1.67032612,1.28445964 1.64918275,1.18931448 C1.62803938,1.09416933 1.59103849,1.02016754 1.53818007,0.967309114 C1.48532164,0.914450692 1.44303491,0.861592271 1.41131985,0.808733849 C1.3796048,0.755875428 1.34260391,0.713588691 1.30031717,0.681873638 L1.26860212,0.650158585 L1.28445964,0.650158585 C1.39017649,0.618443532 1.70732702,0.602586005 2.23591123,0.602586005 C2.63763523,0.602586005 2.95478576,0.666016111 3.18736282,0.792876323 C3.43051156,0.90916485 3.65780277,1.08359764 3.86923646,1.3161747 C4.08067014,1.54875175 4.22867372,1.79718633 4.3132472,2.06147844 C4.3766773,2.26234044 4.46125078,2.59006265 4.56696762,3.04464508 C4.70439952,3.55208593 4.77311546,3.84809309 4.77311546,3.93266656 Z M5.93071489,8.4520616 L5.86728479,8.62649439 C5.83556974,8.74278292 5.80914053,8.82207055 5.78799716,8.86435729 C5.76685379,8.90664403 5.73513874,8.98064582 5.692852,9.08636266 C5.65056526,9.1920795 5.59770684,9.26608129 5.53427673,9.30836803 C5.47084663,9.35065477 5.40213068,9.40879903 5.32812889,9.48280082 C5.2541271,9.55680261 5.15898194,9.60437519 5.04269341,9.62551856 C4.92640489,9.64666193 4.81011636,9.66251945 4.69382783,9.67309114 C4.22867372,9.67309114 3.77937714,9.3929415 3.34593808,8.83264224 C3.02878755,8.42034655 2.76449545,7.79133133 2.55306176,6.94559659 C2.34162807,6.09986184 2.23591123,5.48670415 2.23591123,5.10612352 C2.23591123,4.27096046 2.56363344,3.85337893 3.21907787,3.85337893 C3.81109219,3.85337893 4.39253483,4.22338788 4.96340578,4.96340578 L5.09026599,5.12198105 L5.93071489,8.4520616 Z"></path>
            </g>
        </g>
        <path d="M126.22224,83.1153845 C126.22224,83.3994892 126.289528,83.668641 126.424104,83.9228399 C126.55868,84.1770388 126.700732,84.3639498 126.850261,84.4835728 L127.052124,84.6630073 C126.917549,84.7676775 126.588585,84.8200126 126.065235,84.8200126 C124.883957,84.8200126 123.956879,84.3489969 123.283999,83.4069656 C122.92513,82.8537092 122.61112,82.0462538 122.341968,80.9845995 C122.072816,79.9229452 121.930764,79.1154898 121.915811,78.5622334 C121.915811,77.3809561 122.618596,76.7903174 124.024167,76.7903174 C125.938135,76.7903174 127.381088,77.2538566 128.353025,78.180935 C128.577318,78.4052282 128.749276,78.4949454 128.868899,78.4500868 C128.958616,78.4052282 129.085716,78.2930816 129.250197,78.1136471 C129.414679,77.9342125 129.504396,77.7921602 129.519349,77.6874901 C129.519349,77.6276785 129.467014,77.5304848 129.362344,77.3959089 C129.257674,77.261333 129.070763,77.089375 128.801611,76.8800347 C128.532459,76.6706944 128.19602,76.476307 127.792292,76.2968725 C127.388564,76.1174379 126.850261,75.9679092 126.177381,75.8482861 C125.504502,75.7286631 124.749381,75.6613752 123.91202,75.6464223 C122.940083,75.6464223 122.110198,75.7735217 121.422366,76.0277207 C120.734534,76.2819196 120.226136,76.6183593 119.897173,77.0370399 C119.568209,77.4557205 119.33644,77.8669246 119.201864,78.2706523 C119.067288,78.67438 119,79.1080134 119,79.5715526 C119,81.2612277 119.665403,82.7415626 120.996209,84.0125572 C122.327015,85.2835518 123.994261,85.9265255 125.997947,85.9414784 C126.566156,85.9414784 126.895119,85.9340019 126.984837,85.919049 C127.762386,85.799426 128.338072,85.5452271 128.711894,85.1564523 C129.085716,84.7676775 129.280103,84.334044 129.295056,83.855552 C129.310009,83.3770599 129.145527,82.9583793 128.801611,82.5995103 C128.457695,82.2406412 128.039014,82.0313009 127.545569,81.9714894 L127.455852,81.9714894 C127.096983,81.9714894 126.805402,82.0761596 126.581109,82.2854998 C126.356816,82.4948401 126.237193,82.7714684 126.22224,83.1153845 Z" id="MJMATHBI-63" fill="#DFDFDF" fill-rule="nonzero" transform="translate(124.259675, 80.793950) scale(-1, 1) rotate(-180.000000) translate(-124.259675, -80.793950) "></path>
        <path d="M130.021362,85.4792102 C129.94736,85.5532119 129.91036,85.6060704 129.91036,85.6377854 C129.91036,85.6800722 129.926217,85.7646456 129.957932,85.8915058 C129.989647,86.0183661 130.016076,86.0923678 130.03722,86.1135112 C130.058363,86.1663696 130.105936,86.1927988 130.179937,86.1927988 C130.253939,86.1927988 130.523517,86.1980847 130.988671,86.2086564 L131.82912,86.2086564 L132.130413,87.4772585 C132.162128,87.593547 132.199129,87.7468364 132.241416,87.9371268 C132.283703,88.1274171 132.320704,88.264849 132.352419,88.3494224 C132.384134,88.4339959 132.415849,88.5397128 132.447564,88.666573 C132.479279,88.7934332 132.521566,88.8832925 132.574424,88.9361509 C132.627282,88.9890093 132.680141,89.0524395 132.732999,89.1264412 C132.785858,89.200443 132.859859,89.2480156 132.955005,89.269159 C133.05015,89.2903024 133.145295,89.300874 133.24044,89.300874 C133.43073,89.2903024 133.562876,89.2321581 133.636878,89.1264412 C133.71088,89.0207244 133.747881,88.9202934 133.747881,88.8251482 C133.747881,88.7511465 133.700308,88.5027119 133.605163,88.0798445 C133.510018,87.6569771 133.404301,87.2393956 133.288013,86.8270999 L133.129437,86.2403714 C133.129437,86.2192281 133.393729,86.2086564 133.922314,86.2086564 L134.731048,86.2086564 C134.805049,86.1346546 134.84205,86.0765103 134.84205,86.0342236 C134.84205,85.8016465 134.773334,85.6166421 134.635902,85.4792102 L132.939147,85.4792102 L132.368276,83.1798688 C131.95598,81.4883993 131.749833,80.5792345 131.749833,80.4523743 C131.749833,80.0083635 131.89255,79.7863582 132.177986,79.7863582 C132.547995,79.7863582 132.907432,79.9660768 133.256298,80.3255141 C133.605163,80.6849513 133.885313,81.1289621 134.096746,81.6575463 C134.11789,81.7209764 134.144319,81.7579773 134.176034,81.768549 C134.207749,81.7791207 134.287037,81.7896923 134.413897,81.800264 L134.477327,81.800264 C134.635902,81.800264 134.71519,81.7579773 134.71519,81.6734038 C134.71519,81.6416888 134.699332,81.5782586 134.667617,81.4831135 C134.614759,81.3139665 134.519614,81.1131045 134.382182,80.8805275 C134.24475,80.6479504 134.065031,80.3995158 133.843026,80.1352237 C133.621021,79.8709316 133.351443,79.6489263 133.034292,79.4692076 C132.717142,79.289489 132.394705,79.1996297 132.066983,79.1996297 C131.749833,79.1996297 131.44854,79.2789173 131.163104,79.4374926 C130.877669,79.5960678 130.671521,79.8709316 130.544661,80.262084 C130.523517,80.3466574 130.512946,80.4893752 130.512946,80.6902372 L130.512946,80.9756726 L131.067959,83.1957263 C131.437968,84.6863338 131.628258,85.4369234 131.63883,85.4474951 C131.63883,85.4686385 131.369252,85.4792102 130.830096,85.4792102 L130.021362,85.4792102 Z" id="MJMATHI-74" fill="#DFDFDF" fill-rule="nonzero" transform="translate(132.376205, 84.250252) scale(-1, 1) rotate(-180.000000) translate(-132.376205, -84.250252) "></path>
        <path d="M136.665666,84.5902128 C136.665666,84.5902128 136.665666,84.6589288 136.665666,84.7963607 C136.665666,84.9337926 136.739668,85.0395094 136.887671,85.1135112 L146.100894,85.1135112 C146.259469,85.0289377 146.338757,84.9232209 146.338757,84.7963607 C146.338757,84.6695005 146.259469,84.5637836 146.100894,84.4792102 L136.887671,84.4792102 C136.739668,84.5532119 136.665666,84.6589288 136.665666,84.7963607 L136.665666,84.5902128 Z" id="MJMAIN-2212" fill="#DFDFDF" fill-rule="nonzero" transform="translate(141.502211, 84.979210) scale(-1, 1) rotate(-180.000000) translate(-141.502211, -84.979210) "></path>
        <path d="M151.0643,87.7309789 L150.858152,87.6516913 C150.710148,87.5988329 150.498715,87.5459744 150.223851,87.493116 C149.948987,87.4402576 149.642408,87.4032567 149.304114,87.3821133 L149.002821,87.3821133 L149.002821,88.1115596 L149.304114,88.1115596 C149.800984,88.1327029 150.260852,88.2119906 150.683719,88.3494224 C151.106587,88.4868543 151.402594,88.6137146 151.571741,88.7300031 C151.740888,88.8462916 151.888891,88.9625801 152.015751,89.0788687 C152.036895,89.1105837 152.100325,89.1264412 152.206042,89.1264412 C152.301187,89.1264412 152.391046,89.0947262 152.47562,89.0312961 L152.47562,84.2898957 L152.491477,79.5326377 C152.565479,79.4586359 152.628909,79.4110634 152.681767,79.38992 C152.734626,79.3687766 152.861486,79.3476333 153.062348,79.3264899 C153.26321,79.3053465 153.590932,79.2947748 154.045515,79.2947748 L154.45781,79.2947748 L154.45781,78.5653286 L154.283378,78.5653286 C154.061372,78.5970437 153.220923,78.6129012 151.762031,78.6129012 C150.324282,78.6129012 149.494405,78.5970437 149.272399,78.5653286 L149.082109,78.5653286 L149.082109,79.2947748 L149.494405,79.2947748 C149.726982,79.2947748 149.927844,79.2947748 150.096991,79.2947748 C150.266138,79.2947748 150.398284,79.3000607 150.493429,79.3106324 C150.588574,79.3212041 150.673147,79.3370616 150.747149,79.3582049 C150.821151,79.3793483 150.863438,79.38992 150.874009,79.38992 C150.884581,79.38992 150.916296,79.4163492 150.969155,79.4692076 C151.022013,79.5220661 151.053728,79.5432094 151.0643,79.5326377 L151.0643,87.7309789 Z" id="MJMAIN-31" fill="#DFDFDF" fill-rule="nonzero" transform="translate(151.730316, 83.845885) scale(-1, 1) rotate(-180.000000) translate(-151.730316, -83.845885) "></path>
        <g id="Group" transform="translate(336.000000, 81.805876) scale(-1, 1) rotate(-180.000000) translate(-336.000000, -81.805876) translate(328.000000, 74.305876)" fill="#000000" fill-rule="nonzero">
            <g transform="translate(0.000000, 3.386827)" id="MJMATHBI-63">
                <path d="M7.22223977,7.46896225 C7.22223977,7.75306692 7.28952772,8.02221871 7.42410362,8.27641763 C7.55867951,8.53061654 7.70073185,8.71752751 7.85026062,8.83715053 L8.05212447,9.01658506 C7.91754857,9.1212552 7.58858527,9.17359027 7.06523456,9.17359027 C5.88395725,9.17359027 4.95687885,8.70257463 4.28399937,7.76054336 C3.92513031,7.2072869 3.61111989,6.39983152 3.34196809,5.33817722 C3.0728163,4.27652293 2.93076397,3.46906755 2.91581109,2.91581109 C2.91581109,1.73453378 3.61859632,1.14389512 5.0241668,1.14389512 C6.9381351,1.14389512 8.38108777,1.60743432 9.3530248,2.53451272 C9.57731796,2.75880588 9.74927605,2.84852314 9.86889907,2.80366451 C9.95861633,2.75880588 10.0857158,2.6466593 10.2501974,2.46722477 C10.4146791,2.28779024 10.5043964,2.1457379 10.5193492,2.04106776 C10.5193492,1.98125625 10.4670142,1.88406255 10.362344,1.74948665 C10.2576739,1.61491076 10.0707629,1.44295267 9.80161112,1.23361238 C9.53245933,1.0242721 9.19601959,0.829884694 8.7922919,0.650450166 C8.38856421,0.471015637 7.85026062,0.321486864 7.17738114,0.201863845 C6.50450166,0.0822408256 5.74938135,0.0149528774 4.91202022,0 C3.94008319,0 3.11019849,0.127099458 2.42236613,0.381298373 C1.73453378,0.635497288 1.22613594,0.971937029 0.897172643,1.3906176 C0.56820934,1.80929816 0.336439741,2.22050229 0.201863845,2.62422998 C0.0672879482,3.02795767 0,3.46159111 0,3.92513031 C0,5.61480545 0.665403043,7.09514031 1.99620913,8.36613489 C3.32701522,9.63712947 4.99426104,10.2801032 6.99794661,10.2950561 C7.56615595,10.2950561 7.89511925,10.2875796 7.98483652,10.2726268 C8.76238614,10.1530037 9.33807192,9.89880482 9.71189386,9.51003001 C10.0857158,9.1212552 10.2801032,8.68762176 10.2950561,8.20912968 C10.310009,7.7306376 10.1455273,7.31195704 9.80161112,6.95308798 C9.45769494,6.59421892 9.03901437,6.38487864 8.54556942,6.32506713 L8.45585216,6.32506713 C8.0969831,6.32506713 7.80540199,6.42973727 7.58110883,6.63907755 C7.35681567,6.84841784 7.23719265,7.12504607 7.22223977,7.46896225 Z"></path>
            </g>
            <g transform="translate(10.916685, 0.014175)" id="MJMATHI-74">
                <path d="M0.111002685,6.27958048 C0.0370008951,6.35358227 0,6.40644069 0,6.43815574 C0,6.48044248 0.0158575265,6.56501595 0.0475725794,6.69187616 C0.0792876323,6.81873638 0.105716843,6.89273817 0.126860212,6.91388154 C0.14800358,6.96673996 0.19557616,6.99316917 0.26957795,6.99316917 C0.34357974,6.99316917 0.61315769,6.99845501 1.0783118,7.00902669 L1.9187607,7.00902669 L2.2200537,8.27762881 C2.25176876,8.39391734 2.28876965,8.54720676 2.33105639,8.73749708 C2.37334313,8.9277874 2.41034402,9.06521929 2.44205907,9.14979277 C2.47377413,9.23436624 2.50548918,9.34008308 2.53720423,9.46694329 C2.56891929,9.59380351 2.61120602,9.68366282 2.66406444,9.73652124 C2.71692287,9.78937967 2.76978129,9.85280977 2.82263971,9.92681156 C2.87549813,10.0008134 2.94949992,10.0483859 3.04464508,10.0695293 C3.13979024,10.0906727 3.2349354,10.1012444 3.33008056,10.1012444 C3.52037087,10.0906727 3.65251693,10.0325284 3.72651872,9.92681156 C3.80052051,9.82109472 3.8375214,9.72066372 3.8375214,9.62551856 C3.8375214,9.55151677 3.78994882,9.30308219 3.69480366,8.88021482 C3.59965851,8.45734744 3.49394166,8.03976591 3.37765314,7.62747023 L3.21907787,7.04074175 C3.21907787,7.01959838 3.48336998,7.00902669 4.01195419,7.00902669 L4.82068804,7.00902669 C4.89468983,6.9350249 4.93169073,6.87688064 4.93169073,6.8345939 C4.93169073,6.60201685 4.86297478,6.41701237 4.72554288,6.27958048 L3.02878755,6.27958048 L2.4579166,3.98023914 C2.04562091,2.28876965 1.83947307,1.3796048 1.83947307,1.25274459 C1.83947307,0.808733849 1.98219081,0.586728479 2.26762628,0.586728479 C2.63763523,0.586728479 2.9970725,0.766447112 3.34593808,1.12588438 C3.69480366,1.48532164 3.9749533,1.92933239 4.18638698,2.4579166 C4.20753035,2.52134671 4.23395956,2.5583476 4.26567462,2.56891929 C4.29738967,2.57949097 4.3766773,2.59006265 4.50353751,2.60063434 L4.56696762,2.60063434 C4.72554288,2.60063434 4.80483052,2.5583476 4.80483052,2.47377413 C4.80483052,2.44205907 4.78897299,2.37862897 4.75725794,2.28348381 C4.70439952,2.11433686 4.60925436,1.91347486 4.47182246,1.6808978 C4.33439056,1.44832075 4.15467193,1.19988617 3.93266656,0.935594061 C3.71066119,0.671301953 3.44108324,0.449296583 3.12393271,0.26957795 C2.80678218,0.0898593166 2.48434581,0 2.1566236,0 C1.83947307,0 1.53818007,0.0792876323 1.25274459,0.237862897 C0.967309114,0.396438161 0.76116127,0.671301953 0.634301058,1.06245427 C0.61315769,1.14702775 0.602586005,1.28974549 0.602586005,1.49060749 L0.602586005,1.77604296 L1.15759943,3.99609667 C1.52760838,5.48670415 1.7178987,6.23729374 1.72847038,6.24786542 C1.72847038,6.26900879 1.45889243,6.27958048 0.919736535,6.27958048 L0.111002685,6.27958048 Z"></path>
            </g>
        </g>
        <path d="M276.22224,171.092955 C276.22224,171.37706 276.289528,171.646212 276.424104,171.900411 C276.55868,172.15461 276.700732,172.34152 276.850261,172.461144 L277.052124,172.640578 C276.917549,172.745248 276.588585,172.797583 276.065235,172.797583 C274.883957,172.797583 273.956879,172.326568 273.283999,171.384536 C272.92513,170.83128 272.61112,170.023824 272.341968,168.96217 C272.072816,167.900516 271.930764,167.093061 271.915811,166.539804 C271.915811,165.358527 272.618596,164.767888 274.024167,164.767888 C275.938135,164.767888 277.381088,165.231427 278.353025,166.158506 C278.577318,166.382799 278.749276,166.472516 278.868899,166.427657 C278.958616,166.382799 279.085716,166.270652 279.250197,166.091218 C279.414679,165.911783 279.504396,165.769731 279.519349,165.665061 C279.519349,165.605249 279.467014,165.508056 279.362344,165.37348 C279.257674,165.238904 279.070763,165.066946 278.801611,164.857605 C278.532459,164.648265 278.19602,164.453878 277.792292,164.274443 C277.388564,164.095009 276.850261,163.94548 276.177381,163.825857 C275.504502,163.706234 274.749381,163.638946 273.91202,163.623993 C272.940083,163.623993 272.110198,163.751092 271.422366,164.005291 C270.734534,164.25949 270.226136,164.59593 269.897173,165.014611 C269.568209,165.433291 269.33644,165.844495 269.201864,166.248223 C269.067288,166.651951 269,167.085584 269,167.549123 C269,169.238798 269.665403,170.719133 270.996209,171.990128 C272.327015,173.261122 273.994261,173.904096 275.997947,173.919049 C276.566156,173.919049 276.895119,173.911573 276.984837,173.89662 C277.762386,173.776997 278.338072,173.522798 278.711894,173.134023 C279.085716,172.745248 279.280103,172.311615 279.295056,171.833123 C279.310009,171.354631 279.145527,170.93595 278.801611,170.577081 C278.457695,170.218212 278.039014,170.008872 277.545569,169.94906 L277.455852,169.94906 C277.096983,169.94906 276.805402,170.05373 276.581109,170.263071 C276.356816,170.472411 276.237193,170.749039 276.22224,171.092955 Z" id="MJMATHBI-63" fill="#DFDFDF" fill-rule="nonzero" transform="translate(274.259675, 168.771521) scale(-1, 1) rotate(-180.000000) translate(-274.259675, -168.771521) "></path>
        <path d="M276.513821,158.689543 C276.169905,158.689543 275.683936,158.861502 275.055915,159.205418 C274.427894,159.549334 273.956879,159.728768 273.642868,159.743721 C273.134471,159.743721 272.618596,159.482046 272.095246,158.958695 L271.826094,158.689543 L271.399937,159.070842 C271.340125,159.1157 271.272837,159.168036 271.198073,159.227847 C271.123309,159.287659 271.063497,159.34747 271.018638,159.407282 L270.97378,159.45214 C271.900858,160.498842 272.416732,161.074527 272.521403,161.179198 C273.0298,161.642737 273.515769,161.874506 273.979308,161.874506 C274.113884,161.874506 274.218554,161.86703 274.293319,161.852077 C274.56247,161.792265 274.981151,161.605355 275.54936,161.291344 C276.11757,160.977334 276.55868,160.820328 276.87269,160.820328 C277.381088,160.820328 277.896962,161.082004 278.420313,161.605355 L278.689465,161.874506 L279.115622,161.493208 C279.175433,161.448349 279.242721,161.396014 279.317485,161.336203 C279.39225,161.276391 279.452061,161.21658 279.49692,161.156768 L279.541779,161.11191 C278.6147,160.065208 278.098826,159.489522 277.994156,159.384852 C277.485758,158.921313 276.992313,158.689543 276.513821,158.689543 Z" id="MJMAINB-7E" fill="#DFDFDF" fill-rule="nonzero" transform="translate(275.257779, 160.282025) scale(-1, 1) rotate(-180.000000) translate(-275.257779, -160.282025) "></path>
        <path d="M282.155018,173.470037 C282.081016,173.544038 282.044015,173.596897 282.044015,173.628612 C282.044015,173.670899 282.059873,173.755472 282.091588,173.882332 C282.123303,174.009192 282.149732,174.083194 282.170876,174.104338 C282.192019,174.157196 282.239592,174.183625 282.313593,174.183625 C282.387595,174.183625 282.657173,174.188911 283.122327,174.199483 L283.962776,174.199483 L284.264069,175.468085 C284.295784,175.584373 284.332785,175.737663 284.375072,175.927953 C284.417359,176.118243 284.45436,176.255675 284.486075,176.340249 C284.51779,176.424822 284.549505,176.530539 284.58122,176.657399 C284.612935,176.78426 284.655222,176.874119 284.70808,176.926977 C284.760938,176.979836 284.813797,177.043266 284.866655,177.117268 C284.919514,177.191269 284.993515,177.238842 285.088661,177.259985 C285.183806,177.281129 285.278951,177.2917 285.374096,177.2917 C285.564386,177.281129 285.696532,177.222984 285.770534,177.117268 C285.844536,177.011551 285.881537,176.91112 285.881537,176.815975 C285.881537,176.741973 285.833964,176.493538 285.738819,176.070671 C285.643674,175.647804 285.537957,175.230222 285.421669,174.817926 L285.263093,174.231198 C285.263093,174.210054 285.527385,174.199483 286.05597,174.199483 L286.864704,174.199483 C286.938705,174.125481 286.975706,174.067337 286.975706,174.02505 C286.975706,173.792473 286.90699,173.607468 286.769558,173.470037 L285.072803,173.470037 L284.501932,171.170695 C284.089636,169.479226 283.883489,168.570061 283.883489,168.443201 C283.883489,167.99919 284.026206,167.777185 284.311642,167.777185 C284.681651,167.777185 285.041088,167.956903 285.389954,168.31634 C285.738819,168.675778 286.018969,169.119788 286.230402,169.648373 C286.251546,169.711803 286.277975,169.748804 286.30969,169.759375 C286.341405,169.769947 286.420693,169.780519 286.547553,169.79109 L286.610983,169.79109 C286.769558,169.79109 286.848846,169.748804 286.848846,169.66423 C286.848846,169.632515 286.832988,169.569085 286.801273,169.47394 C286.748415,169.304793 286.65327,169.103931 286.515838,168.871354 C286.378406,168.638777 286.198687,168.390342 285.976682,168.12605 C285.754677,167.861758 285.485099,167.639753 285.167948,167.460034 C284.850798,167.280315 284.528361,167.190456 284.200639,167.190456 C283.883489,167.190456 283.582196,167.269744 283.29676,167.428319 C283.011325,167.586894 282.805177,167.861758 282.678317,168.25291 C282.657173,168.337484 282.646601,168.480202 282.646601,168.681064 L282.646601,168.966499 L283.201615,171.186553 C283.571624,172.67716 283.761914,173.42775 283.772486,173.438322 C283.772486,173.459465 283.502908,173.470037 282.963752,173.470037 L282.155018,173.470037 Z" id="MJMATHI-74" fill="#DFDFDF" fill-rule="nonzero" transform="translate(284.509861, 172.241078) scale(-1, 1) rotate(-180.000000) translate(-284.509861, -172.241078) "></path>
        <g id="Group-2" transform="translate(174.000000, 86.000000)" fill="#FFFFFF" stroke="#DFDFDF" stroke-width="2">
            <circle id="Oval-11" cx="9.5" cy="9.5" r="9.5"></circle>
            <circle id="Oval-11-Copy" cx="9.5" cy="9.5" r="3.5"></circle>
        </g>
        <g id="Group-2" transform="translate(285.000000, 124.000000)" fill="#FFFFFF" stroke="#DFDFDF" stroke-width="2">
            <circle id="Oval-11" cx="9.5" cy="9.5" r="9.5"></circle>
            <circle id="Oval-11-Copy" cx="9.5" cy="9.5" r="3.5"></circle>
        </g>
        <g id="Group-8" transform="translate(394.200012, 143.000000)" fill="#CEEFEA" stroke="#00A88F" stroke-width="2">
            <circle id="Oval-11" cx="9.5" cy="9.5" r="9.5"></circle>
            <circle id="Oval-11-Copy" cx="9.5" cy="9.5" r="3.5"></circle>
        </g>
    </g>
</svg>