<?xml version="1.0" encoding="UTF-8"?>
<svg width="347px" height="202px" viewBox="0 0 347 202" version="1.1" xmlns="http://www.w3.org/2000/svg" xmlns:xlink="http://www.w3.org/1999/xlink">
    <!-- Generator: Sketch 49.2 (51160) - http://www.bohemiancoding.com/sketch -->
    <title>rnn_computation_example</title>
    <desc>Created with Sketch.</desc>
    <defs></defs>
    <g id="rnn_computation_example" stroke="none" stroke-width="1" fill="none" fill-rule="evenodd">
        <path d="M201,149.65157 L201,98.4780113" id="Path-2-Copy-3" stroke="#979797" stroke-width="3"></path>
        <path id="Path-2-Copy-3-decoration-1" d="M204,109.278011 L201,98.4780113 L198,109.278011" stroke="#979797" stroke-width="3"></path>
        <path d="M244,47 L311.516665,47" id="Path-2-Copy-9" stroke="#979797" stroke-width="3"></path>
        <path id="Path-2-Copy-9-decoration-1" d="M300.716665,50 L311.516665,47 L300.716665,44" stroke="#979797" stroke-width="3"></path>
        <path d="M67.4985122,47 L151.516665,47" id="Path-2-Copy-11" stroke="#979797" stroke-width="3"></path>
        <path id="Path-2-Copy-11-decoration-1" d="M140.716665,50 L151.516665,47 L140.716665,44" stroke="#979797" stroke-width="3"></path>
        <circle id="Oval-Copy-2" stroke="#979797" stroke-width="4" fill="#CEEFEA" cx="202" cy="170" r="20"></circle>
        <g id="Group-2-Copy" transform="translate(161.000000, 13.000000)">
            <g id="Group-4">
                <circle id="Oval-4" stroke="#979797" stroke-width="4" fill="#D8D8D8" cx="39" cy="33" r="33"></circle>
                <text id="RNN-Cell" font-family="Helvetica-Bold, Helvetica" font-size="16" font-weight="bold" fill="#000000">
                    <tspan x="22.1679688" y="29">RNN</tspan>
                    <tspan x="27.5791016" y="48" font-size="13">Cell</tspan>
                </text>
            </g>
        </g>
        <g id="Group" transform="translate(198.000000, 168.500000) scale(-1, 1) rotate(-180.000000) translate(-198.000000, -168.500000) translate(191.000000, 163.000000)" fill="#000000" fill-rule="nonzero">
            <path d="M0.78057554,6.94360087 L0.503597122,6.94360087 C0.167865707,6.94360087 0,7.054953 0,7.27765727 C0,7.30947216 0.0167865707,7.39696312 0.0503597122,7.54013015 C0.0839328537,7.68329718 0.176258993,7.88214027 0.327338129,8.13665944 C0.478417266,8.3911786 0.646282974,8.65365148 0.830935252,8.92407809 C1.01558753,9.1945047 1.30095923,9.48083876 1.68705036,9.78308026 C2.07314149,10.0853218 2.48441247,10.3398409 2.92086331,10.5466377 C3.60911271,10.8329718 4.23021583,10.9761388 4.78417266,10.9761388 L4.85971223,10.9761388 C5.48081535,10.9761388 5.86690647,10.9681851 6.01798561,10.9522777 C7.29376499,10.7454808 8.13309353,10.3477946 8.53597122,9.75921909 L8.78776978,9.9978308 C9.49280576,10.6659436 10.2565947,11 11.0791367,11 C12.0023981,11 12.7158273,10.7534346 13.2194245,10.2603037 C13.7230216,9.76717281 13.9832134,9.17064353 14,8.47071584 C14,7.78669559 13.7817746,7.26174982 13.3453237,6.89587852 C12.9088729,6.53000723 12.4388489,6.33911786 11.9352518,6.32321041 C11.5491607,6.32321041 11.2218225,6.43456255 10.9532374,6.65726681 C10.6846523,6.87997108 10.5503597,7.18221258 10.5503597,7.56399132 C10.5503597,8.12075199 10.7685851,8.59002169 11.205036,8.97180043 C11.4232614,9.13087491 11.6918465,9.27404194 12.0107914,9.40130152 C12.0107914,9.41720897 11.9772182,9.44902386 11.9100719,9.4967462 C11.8429257,9.54446855 11.7254197,9.60014461 11.557554,9.6637744 C11.3896882,9.72740419 11.205036,9.75921909 11.0035971,9.75921909 C10.8021583,9.75921909 10.6510791,9.74331164 10.5503597,9.71149675 C9.99640288,9.47288503 9.60191847,9.01952278 9.36690647,8.35140998 C8.34292566,4.77223427 7.83093525,2.69631236 7.83093525,2.12364425 C7.83093525,1.55097614 8.25899281,1.26464208 9.11510791,1.26464208 C9.85371703,1.26464208 10.5251799,1.5032538 11.1294964,1.98047722 C11.7338129,2.45770065 12.1534772,2.99855387 12.3884892,3.60303688 C12.4556355,3.82574114 12.5143885,3.96095445 12.5647482,4.00867679 C12.6151079,4.05639913 12.7829736,4.0802603 13.0683453,4.0802603 L13.2194245,4.0802603 L13.4964029,4.0802603 C13.8321343,4.0802603 14,3.96890817 14,3.7462039 C14,3.53940709 13.8908873,3.24511931 13.6726619,2.86334056 C13.4544365,2.48156182 13.1522782,2.07592191 12.7661871,1.64642082 C12.3800959,1.21691974 11.8345324,0.835140998 11.1294964,0.501084599 C10.4244604,0.1670282 9.68585132,0.00795372379 8.91366906,0.0238611714 C7.50359712,0.0238611714 6.40407674,0.365871294 5.61510791,1.04989154 L5.41366906,1.26464208 C4.69184652,0.453362256 3.87769784,0.0477223427 2.97122302,0.0477223427 L2.84532374,0.0477223427 C1.88848921,0.0477223427 1.17505995,0.302241504 0.705035971,0.811279826 C0.23501199,1.32031815 0,1.87707881 0,2.48156182 C0,3.24511931 0.226618705,3.80187997 0.679856115,4.15184382 C1.13309353,4.50180766 1.59472422,4.68474331 2.0647482,4.70065076 C2.45083933,4.70065076 2.77817746,4.58929863 3.04676259,4.36659436 C3.31534772,4.14389009 3.44964029,3.84164859 3.44964029,3.45986985 C3.44964029,2.90310918 3.23141487,2.43383948 2.79496403,2.05206074 C2.57673861,1.89298626 2.30815348,1.74981923 1.98920863,1.62255965 C2.02278177,1.54302242 2.14028777,1.46348518 2.34172662,1.38394794 C2.54316547,1.3044107 2.7529976,1.25668836 2.97122302,1.24078091 C3.34052758,1.24078091 3.66786571,1.38394794 3.95323741,1.670282 C4.23860911,1.95661605 4.45683453,2.29067245 4.60791367,2.67245119 C5.63189448,6.2516269 6.14388489,8.32754881 6.14388489,8.90021692 C6.14388489,9.47288503 5.71582734,9.75921909 4.85971223,9.75921909 C4.25539568,9.75921909 3.65107914,9.57628344 3.04676259,9.21041215 C2.44244604,8.84454085 1.96402878,8.24801157 1.61151079,7.4208243 C1.54436451,7.19812003 1.48561151,7.06290672 1.4352518,7.01518438 C1.38489209,6.96746204 1.21702638,6.94360087 0.931654676,6.94360087 L0.78057554,6.94360087 Z" id="MJMATHBI-78"></path>
        </g>
        <g id="Group" transform="translate(210.000000, 172.500000) scale(-1, 1) rotate(-180.000000) translate(-210.000000, -172.500000) translate(207.000000, 167.000000)" fill="#000000" fill-rule="nonzero">
            <path d="M0.135048232,6.83830455 C0.0450160772,6.91889063 0,6.97645212 0,7.01098901 C0,7.0570382 0.0192926045,7.14913658 0.0578778135,7.28728414 C0.0964630225,7.42543171 0.128617363,7.50601779 0.154340836,7.52904239 C0.180064309,7.58660387 0.237942122,7.61538462 0.327974277,7.61538462 C0.418006431,7.61538462 0.745980707,7.62114076 1.31189711,7.63265306 L2.33440514,7.63265306 L2.70096463,9.01412873 C2.73954984,9.140764 2.78456592,9.30769231 2.83601286,9.51491366 C2.88745981,9.72213501 2.93247588,9.87179487 2.97106109,9.96389325 C3.0096463,10.0559916 3.04823151,10.1711146 3.08681672,10.3092622 C3.12540193,10.4474097 3.17684887,10.5452643 3.24115756,10.6028257 C3.30546624,10.6603872 3.36977492,10.729461 3.4340836,10.8100471 C3.49839228,10.8906332 3.58842444,10.9424385 3.70418006,10.9654631 C3.81993569,10.9884877 3.93569132,11 4.05144695,11 C4.2829582,10.9884877 4.4437299,10.9251701 4.53376206,10.8100471 C4.62379421,10.6949241 4.66881029,10.5855573 4.66881029,10.4819466 C4.66881029,10.4013605 4.61093248,10.1308216 4.49517685,9.67032967 C4.37942122,9.20983778 4.25080386,8.75510204 4.10932476,8.30612245 L3.91639871,7.66718995 C3.91639871,7.64416536 4.23794212,7.63265306 4.88102894,7.63265306 L5.86495177,7.63265306 C5.95498392,7.55206698 6,7.48874935 6,7.44270016 C6,7.18942962 5.91639871,6.98796442 5.74919614,6.83830455 L3.68488746,6.83830455 L2.9903537,4.33437991 C2.48874598,2.49241235 2.23794212,1.50235479 2.23794212,1.36420722 C2.23794212,0.880690738 2.41157556,0.638932496 2.75884244,0.638932496 C3.20900322,0.638932496 3.64630225,0.834641549 4.07073955,1.22605965 C4.49517685,1.61747776 4.83601286,2.10099424 5.09324759,2.67660911 C5.11897106,2.74568289 5.1511254,2.78597593 5.18971061,2.79748823 C5.22829582,2.80900052 5.32475884,2.82051282 5.47909968,2.83202512 L5.5562701,2.83202512 C5.74919614,2.83202512 5.84565916,2.78597593 5.84565916,2.69387755 C5.84565916,2.65934066 5.82636656,2.59026688 5.78778135,2.4866562 C5.72347267,2.30245945 5.60771704,2.0837258 5.44051447,1.83045526 C5.2733119,1.57718472 5.05466238,1.30664574 4.78456592,1.0188383 C4.51446945,0.731030874 4.18649518,0.489272632 3.80064309,0.293563579 C3.414791,0.0978545264 3.02250804,0 2.62379421,0 C2.23794212,0 1.87138264,0.0863422292 1.52411576,0.259026688 C1.17684887,0.431711146 0.926045016,0.731030874 0.77170418,1.15698587 C0.745980707,1.24908425 0.733118971,1.40450026 0.733118971,1.62323391 L0.733118971,1.93406593 L1.40836013,4.35164835 C1.8585209,5.97488226 2.09003215,6.79225536 2.10289389,6.80376766 C2.10289389,6.82679226 1.77491961,6.83830455 1.11897106,6.83830455 L0.135048232,6.83830455 Z" id="MJMATHI-74"></path>
        </g>
        <g id="Group" transform="translate(274.500000, 33.500000) scale(-1, 1) rotate(-180.000000) translate(-274.500000, -33.500000) translate(265.000000, 26.000000)" fill="#000000" fill-rule="nonzero">
            <g transform="translate(0.000000, 3.700980)" id="MJMATHBI-72">
                <path d="M0,7.45098039 C0,7.48366013 0.0342805593,7.62254902 0.102841678,7.86764706 C0.171402797,8.1127451 0.291384754,8.43137255 0.462787551,8.82352941 C0.634190347,9.21568627 0.848443843,9.59150327 1.10554804,9.95098039 C1.36265223,10.3104575 1.67974741,10.620915 2.05683356,10.8823529 C2.43391971,11.1437908 2.8624267,11.2745098 3.34235453,11.2745098 C4.09652684,11.2745098 4.74785747,11.1519608 5.29634641,10.9068627 C5.84483536,10.6617647 6.21335138,10.3921569 6.40189445,10.0980392 L6.63328823,10.2696078 C7.52458277,10.9395425 8.47586829,11.2745098 9.48714479,11.2745098 C10.3098782,11.2745098 10.969779,11.0375817 11.4668471,10.5637255 C11.9639152,10.0898693 12.2210194,9.49346405 12.2381597,8.7745098 C12.2381597,7.97385621 12.0067659,7.39379085 11.5439783,7.03431373 C11.0811908,6.6748366 10.6098331,6.4869281 10.1299053,6.47058824 C9.73567885,6.47058824 9.40144339,6.58496732 9.12719892,6.81372549 C8.85295444,7.04248366 8.71583221,7.35294118 8.71583221,7.74509804 C8.71583221,8.69281046 9.23861074,9.33006536 10.2841678,9.65686275 C10.2841678,9.68954248 10.2498872,9.73039216 10.1813261,9.77941176 C10.112765,9.82843137 9.9842129,9.88562092 9.79566982,9.95098039 C9.60712675,10.0163399 9.43572395,10.0408497 9.28146143,10.0245098 C8.90437528,10.0245098 8.54442941,9.93464052 8.20162382,9.75490196 C7.82453766,9.59150327 7.36175011,9.19117647 6.81326116,8.55392157 L5.86197564,4.90196078 C5.21064502,2.45098039 4.86783942,1.20098039 4.83355886,1.15196078 C4.45647271,0.383986928 3.85656292,0 3.0338295,0 C2.60532251,0 2.27108705,0.12254902 2.03112314,0.367647059 C1.79115922,0.612745098 1.67117727,0.874183007 1.67117727,1.15196078 C1.67117727,1.36437908 1.99684258,2.69607843 2.64817321,5.14705882 C3.29950383,7.59803922 3.62516915,8.9624183 3.62516915,9.24019608 C3.62516915,9.77941176 3.47947677,10.0490196 3.18809202,10.0490196 C3.0338295,10.0490196 2.8624267,9.9754902 2.67388363,9.82843137 C2.48534055,9.68137255 2.33107803,9.48529412 2.21109608,9.24019608 C2.03969328,8.89705882 1.86829048,8.41503268 1.69688769,7.79411765 C1.61118629,7.45098039 1.54262517,7.25490196 1.49120433,7.20588235 C1.43978349,7.15686275 1.25124041,7.12418301 0.925575101,7.10784314 L0.797023004,7.10784314 L0.51420839,7.10784314 C0.171402797,7.10784314 0,7.22222222 0,7.45098039 Z"></path>
            </g>
            <g transform="translate(13.324913, 0.015490)" id="MJMATHI-74">
                <path d="M0.127240866,6.86205882 C0.042413622,6.94292484 0,7.00068627 0,7.03534314 C0,7.08155229 0.0181772666,7.17397059 0.0545317997,7.31259804 C0.0908863329,7.45122549 0.121181777,7.5320915 0.145418133,7.55519608 C0.169654488,7.61295752 0.224186288,7.64183824 0.309013532,7.64183824 C0.393840776,7.64183824 0.702854308,7.64761438 1.23605413,7.65916667 L2.19944926,7.65916667 L2.54481732,9.04544118 C2.58117185,9.17251634 2.62358548,9.34002451 2.67205819,9.54796569 C2.7205309,9.75590686 2.76294452,9.9060866 2.79929905,9.9985049 C2.83565359,10.0909232 2.87200812,10.2064461 2.90836265,10.3450735 C2.94471719,10.483701 2.9931899,10.5818954 3.05378078,10.6396569 C3.11437167,10.6974183 3.17496256,10.766732 3.23555345,10.847598 C3.29614434,10.9284641 3.38097158,10.9804493 3.49003518,11.0035539 C3.59909878,11.0266585 3.70816238,11.0382108 3.81722598,11.0382108 C4.03535318,11.0266585 4.1868304,10.9631209 4.27165765,10.847598 C4.35648489,10.7320752 4.39889851,10.6223284 4.39889851,10.5183578 C4.39889851,10.4374918 4.34436671,10.1660131 4.23530311,9.70392157 C4.12623951,9.24183007 4.00505774,8.78551471 3.87175778,8.33497549 L3.68998512,7.69382353 C3.68998512,7.67071895 3.99293956,7.65916667 4.59884844,7.65916667 L5.52588904,7.65916667 C5.61071628,7.57830065 5.65312991,7.51476307 5.65312991,7.46855392 C5.65312991,7.21440359 5.57436175,7.01223856 5.41682544,6.86205882 L3.47185792,6.86205882 L2.81747632,4.34943627 C2.34486739,2.50107026 2.10856292,1.50757353 2.10856292,1.36894608 C2.10856292,0.88375 2.27215832,0.641151961 2.59934912,0.641151961 C3.02348534,0.641151961 3.43550338,0.83754085 3.83540325,1.23031863 C4.23530311,1.62309641 4.55643482,2.10829248 4.79879838,2.68590686 C4.82303473,2.75522059 4.85333018,2.79565359 4.88968471,2.80720588 C4.92603924,2.81875817 5.01692558,2.83031046 5.16234371,2.84186275 L5.23505277,2.84186275 C5.41682544,2.84186275 5.50771177,2.79565359 5.50771177,2.70323529 C5.50771177,2.66857843 5.48953451,2.59926471 5.45317997,2.49529412 C5.39258908,2.31045752 5.28352548,2.09096405 5.12598917,1.83681373 C4.96845286,1.5826634 4.76244384,1.31118464 4.50796211,1.02237745 C4.25348038,0.733570261 3.94446685,0.490972222 3.58092152,0.294583333 C3.21737618,0.0981944444 2.84777176,0 2.47210825,0 C2.10856292,0 1.76319486,0.0866421569 1.43600406,0.259926471 C1.10881326,0.433210784 0.872508796,0.733570261 0.727090663,1.1610049 C0.702854308,1.2534232 0.69073613,1.40937908 0.69073613,1.62887255 L0.69073613,1.94078431 L1.32694046,4.36676471 C1.75107668,5.99563725 1.96920388,6.81584967 1.98132206,6.82740196 C1.98132206,6.85050654 1.67230853,6.86205882 1.05428146,6.86205882 L0.127240866,6.86205882 Z"></path>
            </g>
        </g>
        <g id="Group" transform="translate(238.500000, 119.500000) scale(-1, 1) rotate(-180.000000) translate(-238.500000, -119.500000) translate(218.000000, 108.000000)" fill="#000000" fill-rule="nonzero">
            <g id="MJMATHI-57">
                <path d="M9.81654229,17.8776185 C10.0545191,17.8776185 10.4794776,17.8691657 11.0914179,17.8522602 C11.7033582,17.8353546 12.2728027,17.8184491 12.7997512,17.8015436 C13.6666667,17.8015436 14.3890962,17.8099963 14.9670398,17.8269019 C15.5449834,17.8438074 15.8764511,17.8522602 15.9614428,17.8522602 C16.2674129,17.8522602 16.420398,17.784638 16.420398,17.6493936 C16.420398,17.5817714 16.3949005,17.4549798 16.3439055,17.2690187 C16.2589138,16.9647189 16.1824212,16.7956634 16.1144279,16.7618523 C16.0464345,16.7280412 15.8594527,16.7111356 15.5534826,16.7111356 C15.128524,16.6942301 14.7885572,16.6519662 14.5335821,16.584344 C14.278607,16.5167218 14.1001244,16.4490996 13.9981343,16.3814774 C13.8961443,16.3138552 13.8706468,16.2377802 13.9216418,16.1532525 C13.9216418,15.9503859 14.0576285,13.9386255 14.329602,10.1179713 C14.6015755,6.29731716 14.7375622,4.27710401 14.7375622,4.05733186 L14.7885572,4.13340684 C14.8225539,4.18412348 14.8735489,4.26865123 14.9415423,4.38699008 C15.0095357,4.50532892 15.1115257,4.66593164 15.2475124,4.86879824 C15.3834992,5.07166483 15.5279851,5.32524807 15.6809701,5.62954796 C15.8339552,5.93384785 16.0379353,6.28041161 16.2929104,6.66923925 C16.5478856,7.05806689 16.8028607,7.51451672 17.0578358,8.03858875 C17.3128109,8.56266079 17.6442786,9.12899669 18.0522388,9.73759647 C19.8200663,12.8482176 20.8229685,14.6233003 21.0609453,15.0628445 C21.2989221,15.5023888 21.4264096,15.7728776 21.443408,15.8743109 C21.443408,16.1278942 21.2819237,16.3307607 20.9589552,16.4829107 C20.6359867,16.6350606 20.2790216,16.7111356 19.8880597,16.7111356 C19.6500829,16.7111356 19.5310945,16.7956634 19.5310945,16.9647189 C19.5310945,17.0154355 19.5480929,17.1253216 19.5820896,17.2943771 C19.6500829,17.5648659 19.7010779,17.7254686 19.7350746,17.7761852 C19.7690713,17.8269019 19.8880597,17.8522602 20.0920398,17.8522602 C20.1430348,17.8522602 20.2875207,17.8522602 20.5254975,17.8522602 C20.7634743,17.8522602 21.094942,17.8522602 21.5199005,17.8522602 C21.944859,17.8522602 22.4038143,17.8438074 22.8967662,17.8269019 C24.0186567,17.8269019 24.7410862,17.8438074 25.0640547,17.8776185 C25.3020315,17.8776185 25.4210199,17.784638 25.4210199,17.598677 C25.4210199,17.4972437 25.3955224,17.3535465 25.3445274,17.1675854 C25.2935323,16.9816244 25.2340381,16.8548328 25.1660448,16.7872106 C25.0980514,16.7195884 25.0130597,16.6942301 24.9110697,16.7111356 C24.5371061,16.7111356 24.1971393,16.660419 23.8911692,16.5589857 C23.585199,16.4575524 23.3302239,16.3392135 23.1262438,16.2039691 C22.9222637,16.0687247 22.7607794,15.9250276 22.641791,15.7728776 C22.5228027,15.6207277 22.4208126,15.4854833 22.3358209,15.3671444 L22.2338308,15.2149945 L17.9247512,7.70893054 C15.0690299,2.70488791 13.63267,0.194413818 13.6156716,0.177508269 C13.5136816,0.059169423 13.3097015,0 13.0037313,0 C12.7487562,0 12.587272,0.0422638736 12.5192786,0.126791621 C12.4682836,0.177508269 12.3067993,2.25689085 12.0348259,6.36493936 C11.7628524,10.4729879 11.6183665,12.5946343 11.6013682,12.7298787 L11.295398,12.2734289 C10.9214345,11.6479236 9.83354063,9.7629548 8.03171642,6.6185226 C5.58395522,2.35832415 4.34307629,0.211319368 4.3090796,0.177508269 C4.27508292,0.14369717 4.23258706,0.109886071 4.18159204,0.0760749724 C4.09660033,0.0253583241 3.94361526,0 3.72263682,0 C3.39966833,0 3.22118574,0.059169423 3.18718905,0.177508269 C3.18718905,0.228224917 3.0002073,2.92466005 2.62624378,8.26681367 C2.25228027,13.6089673 2.05679934,16.2969497 2.039801,16.3307607 C2.00580431,16.4829107 1.9208126,16.5758912 1.78482587,16.6097023 C1.64883914,16.6435134 1.31737148,16.6773245 0.790422886,16.7111356 L0.178482587,16.7111356 C0.0594941957,16.8294745 0,16.922455 0,16.9900772 C0.0169983416,17.3789048 0.127487562,17.6747519 0.331467662,17.8776185 L0.637437811,17.8776185 C1.35136816,17.8269019 2.20128524,17.8015436 3.18718905,17.8015436 C5.31198176,17.8015436 6.47636816,17.8269019 6.68034826,17.8776185 L6.93532338,17.8776185 C7.03731343,17.7761852 7.08830846,17.7001103 7.08830846,17.6493936 C7.08830846,17.598677 7.07131012,17.446527 7.03731343,17.1929438 C6.95232172,16.9393605 6.87582919,16.7787578 6.80783582,16.7111356 L6.27238806,16.7111356 C5.23548922,16.660419 4.68304312,16.5167218 4.61504975,16.2800441 C5.125,8.50349136 5.41397181,4.4123484 5.48196517,4.00661521 L11.4738806,14.5049614 L11.4228856,15.4432194 C11.3718905,16.1532525 11.2868988,16.5336273 11.1679104,16.584344 C11.0659204,16.6519662 10.7089552,16.6942301 10.0970149,16.7111356 C9.77404643,16.7111356 9.56156716,16.7280412 9.45957711,16.7618523 C9.35758706,16.7956634 9.30659204,16.8717383 9.30659204,16.9900772 C9.30659204,17.0238883 9.32359038,17.1253216 9.35758706,17.2943771 C9.37458541,17.3619993 9.39158375,17.4380742 9.40858209,17.522602 C9.42558043,17.6071297 9.4340796,17.6662992 9.4340796,17.7001103 C9.4340796,17.7339214 9.45957711,17.7677325 9.51057214,17.8015436 C9.56156716,17.8353546 9.59556385,17.8522602 9.61256219,17.8522602 C9.62956053,17.8522602 9.6975539,17.860713 9.81654229,17.8776185 Z"></path>
            </g>
            <g transform="translate(26.670398, 11.005513)">
                <g transform="translate(0.009740, 0.000000)" id="MJMAIN-69">
                    <path d="M0.775149876,10.9183561 C0.775149876,11.2530184 0.883310323,11.5159673 1.09963122,11.7072029 C1.31595211,11.8984384 1.58034432,11.9940562 1.89280784,11.9940562 C2.16921787,11.9701518 2.40957442,11.8685579 2.61387749,11.6892745 C2.81818056,11.5099912 2.92033209,11.2530184 2.92033209,10.9183561 C2.92033209,10.5597894 2.81818056,10.2908644 2.61387749,10.111581 C2.40957442,9.93229768 2.15720004,9.84265601 1.85675435,9.84265601 C1.55630867,9.84265601 1.30393429,9.93229768 1.09963122,10.111581 C0.895328151,10.2908644 0.787167703,10.5597894 0.775149876,10.9183561 Z M3.98390983,0 C3.80364241,0.0358566703 3.17871538,0.0537850055 2.10912873,0.0537850055 C1.97693263,0.0537850055 1.75460282,0.0537850055 1.4421393,0.0537850055 C1.12967579,0.0537850055 0.8292301,0.0418327821 0.540802239,0.0179283352 L0.14421393,0 L0,0 L0,0.824703418 L0.288427861,0.824703418 C0.624927032,0.824703418 0.919363806,0.842631753 1.17173818,0.878488423 C1.27989863,0.926297317 1.34599668,0.992034546 1.37003234,1.07570011 C1.39406799,1.15936567 1.40608582,1.41036237 1.40608582,1.82869019 L1.40608582,3.67530871 L1.40608582,5.25300221 C1.40608582,5.87451782 1.39406799,6.2689412 1.37003234,6.43627233 C1.34599668,6.60360345 1.26187189,6.71714958 1.11765796,6.77691069 C0.949408375,6.86057626 0.666989428,6.90240904 0.270401119,6.90240904 L0.0721069652,6.90240904 L0.0721069652,7.31476075 C0.0721069652,7.58966189 0.0841247927,7.72711246 0.108160448,7.72711246 L0.288427861,7.74504079 C0.408606136,7.75699302 0.576855721,7.76894524 0.793176617,7.78089746 C1.00949751,7.79284969 1.22581841,7.80480191 1.4421393,7.81675413 C1.64644237,7.82870636 1.86276327,7.84065858 2.09110199,7.8526108 C2.31944071,7.86456303 2.49369921,7.88249136 2.61387749,7.90639581 C2.73405576,7.93030026 2.80015381,7.93627637 2.81217164,7.92432415 L2.86625187,7.92432415 L2.86625187,1.11155678 C2.926341,0.992034546 2.99844797,0.920321205 3.08257276,0.896416759 C3.16669755,0.872512312 3.37700954,0.848607865 3.71350871,0.824703418 L4.12812376,0.824703418 L4.12812376,0 L3.98390983,0 Z"></path>
                </g>
                <g transform="translate(5.003147, 0.000000)" id="MJMAIN-6E">
                    <path d="M0.288427861,0.824703418 L0.540802239,0.824703418 C1.00949751,0.824703418 1.29191646,0.908368982 1.38805908,1.07570011 L1.38805908,1.21912679 C1.38805908,1.3266968 1.38805908,1.46414737 1.38805908,1.6314785 C1.38805908,1.79880963 1.38805908,1.98406909 1.38805908,2.18725689 C1.38805908,2.39044469 1.39406799,2.62351305 1.40608582,2.88646196 C1.41810365,3.14941088 1.41810365,3.40040757 1.40608582,3.63945204 C1.40608582,4.00997097 1.40608582,4.40439434 1.40608582,4.82272216 C1.40608582,5.24104998 1.40007691,5.59364057 1.38805908,5.88049394 L1.38805908,6.29284564 C1.3520056,6.51993789 1.2678808,6.66934068 1.1356847,6.74105402 C1.0034886,6.81276736 0.733087479,6.86655237 0.324481343,6.90240904 L0,6.90240904 L0,7.31476075 C0,7.58966189 0.0120178275,7.72711246 0.0360534826,7.72711246 L0.216320896,7.74504079 C0.336499171,7.75699302 0.504748756,7.76894524 0.721069652,7.78089746 C0.937390547,7.79284969 1.15972036,7.80480191 1.38805908,7.81675413 C1.59236215,7.82870636 1.80868304,7.84065858 2.03702177,7.8526108 C2.26536049,7.86456303 2.43961899,7.88249136 2.55979726,7.90639581 C2.67997554,7.93030026 2.74607359,7.93627637 2.75809142,7.92432415 L2.81217164,7.92432415 L2.81217164,7.20719074 C2.81217164,6.75300625 2.81818056,6.525914 2.83019838,6.525914 C2.84221621,6.525914 2.87226078,6.55579456 2.92033209,6.61555568 C2.9684034,6.6753168 3.04051036,6.76495847 3.13665299,6.88448071 C3.23279561,7.00400294 3.34696497,7.11157295 3.47916107,7.20719074 C3.61135717,7.30280853 3.78561567,7.41635465 4.00193657,7.54782911 C4.21825746,7.67930356 4.44659619,7.77492135 4.68695274,7.83468247 C4.92730929,7.89444359 5.23376389,7.92432415 5.60631654,7.92432415 C6.97634888,7.87651525 7.73948093,7.20121463 7.89571269,5.89842227 C7.90773051,5.81475671 7.91373943,4.98407718 7.91373943,3.40638368 L7.91373943,1.86454686 C7.91373943,1.41036237 7.92575726,1.14143734 7.94979291,1.05777178 C7.97382857,0.974106211 8.03992662,0.914345094 8.14808706,0.878488423 C8.40046144,0.842631753 8.69489822,0.824703418 9.03139739,0.824703418 L9.31982525,0.824703418 L9.31982525,0 L9.17561132,0 L8.74296953,0.0179283352 C8.46655949,0.0298805586 8.16611381,0.0358566703 7.84163246,0.0358566703 C7.51715112,0.0358566703 7.2888124,0.0418327821 7.15661629,0.0537850055 C5.91878006,0.0537850055 5.24578172,0.0358566703 5.13762127,0 L4.99340734,0 L4.99340734,0.824703418 L5.2818352,0.824703418 C6.01492268,0.824703418 6.38146642,0.920321205 6.38146642,1.11155678 C6.39348425,1.13546123 6.39949316,1.96016465 6.39949316,3.58566703 C6.38747533,5.1992172 6.3754575,6.05380118 6.36343968,6.14941896 C6.29133271,6.48408122 6.17115444,6.73507791 6.00290485,6.90240904 C5.83465527,7.06974017 5.69044133,7.17133407 5.57026306,7.20719074 C5.45008478,7.24304741 5.29385303,7.25499963 5.10156779,7.24304741 C4.56076555,7.24304741 4.08606136,7.03985961 3.67745522,6.63348401 C3.35297388,6.31077398 3.14867081,5.98208784 3.06454602,5.64742558 C2.98042123,5.31276332 2.93234992,4.81674605 2.92033209,4.15937376 L2.92033209,3.01196031 L2.92033209,1.9362602 C2.92033209,1.5776935 2.926341,1.33864903 2.93835883,1.21912679 C2.95037666,1.09960456 2.9684034,1.0219151 2.99243905,0.986058434 C3.01647471,0.950201764 3.07055493,0.914345094 3.15467973,0.878488423 C3.4070541,0.842631753 3.70149088,0.824703418 4.03799005,0.824703418 L4.32641791,0.824703418 L4.32641791,0 L4.18220398,0 L3.76758893,0.0179283352 C3.47916107,0.0298805586 3.17270647,0.0358566703 2.84822512,0.0358566703 C2.52374378,0.0358566703 2.29540506,0.0418327821 2.16320896,0.0537850055 C0.92537272,0.0537850055 0.252374378,0.0358566703 0.14421393,0 L0,0 L0,0.824703418 L0.288427861,0.824703418 Z"></path>
                </g>
            </g>
        </g>
        <g id="Group-2" transform="translate(81.000000, 56.000000)" fill="#000000" fill-rule="nonzero">
            <g id="Group" transform="translate(14.000000, 13.000000) scale(-1, 1) rotate(-180.000000) translate(-14.000000, -13.000000) translate(0.000000, 3.000000)">
                <path d="M10.6554072,19.5118496 C10.9137201,19.5118496 11.3749932,19.5026242 12.0392264,19.4841732 C12.7034595,19.4657223 13.3215654,19.4472714 13.893544,19.4288205 C14.834541,19.4288205 15.6187052,19.4380459 16.2460365,19.4564969 C16.8733678,19.4749478 17.2331608,19.4841732 17.3254154,19.4841732 C17.657532,19.4841732 17.8235903,19.4103696 17.8235903,19.2627622 C17.8235903,19.1889585 17.7959139,19.0505766 17.7405612,18.8476165 C17.6483065,18.5154999 17.5652774,18.3309906 17.4914737,18.2940888 C17.41767,18.257187 17.2147099,18.238736 16.8825933,18.238736 C16.4213203,18.2202851 16.0523018,18.1741578 15.775538,18.1003541 C15.4987742,18.0265504 15.3050395,17.9527468 15.194334,17.8789431 C15.0836284,17.8051394 15.0559521,17.7221102 15.1113048,17.6298556 C15.1113048,17.4084446 15.2589122,15.2127849 15.5541269,11.0428766 C15.8493417,6.87296831 15.9969491,4.66808317 15.9969491,4.42822119 L16.0523018,4.51125034 C16.0892037,4.56660311 16.1445564,4.65885771 16.2183601,4.78801417 C16.2921638,4.91717062 16.4028693,5.09245437 16.5504767,5.31386543 C16.6980841,5.53527649 16.8549169,5.81204032 17.0209752,6.14415691 C17.1870335,6.47627349 17.4084446,6.85451739 17.6852084,7.27888859 C17.9619722,7.70325978 18.238736,8.20143467 18.5154999,8.77341324 C18.7922637,9.34539181 19.1520567,9.96349768 19.5948788,10.6277309 C21.5137746,14.0227004 22.602379,15.9600472 22.8606919,16.4397712 C23.1190048,16.9194951 23.2573867,17.2147099 23.2758376,17.3254154 C23.2758376,17.6021792 23.1005539,17.8235903 22.7499864,17.9896486 C22.3994189,18.1557069 22.0119495,18.238736 21.5875783,18.238736 C21.3292654,18.238736 21.200109,18.3309906 21.200109,18.5154999 C21.200109,18.5708526 21.2185599,18.6907836 21.2554617,18.8752928 C21.3292654,19.1705076 21.3846182,19.3457913 21.42152,19.4011441 C21.4584219,19.4564969 21.5875783,19.4841732 21.8089894,19.4841732 C21.8643421,19.4841732 22.021175,19.4841732 22.2794879,19.4841732 C22.5378008,19.4841732 22.8975938,19.4841732 23.3588668,19.4841732 C23.8201398,19.4841732 24.3183147,19.4749478 24.8533914,19.4564969 C26.0711523,19.4564969 26.8553164,19.4749478 27.205884,19.5118496 C27.4641969,19.5118496 27.5933533,19.4103696 27.5933533,19.2074094 C27.5933533,19.0967039 27.5656769,18.9398711 27.5103242,18.7369109 C27.4549714,18.5339508 27.3903932,18.3955689 27.3165895,18.3217652 C27.2427858,18.2479615 27.1505312,18.2202851 27.0398257,18.238736 C26.6339054,18.238736 26.264887,18.1833833 25.9327704,18.0726777 C25.6006538,17.9619722 25.3238899,17.8328158 25.1024789,17.6852084 C24.8810678,17.537601 24.7057841,17.3807682 24.5766276,17.2147099 C24.4474712,17.0486516 24.3367656,16.9010442 24.244511,16.7718878 L24.1338055,16.6058295 L19.4564969,8.41362027 C16.356742,2.95214746 14.7976392,0.212185599 14.7791882,0.193734677 C14.6684827,0.0645782257 14.4470716,0 14.1149551,0 C13.8381912,0 13.6629075,0.0461273041 13.5891038,0.138381912 C13.533751,0.193734677 13.3584673,2.46319804 13.0632525,6.946772 C12.7680378,11.430346 12.6112049,13.7459366 12.592754,13.893544 L12.2606374,13.3953691 C11.8547172,12.712685 10.6738582,10.6554072 8.71806047,7.22353582 C6.06112776,2.57390357 4.71421048,0.23063652 4.67730864,0.193734677 C4.64040679,0.156832834 4.59427949,0.119930991 4.53892672,0.0830291474 C4.44667211,0.0276763825 4.28061382,0 4.04075184,0 C3.69018433,0 3.49644965,0.0645782257 3.45954781,0.193734677 C3.45954781,0.249087442 3.25658767,3.19200944 2.85066739,9.02250068 C2.44474712,14.8529919 2.23256152,17.7866885 2.2141106,17.8235903 C2.17720875,17.9896486 2.08495415,18.0911287 1.93734677,18.1280305 C1.7897394,18.1649324 1.42994643,18.2018342 0.857967856,18.238736 L0.193734677,18.238736 C0.0645782257,18.3678925 0,18.4693726 0,18.5431762 C0.0184509216,18.9675474 0.138381912,19.2904386 0.359792972,19.5118496 L0.691909561,19.5118496 C1.46684827,19.4564969 2.38939435,19.4288205 3.45954781,19.4288205 C5.76591301,19.4288205 7.02980114,19.4564969 7.2512122,19.5118496 L7.52797603,19.5118496 C7.63868156,19.4011441 7.69403432,19.318115 7.69403432,19.2627622 C7.69403432,19.2074094 7.6755834,19.0413511 7.63868156,18.7645873 C7.54642695,18.4878235 7.4633978,18.3125397 7.38959412,18.238736 L6.80839008,18.238736 C5.68288386,18.1833833 5.08322891,18.0265504 5.00942522,17.7682375 C5.56295287,9.28081358 5.87661854,4.81569055 5.95042223,4.37286843 L12.4543721,15.8308908 L12.3990193,16.8549169 C12.3436666,17.6298556 12.251412,18.0450014 12.1222555,18.1003541 C12.01155,18.1741578 11.6240806,18.2202851 10.9598475,18.238736 C10.6092799,18.238736 10.3786434,18.257187 10.2679379,18.2940888 C10.1572324,18.3309906 10.1018796,18.4140198 10.1018796,18.5431762 C10.1018796,18.5800781 10.1203305,18.6907836 10.1572324,18.8752928 C10.1756833,18.9490965 10.1941342,19.0321257 10.2125851,19.1243803 C10.231036,19.2166349 10.2402615,19.2812131 10.2402615,19.318115 C10.2402615,19.3550168 10.2679379,19.3919186 10.3232907,19.4288205 C10.3786434,19.4657223 10.4155453,19.4841732 10.4339962,19.4841732 C10.4524471,19.4841732 10.5262508,19.4933987 10.6554072,19.5118496 Z" id="MJMATHI-57"></path>
            </g>
            <g id="Group" transform="translate(41.500000, 5.500000) scale(-1, 1) rotate(-180.000000) translate(-41.500000, -5.500000) translate(29.000000, 0.000000)">
                <g transform="translate(0.003875, 0.249087)" id="MJMAIN-72">
                    <path d="M0.313075238,0.90009131 L0.587016072,0.90009131 C1.09576333,0.90009131 1.40231617,0.991404921 1.50667458,1.17403214 L1.50667458,1.33056976 C1.50667458,1.44797298 1.50667458,1.5979882 1.50667458,1.78061542 C1.50667458,1.96324264 1.51319699,2.16543707 1.52624179,2.38719869 C1.53928659,2.60896032 1.53928659,2.86333395 1.52624179,3.15031959 C1.51319699,3.43730522 1.51319699,3.71124605 1.52624179,3.97214209 C1.52624179,4.37653094 1.52624179,4.80700939 1.52624179,5.26357744 C1.52624179,5.7201455 1.52624179,6.10496715 1.52624179,6.41804239 L1.50667458,6.86808804 C1.46754018,7.11593927 1.37622657,7.27899929 1.23273375,7.3572681 C1.08924093,7.43553691 0.795732897,7.49423852 0.352209643,7.53337292 L0,7.53337292 L0,7.98341858 C0,8.28344901 0.0130448016,8.43346423 0.0391344048,8.43346423 L0.234806429,8.45303144 C0.365254445,8.46607624 0.547881667,8.47912104 0.782688096,8.49216584 C1.01749452,8.50521064 1.25230095,8.51825544 1.48710738,8.53130025 C1.69582421,8.54434505 1.92410824,8.55738985 2.17195947,8.57043465 C2.4198107,8.58347945 2.60896032,8.60304665 2.73940834,8.62913626 C2.86985635,8.65522586 2.94160276,8.66174826 2.95464756,8.64870346 L3.01334917,8.64870346 L3.01334917,7.29856649 C3.52209643,8.185613 4.15476931,8.62913626 4.9113678,8.62913626 L5.02877102,8.62913626 C5.61578709,8.62913626 6.04626554,8.48564344 6.32020637,8.1986578 C6.59414721,7.91167217 6.73111762,7.61164173 6.73111762,7.29856649 C6.73111762,7.02462566 6.64632641,6.78981923 6.47674399,6.59414721 C6.30716157,6.39847518 6.05931034,6.30063917 5.7331903,6.30063917 C5.40707026,6.30063917 5.16574143,6.40499758 5.00920381,6.61371441 C4.85266619,6.82243124 4.76787498,7.04419286 4.75483018,7.27899929 C4.75483018,7.39640251 4.76787498,7.50076092 4.79396459,7.59207453 C4.82005419,7.68338814 4.85266619,7.76165695 4.8918006,7.82688096 C4.930935,7.89210497 4.95050221,7.92471697 4.95050221,7.92471697 C4.9244126,7.95080657 4.77439738,7.92471697 4.50045655,7.84644816 C4.29173973,7.74208975 4.13520211,7.64425374 4.03084369,7.55294013 C3.41773802,6.96592405 3.11118518,5.79841431 3.11118518,4.0504109 L3.11118518,3.01334917 C3.11118518,2.84376675 3.11118518,2.66766193 3.11118518,2.4850347 C3.11118518,2.30240748 3.11118518,2.13282506 3.11118518,1.97628744 C3.11118518,1.81974982 3.11770758,1.68930181 3.13075238,1.58494339 C3.14379719,1.48058498 3.14379719,1.38274897 3.13075238,1.29143536 L3.13075238,1.19359935 C3.14379719,1.16750974 3.16336439,1.14142014 3.18945399,1.11533054 C3.21554359,1.08924093 3.2481556,1.06967373 3.28729,1.05662893 C3.32642441,1.04358413 3.35903641,1.02401693 3.38512601,0.997927322 C3.41121562,0.971837719 3.45687242,0.958792917 3.52209643,0.958792917 C3.58732044,0.958792917 3.63297725,0.952270517 3.65906685,0.939225715 C3.68515645,0.926180913 3.74385806,0.919658513 3.83517167,0.919658513 C3.92648528,0.919658513 3.98518689,0.919658513 4.01127649,0.919658513 C4.03736609,0.919658513 4.1025901,0.913136112 4.20694852,0.90009131 C4.31130693,0.887046509 4.37653094,0.887046509 4.40262054,0.90009131 L5.00920381,0.90009131 L5.00920381,0 L4.83309899,0 C4.59829256,0.0391344048 3.76994766,0.0587016072 2.34806429,0.0587016072 C1.00444972,0.0587016072 0.273940834,0.0391344048 0.156537619,0 L0,0 L0,0.90009131 L0.313075238,0.90009131 Z"></path>
                </g>
                <g transform="translate(7.830756, 0.033848)" id="MJMAIN-65">
                    <path d="M0,4.48088935 C0,5.19835344 0.130448016,5.85059352 0.391344048,6.43760959 C0.65224008,7.02462566 0.97836012,7.50076092 1.36970417,7.86601536 C1.76104822,8.23126981 2.18500427,8.50521064 2.64157232,8.68783786 C3.09814038,8.87046509 3.52861883,8.9683011 3.93300768,8.9813459 C4.62438217,8.9813459 5.21792064,8.86394269 5.7136231,8.62913626 C6.20932556,8.39432983 6.58762481,8.06820979 6.84852084,7.65077614 C7.10941687,7.23334249 7.29204409,6.81590884 7.39640251,6.39847518 C7.50076092,5.98104153 7.55946253,5.51795108 7.57250733,5.00920381 C7.57250733,4.9178902 7.52685052,4.82657659 7.43553691,4.73526298 L1.91758583,4.73526298 L1.91758583,4.44175494 C1.91758583,2.51112431 2.56982591,1.33709216 3.87430607,0.919658513 C4.13520211,0.841389703 4.42218774,0.802255298 4.73526298,0.802255298 C5.28314465,0.802255298 5.7527575,1.01097212 6.14410155,1.42840577 C6.36586318,1.6501674 6.541968,1.92410824 6.67241602,2.25022828 L6.86808804,2.71984113 C6.90722245,2.75897554 7.01158086,2.77854274 7.18116328,2.77854274 L7.23986489,2.77854274 C7.46162651,2.77854274 7.57250733,2.71331873 7.57250733,2.58287072 C7.57250733,2.53069151 7.55294013,2.4459003 7.51380572,2.32849709 C7.26595449,1.611033 6.85504324,1.04358413 6.28107197,0.626150477 C5.7071007,0.208716826 5.06138302,0 4.34391893,0 C3.10466278,0 2.07412345,0.450045655 1.25230095,1.35013697 C0.430478453,2.25022828 0.0130448016,3.2938124 0,4.48088935 Z M5.96799673,5.59621989 C5.82450391,7.26595449 5.20487584,8.153001 4.1091125,8.25735941 L4.0699781,8.25735941 C3.96561969,8.25735941 3.86126127,8.25083701 3.75690286,8.23779221 C3.65254445,8.22474741 3.48948443,8.1725682 3.2677228,8.08125459 C3.04596117,7.98994098 2.85681155,7.85297056 2.70027393,7.67034334 C2.54373631,7.48771612 2.39372109,7.22029768 2.25022828,6.86808804 C2.10673546,6.5158784 2.00237705,6.08539995 1.93715304,5.57665268 L1.93715304,5.43968227 L5.96799673,5.43968227 L5.96799673,5.59621989 Z"></path>
                </g>
                <g transform="translate(16.655564, 0.014281)" id="MJMAIN-63">
                    <path d="M6.57458001,6.20280316 C6.57458001,6.20280316 6.43760959,6.20280316 6.16366876,6.20280316 C5.88972792,6.20280316 5.65492149,6.30063917 5.45924947,6.4963112 C5.26357744,6.69198322 5.15921903,6.93983445 5.14617423,7.23986489 C5.14617423,7.53989532 5.24401024,7.78774655 5.43968227,7.98341858 C5.50490627,8.04864259 5.53751828,8.08777699 5.53751828,8.10082179 C5.53751828,8.11386659 5.47229427,8.1269114 5.34184625,8.1399562 C5.00268141,8.1921354 4.68308377,8.21822501 4.38305334,8.21822501 C3.74385806,8.21822501 3.22206599,8.00950818 2.81767715,7.59207453 C2.20457147,6.97896885 1.89801863,5.95495193 1.89801863,4.52002375 C1.89801863,3.45035002 2.10021306,2.60896032 2.50460191,1.99585464 C3.03943877,1.20012175 3.75690286,0.802255298 4.65699417,0.802255298 C5.19183104,0.802255298 5.62230949,0.971837719 5.94842953,1.31100256 C6.27454957,1.6501674 6.509356,2.05455625 6.65284882,2.52416911 C6.67893842,2.62852752 6.71155042,2.69375153 6.75068483,2.71984113 C6.78981923,2.74593074 6.89417764,2.75897554 7.06376007,2.75897554 L7.3377009,2.75897554 C7.41596971,2.68070673 7.45510411,2.62200512 7.45510411,2.58287072 C7.45510411,2.53069151 7.42901451,2.4263331 7.3768353,2.26979548 C7.3246561,2.11325786 7.22029768,1.89801863 7.06376007,1.6240778 C6.90722245,1.35013697 6.71807282,1.10228574 6.4963112,0.880524108 C6.27454957,0.658762481 5.96147433,0.456568056 5.55708548,0.273940834 C5.15269663,0.0913136112 4.70265098,0.0065224008 4.20694852,0.0195672024 C3.08509558,0.0195672024 2.10673546,0.437000854 1.27186816,1.27186816 C0.437000854,2.10673546 0.0130448016,3.15684199 0,4.42218774 C0,5.77884711 0.423956052,6.88113284 1.27186816,7.72904495 C2.11978026,8.57695705 3.10466278,9.0009131 4.22651572,9.0009131 C5.34836866,9.0009131 6.13105675,8.82480828 6.57458001,8.47259864 C7.01810326,8.12038899 7.23986489,7.70295534 7.23986489,7.22029768 C7.23986489,6.92026725 7.12898407,6.67893842 6.90722245,6.4963112 L6.57458001,6.20280316 Z"></path>
                </g>
            </g>
        </g>
        <g id="Group-Copy" transform="translate(33.000000, 46.000000) scale(-1, 1) rotate(-180.000000) translate(-33.000000, -46.000000) translate(10.000000, 37.000000)" fill="#000000" fill-rule="nonzero">
            <g id="Group" transform="translate(0.000000, 4.151457)">
                <path d="M0,8.41362027 C0,8.45052211 0.0369018433,8.60735494 0.11070553,8.88411877 C0.184509216,9.16088259 0.313665668,9.52067557 0.498174884,9.96349768 C0.682684101,10.4063198 0.913320621,10.830691 1.19008445,11.2366113 C1.46684827,11.6425316 1.80819032,11.9930991 2.2141106,12.2883138 C2.62003087,12.5835286 3.08130391,12.7311359 3.59792972,12.7311359 C4.40977027,12.7311359 5.11090529,12.592754 5.70133479,12.3159902 C6.29176428,12.0392264 6.68845909,11.7347862 6.89141923,11.4026696 L7.14050667,11.5964042 C8.0999546,12.352892 9.12398075,12.7311359 10.2125851,12.7311359 C11.0982294,12.7311359 11.8085898,12.4635976 12.3436666,11.9285208 C12.8787433,11.3934441 13.1555071,10.7199855 13.173958,9.90814492 C13.173958,9.00404976 12.9248706,8.34904204 12.4266957,7.94312177 C11.9285208,7.53720149 11.4211205,7.32501589 10.9044947,7.30656497 C10.4801235,7.30656497 10.1203305,7.43572142 9.82511577,7.69403432 C9.52990103,7.95234723 9.38229365,8.30291474 9.38229365,8.74573686 C9.38229365,9.81589031 9.94504676,10.5354763 11.070553,10.9044947 C11.070553,10.9413965 11.0336511,10.9875238 10.9598475,11.0428766 C10.8860438,11.0982294 10.7476619,11.1628076 10.5447017,11.2366113 C10.3417416,11.310415 10.1572324,11.3380913 9.99117407,11.3196404 C9.58525379,11.3196404 9.19778444,11.2181604 8.828766,11.0152002 C8.42284573,10.830691 7.92467084,10.3786434 7.33424135,9.65905748 L6.3102152,5.53527649 C5.60908018,2.76763825 5.24006175,1.35614274 5.2031599,1.30078998 C4.79723963,0.433596658 4.15145737,0 3.26581313,0 C2.80454009,0 2.44474712,0.138381912 2.18643421,0.415145737 C1.92812131,0.691909561 1.79896486,0.987124308 1.79896486,1.30078998 C1.79896486,1.54065196 2.14953237,3.04440207 2.85066739,5.81204032 C3.55180242,8.57967856 3.90236993,10.1203305 3.90236993,10.4339962 C3.90236993,11.0428766 3.74553709,11.3473168 3.43187142,11.3473168 C3.26581313,11.3473168 3.08130391,11.2642877 2.87834378,11.0982294 C2.67538364,10.9321711 2.50932534,10.71076 2.38016889,10.4339962 C2.19565967,10.0465268 2.01115046,9.50222464 1.82664124,8.80108962 C1.73438663,8.41362027 1.66058295,8.19220921 1.60523018,8.13685644 C1.54987742,8.08150368 1.34691728,8.04460183 0.996349768,8.02615091 L0.857967856,8.02615091 L0.553527649,8.02615091 C0.184509216,8.02615091 0,8.15530736 0,8.41362027 Z" id="MJMATHBI-72"></path>
            </g>
            <g id="Group" transform="translate(14.336366, 0.000000)">
                <g transform="translate(0.011984, 0.006172)" id="MJMATHI-74">
                    <path d="M0.136970417,7.74861215 C0.0456568056,7.83992576 0,7.90514977 0,7.94428417 C0,7.99646338 0.0195672024,8.10082179 0.0587016072,8.25735941 C0.097836012,8.41389703 0.130448016,8.50521064 0.156537619,8.53130025 C0.182627222,8.59652425 0.24132883,8.62913626 0.332642441,8.62913626 C0.423956052,8.62913626 0.756598493,8.63565866 1.33056976,8.64870346 L2.36763149,8.64870346 L2.73940834,10.2140797 C2.77854274,10.3575725 2.82419955,10.5467221 2.87637875,10.7815285 C2.92855796,11.0163349 2.97421476,11.1859174 3.01334917,11.2902758 C3.05248357,11.3946342 3.09161798,11.5250822 3.13075238,11.6816198 C3.16988679,11.8381575 3.22206599,11.9490383 3.28729,12.0142623 C3.35251401,12.0794863 3.41773802,12.1577551 3.48296203,12.2490687 C3.54818603,12.3403823 3.63949965,12.3990839 3.75690286,12.4251735 C3.87430607,12.4512631 3.99170929,12.4643079 4.1091125,12.4643079 C4.34391893,12.4512631 4.50697895,12.3795167 4.59829256,12.2490687 C4.68960617,12.1186207 4.73526298,11.9946951 4.73526298,11.8772919 C4.73526298,11.7859782 4.67656137,11.4794254 4.55915816,10.9576333 C4.44175494,10.4358413 4.31130693,9.92057162 4.16781411,9.41182435 L3.97214209,8.68783786 C3.97214209,8.66174826 4.29826213,8.64870346 4.95050221,8.64870346 L5.94842953,8.64870346 C6.03974314,8.55738985 6.08539995,8.48564344 6.08539995,8.43346423 C6.08539995,8.1464786 6.00060874,7.91819457 5.83102631,7.74861215 L3.73733566,7.74861215 L3.03291637,4.9113678 C2.52416911,2.82419955 2.26979548,1.70234661 2.26979548,1.54580899 C2.26979548,0.997927322 2.4459003,0.723986489 2.79810994,0.723986489 C3.254678,0.723986489 3.69820125,0.945748116 4.12867971,1.38927137 C4.55915816,1.83279462 4.9048454,2.38067629 5.16574143,3.03291637 C5.19183104,3.11118518 5.22444304,3.15684199 5.26357744,3.16988679 C5.30271185,3.18293159 5.40054786,3.19597639 5.55708548,3.20902119 L5.63535429,3.20902119 C5.83102631,3.20902119 5.92886233,3.15684199 5.92886233,3.05248357 C5.92886233,3.01334917 5.90929512,2.93508036 5.87016072,2.81767715 C5.80493671,2.60896032 5.6875335,2.36110909 5.51795108,2.07412345 C5.34836866,1.78713782 5.12660703,1.48058498 4.85266619,1.15446494 C4.57872536,0.828344901 4.24608292,0.554404068 3.85473887,0.332642441 C3.46339482,0.110880814 3.06552838,0 2.66113953,0 C2.26979548,0 1.89801863,0.097836012 1.54580899,0.293508036 C1.19359935,0.48918006 0.939225715,0.828344901 0.782688096,1.31100256 C0.756598493,1.41536097 0.743553691,1.59146579 0.743553691,1.83931703 L0.743553691,2.19152667 L1.42840577,4.930935 C1.88497383,6.77025203 2.11978026,7.69643294 2.13282506,7.70947774 C2.13282506,7.73556735 1.80018262,7.74861215 1.13489774,7.74861215 L0.136970417,7.74861215 Z"></path>
                </g>
                <g transform="translate(8.347612, 4.721868)" id="MJMAIN-2212">
                    <path d="M0,0.136970417 C0,0.136970417 0,0.221761627 0,0.391344048 C0,0.560926469 0.0913136112,0.691374485 0.273940834,0.782688096 L11.6424854,0.782688096 C11.8381575,0.678329683 11.9359935,0.547881667 11.9359935,0.391344048 C11.9359935,0.234806429 11.8381575,0.104358413 11.6424854,0 L0.273940834,0 C0.0913136112,0.0913136112 0,0.221761627 0,0.391344048 L0,0.136970417 Z"></path>
                </g>
                <g transform="translate(23.570896, 0.221411)" id="MJMAIN-31">
                    <path d="M2.54373631,11.309843 L2.28936268,11.212007 C2.10673546,11.146783 1.84583943,11.081559 1.50667458,11.0163349 C1.16750974,10.9511109 0.789210497,10.9054541 0.371776846,10.8793645 L0,10.8793645 L0,11.7794558 L0.371776846,11.7794558 C0.984882521,11.8055454 1.55233139,11.9033815 2.07412345,12.0729639 C2.59591552,12.2425463 2.96116996,12.3990839 3.16988679,12.5425767 C3.37860361,12.6860696 3.56123084,12.8295624 3.71776846,12.9730552 C3.74385806,13.0121896 3.82212687,13.0317568 3.95257488,13.0317568 C4.0699781,13.0317568 4.18085891,12.9926224 4.28521732,12.9143536 L4.28521732,7.06376007 L4.30478453,1.19359935 C4.39609814,1.10228574 4.47436695,1.04358413 4.53959096,1.01749452 C4.60481496,0.991404921 4.76135258,0.965315318 5.00920381,0.939225715 C5.25705504,0.913136112 5.66144389,0.90009131 6.22237036,0.90009131 L6.73111762,0.90009131 L6.73111762,0 L6.5158784,0 C6.24193756,0.0391344048 5.20487584,0.0587016072 3.40469322,0.0587016072 C1.6306002,0.0587016072 0.606583274,0.0391344048 0.332642441,0 L0.097836012,0 L0.097836012,0.90009131 L0.606583274,0.90009131 C0.893568909,0.90009131 1.14142014,0.90009131 1.35013697,0.90009131 C1.55885379,0.90009131 1.72191381,0.906613711 1.83931703,0.919658513 C1.95672024,0.932703314 2.06107865,0.952270517 2.15239226,0.97836012 C2.24370587,1.00444972 2.29588508,1.01749452 2.30892988,1.01749452 C2.32197468,1.01749452 2.36110909,1.05010653 2.4263331,1.11533054 C2.49155711,1.18055454 2.53069151,1.20664415 2.54373631,1.19359935 L2.54373631,11.309843 Z"></path>
                </g>
            </g>
        </g>
    </g>
</svg>