<?xml version="1.0" encoding="UTF-8"?>
<svg width="951px" height="306px" viewBox="0 0 951 306" version="1.1" xmlns="http://www.w3.org/2000/svg" xmlns:xlink="http://www.w3.org/1999/xlink">
    <!-- Generator: Sketch 49.2 (51160) - http://www.bohemiancoding.com/sketch -->
    <title>rnn_unfold</title>
    <desc>Created with Sketch.</desc>
    <defs></defs>
    <g id="rnn_unfold" stroke="none" stroke-width="1" fill="none" fill-rule="evenodd">
        <path d="M124,245.65157 L124,194.478011" id="Path-2" stroke="#979797" stroke-width="3"></path>
        <path id="Path-2-decoration-1" d="M127,205.278011 L124,194.478011 L121,205.278011" stroke="#979797" stroke-width="3"></path>
        <path d="M492,253.65157 L492,202.478011" id="Path-2-Copy-3" stroke="#979797" stroke-width="3"></path>
        <path id="Path-2-Copy-3-decoration-1" d="M495,213.278011 L492,202.478011 L489,213.278011" stroke="#979797" stroke-width="3"></path>
        <path d="M650,253.65157 L650,202.478011" id="Path-2-Copy-5" stroke="#979797" stroke-width="3"></path>
        <path id="Path-2-Copy-5-decoration-1" d="M653,213.278011 L650,202.478011 L647,213.278011" stroke="#979797" stroke-width="3"></path>
        <path d="M535,151 L602.516665,151" id="Path-2-Copy-9" stroke="#979797" stroke-width="3"></path>
        <path id="Path-2-Copy-9-decoration-1" d="M591.716665,154 L602.516665,151 L591.716665,148" stroke="#979797" stroke-width="3"></path>
        <path d="M375,151 L442.516665,151" id="Path-2-Copy-11" stroke="#979797" stroke-width="3"></path>
        <path id="Path-2-Copy-11-decoration-1" d="M431.716665,154 L442.516665,151 L431.716665,148" stroke="#979797" stroke-width="3"></path>
        <path d="M692,151 L732.205721,151" id="Path-2-Copy-10" stroke="#979797" stroke-width="3"></path>
        <path id="Path-2-Copy-10-decoration-1" d="M721.405721,154 L732.205721,151 L721.405721,148" stroke="#979797" stroke-width="3"></path>
        <path d="M816,151 L856.205721,151" id="Path-2-Copy-12" stroke="#979797" stroke-width="3"></path>
        <path id="Path-2-Copy-12-decoration-1" d="M845.405721,154 L856.205721,151 L845.405721,148" stroke="#979797" stroke-width="3"></path>
        <polyline id="Path-4" stroke="#979797" stroke-width="3" points="163.021791 154 235 154 235 98 12 98 12 154 76.8691132 154"></polyline>
        <path id="Path-4-decoration-1" d="M76.8691132,154 L66.0691132,151 L66.0691132,157 L76.8691132,154 Z" stroke="#979797" stroke-width="3"></path>
        <rect id="Rectangle" fill="#FFFFFF" x="117" y="81" width="14" height="35"></rect>
        <rect id="Rectangle-Copy" fill="#FFFFFF" x="485" y="79" width="14" height="35"></rect>
        <rect id="Rectangle-Copy-2" fill="#FFFFFF" x="643" y="79" width="14" height="35"></rect>
        <path d="M124,109.5 L124,53.2161941" id="Path-2-Copy" stroke="#979797" stroke-width="3"></path>
        <path id="Path-2-Copy-decoration-1" d="M127,64.0161941 L124,53.2161941 L121,64.0161941" stroke="#979797" stroke-width="3"></path>
        <path d="M492,107.5 L492,51.2161941" id="Path-2-Copy-4" stroke="#979797" stroke-width="3"></path>
        <path id="Path-2-Copy-4-decoration-1" d="M495,62.0161941 L492,51.2161941 L489,62.0161941" stroke="#979797" stroke-width="3"></path>
        <path d="M650,107.5 L650,51.2161941" id="Path-2-Copy-6" stroke="#979797" stroke-width="3"></path>
        <path id="Path-2-Copy-6-decoration-1" d="M653,62.0161941 L650,51.2161941 L647,62.0161941" stroke="#979797" stroke-width="3"></path>
        <path d="M904,253.65157 L904,202.478011" id="Path-2-Copy-8" stroke="#979797" stroke-width="3"></path>
        <path id="Path-2-Copy-8-decoration-1" d="M907,213.278011 L904,202.478011 L901,213.278011" stroke="#979797" stroke-width="3"></path>
        <rect id="Rectangle-Copy-3" fill="#FFFFFF" x="897" y="79" width="14" height="35"></rect>
        <path d="M904,107.5 L904,51.2161941" id="Path-2-Copy-7" stroke="#979797" stroke-width="3"></path>
        <path id="Path-2-Copy-7-decoration-1" d="M907,62.0161941 L904,51.2161941 L901,62.0161941" stroke="#979797" stroke-width="3"></path>
        <circle id="Oval" stroke="#979797" stroke-width="4" fill="#CEEFEA" cx="124" cy="264" r="20"></circle>
        <circle id="Oval-Copy-2" stroke="#979797" stroke-width="4" fill="#CEEFEA" cx="493" cy="274" r="20"></circle>
        <circle id="Oval-Copy-4" stroke="#979797" stroke-width="4" fill="#CEEFEA" cx="651" cy="274" r="20"></circle>
        <circle id="Oval-Copy-6" stroke="#979797" stroke-width="4" fill="#CEEFEA" cx="905" cy="274" r="20"></circle>
        <circle id="Oval-Copy" stroke="#979797" stroke-width="4" fill="#CEEFEA" cx="124" cy="24" r="20"></circle>
        <path d="M493,44 C504.045695,44 513,35.045695 513,24 C513,12.954305 504.045695,4 493,4 C481.954305,4 473,12.954305 473,24 C473,35.045695 481.954305,44 493,44 Z" id="Oval-Copy-3" stroke="#979797" stroke-width="2" fill-opacity="0.390000015" fill="#CEEFEA" stroke-dasharray="5"></path>
        <path d="M651,44 C662.045695,44 671,35.045695 671,24 C671,12.954305 662.045695,4 651,4 C639.954305,4 631,12.954305 631,24 C631,35.045695 639.954305,44 651,44 Z" id="Oval-Copy-5" stroke="#979797" stroke-width="2" fill-opacity="0.390000015" fill="#CEEFEA" stroke-dasharray="5"></path>
        <circle id="Oval-Copy-7" stroke="#979797" stroke-width="4" fill="#CEEFEA" cx="905" cy="24" r="20"></circle>
        <g id="latex-eq" transform="translate(117.000000, 257.000000)" fill="#000000" fill-rule="nonzero">
            <g id="Group" transform="translate(8.500000, 7.000000) scale(-1, 1) rotate(-180.000000) translate(-8.500000, -7.000000) ">
                <g transform="translate(0.000000, 3.089618)" id="MJMATHI-78">
                    <path d="M0.360954989,6.26273856 C0.460040672,6.84726082 0.842228307,7.52224487 1.50751789,8.28769069 C2.17280748,9.05313652 2.99380314,9.44281803 3.97050488,9.45673522 C4.46593329,9.45673522 4.91889641,9.33148045 5.32939425,9.08097091 C5.73989208,8.83046137 6.04422667,8.51732444 6.24239804,8.14156013 C6.83691214,9.01834352 7.55174457,9.45673522 8.38689533,9.45673522 C8.91063394,9.45673522 9.36359706,9.30364606 9.7457847,8.99746773 C10.1279723,8.6912894 10.3261437,8.28073209 10.3402988,7.76579581 C10.3402988,7.36219711 10.2412131,7.03514298 10.0430417,6.78463344 C9.84487038,6.5341239 9.65377656,6.38103473 9.46976029,6.32536594 C9.28574402,6.26969716 9.1229604,6.24186276 8.98140942,6.24186276 C8.71246257,6.24186276 8.49305856,6.31840735 8.32319739,6.47149651 C8.15333622,6.62458568 8.06840563,6.82638503 8.06840563,7.07689457 C8.06840563,7.71708562 8.42228307,8.15547732 9.13003795,8.39206967 C8.97433188,8.57299323 8.69122992,8.66345501 8.28073209,8.66345501 C8.09671583,8.66345501 7.9622424,8.64953781 7.87731181,8.62170342 C7.3394181,8.39902827 6.94307537,7.93976077 6.68828361,7.24390093 C5.83897776,4.16820044 5.41432483,2.37288205 5.41432483,1.85794577 C5.41432483,1.46826426 5.52756561,1.18992033 5.75404717,1.02291396 C5.98052873,0.855907603 6.22824294,0.772404422 6.4971898,0.772404422 C7.02092841,0.772404422 7.53758947,1.00203817 8.04717298,1.46130566 C8.5567565,1.92057316 8.90355639,2.48421963 9.08757266,3.15224507 C9.13003795,3.29141704 9.17250324,3.36796162 9.21496854,3.38187882 C9.25743383,3.39579602 9.37067461,3.40971322 9.55469088,3.42363041 L9.63962146,3.42363041 C9.85194793,3.42363041 9.95811116,3.36796162 9.95811116,3.25662405 C9.95811116,3.24270685 9.94395606,3.16616227 9.91564587,3.0269903 C9.6891643,2.23371009 9.25035628,1.53089165 8.59922179,0.918534989 C7.9480873,0.30617833 7.19078958,0 6.32732863,0 C5.33647179,0 4.58625162,0.438391699 4.07666811,1.3151751 C3.49630911,0.452308896 2.83101952,0.0208757952 2.08079935,0.0208757952 L1.95340347,0.0208757952 C1.25980369,0.0208757952 0.76437527,0.201799354 0.467118221,0.56364647 C0.169861171,0.925493587 0.0141550976,1.3082165 0,1.71181521 C0,2.1571655 0.134473427,2.51901262 0.403420282,2.79735656 C0.672367136,3.07570049 0.990856832,3.21487246 1.35888937,3.21487246 C1.96755857,3.21487246 2.27189316,2.92261133 2.27189316,2.33808906 C2.27189316,2.05974513 2.18696258,1.81619418 2.01710141,1.60743623 C1.84724024,1.39867828 1.68445661,1.25950631 1.52875054,1.18992033 C1.37304447,1.12033434 1.28103633,1.08554135 1.25272614,1.08554135 L1.1890282,1.06466555 C1.1890282,1.05074836 1.23149349,1.02291396 1.31642408,0.981162374 C1.40135466,0.939410784 1.51459544,0.890700595 1.65614642,0.835031808 C1.79769739,0.779363021 1.93217082,0.758487225 2.0595667,0.772404422 C2.56915021,0.772404422 3.00795824,1.08554135 3.37599078,1.71181521 C3.50338666,1.93449035 3.66617028,2.40767505 3.86434164,3.13136928 C4.06251301,3.85506351 4.26068438,4.60659214 4.45885574,5.38595516 C4.65702711,6.16531818 4.77026789,6.62458568 4.79857809,6.76375764 C4.86935357,7.13952196 4.90474132,7.41090729 4.90474132,7.57791366 C4.90474132,7.96759517 4.79857809,8.2459391 4.58625162,8.41294546 C4.37392516,8.57995183 4.1332885,8.66345501 3.86434164,8.66345501 C3.29813774,8.66345501 2.76732158,8.44077986 2.27189316,7.99542956 C1.77646475,7.55007926 1.42966486,6.97947419 1.23149349,6.28361435 C1.2031833,6.15835958 1.16779555,6.0887736 1.12533026,6.0748564 C1.08286497,6.0609392 0.969624185,6.04702201 0.785607917,6.03310481 L0.488350867,6.03310481 C0.403420282,6.11660799 0.360954989,6.19315257 0.360954989,6.26273856 Z"></path>
                </g>
                <g transform="translate(11.686364, 0.013194)" id="MJMATHI-74">
                    <path d="M0.105080367,5.84463813 C0.035026789,5.91351434 0,5.96271163 0,5.99223 C0,6.03158784 0.015011481,6.1103035 0.045034443,6.228377 C0.075057405,6.3464505 0.10007654,6.4153267 0.120091848,6.43500562 C0.140107156,6.48420291 0.185141599,6.50880156 0.255195177,6.50880156 C0.325248755,6.50880156 0.580443932,6.51372129 1.02078071,6.52356074 L1.8163892,6.52356074 L2.10160734,7.70429572 C2.1316303,7.81252976 2.16665709,7.9552019 2.20668771,8.13231215 C2.24671832,8.3094224 2.28174511,8.43733535 2.31176807,8.51605102 C2.34179104,8.59476668 2.371814,8.69316126 2.40183696,8.81123476 C2.43185992,8.92930826 2.47189054,9.01294365 2.52192881,9.06214094 C2.57196708,9.11133823 2.62200535,9.17037498 2.67204362,9.23925119 C2.72208189,9.3081274 2.79213547,9.35240496 2.88220435,9.37208387 C2.97227324,9.39176279 3.06234212,9.40160225 3.15241101,9.40160225 C3.33254878,9.39176279 3.45764446,9.33764577 3.52769804,9.23925119 C3.59775161,9.14085661 3.6327784,9.04738176 3.6327784,8.95882663 C3.6327784,8.88995043 3.58774396,8.65872316 3.49767507,8.26514483 C3.40760619,7.87156651 3.30752965,7.48290791 3.19744545,7.09916904 L3.04733064,6.55307912 C3.04733064,6.5334002 3.29752199,6.52356074 3.79790469,6.52356074 L4.56349022,6.52356074 C4.6335438,6.45468454 4.66857059,6.40056752 4.66857059,6.36120968 C4.66857059,6.14474161 4.60352084,5.97255109 4.47342134,5.84463813 L2.86719287,5.84463813 L2.32677956,3.70455599 C1.93648105,2.13024269 1.7413318,1.28404929 1.7413318,1.16597579 C1.7413318,0.752718547 1.87643513,0.546089927 2.14664178,0.546089927 C2.49690967,0.546089927 2.83716991,0.713360715 3.16742249,1.04790229 C3.49767507,1.38244387 3.7628779,1.79570111 3.96303098,2.28767402 C3.98304629,2.34671077 4.00806543,2.38114887 4.03808839,2.39098833 C4.06811135,2.40082778 4.14316876,2.41066724 4.2632606,2.4205067 L4.32330653,2.4205067 C4.47342134,2.4205067 4.54847874,2.38114887 4.54847874,2.3024332 C4.54847874,2.27291483 4.53346726,2.21387808 4.5034443,2.12532296 C4.45340603,1.96789163 4.36333714,1.78094192 4.23323764,1.56447384 C4.10313814,1.34800576 3.93300802,1.1167785 3.72284729,0.870792045 C3.51268655,0.624805592 3.25749138,0.418176971 2.95726176,0.250906182 C2.65703214,0.0836353941 2.35179869,0 2.04156142,0 C1.7413318,0 1.45611366,0.073795936 1.185907,0.221387808 C0.915700341,0.36897968 0.720551088,0.624805592 0.60045924,0.988865543 C0.580443932,1.06758121 0.570436278,1.20041389 0.570436278,1.3873636 L0.570436278,1.65302897 L1.09583811,3.71931518 C1.446106,5.10667877 1.62624378,5.8052803 1.63625143,5.81511976 C1.63625143,5.83479867 1.38105625,5.84463813 0.870665898,5.84463813 L0.105080367,5.84463813 Z"></path>
                </g>
            </g>
        </g>
        <g id="latex-eq" transform="translate(117.000000, 12.000000)" fill="#000000" fill-rule="nonzero">
            <g id="Group" transform="translate(8.500000, 10.000000) scale(-1, 1) rotate(-180.000000) translate(-8.500000, -10.000000) ">
                <g transform="translate(0.000000, 0.927362)" id="MJMATHI-79">
                    <path d="M0,10.1391547 C0,10.3314964 0.102058855,10.661225 0.306176565,11.1283405 C0.510294275,11.5954561 0.836882612,12.0831796 1.28594157,12.5915112 C1.73500054,13.0998428 2.23849089,13.3471393 2.79641263,13.3334006 C3.35433437,13.3334006 3.80339333,13.1754057 4.14358952,12.8594157 C4.4837857,12.5434258 4.66068772,12.1037877 4.67429556,11.5405013 C4.64707987,11.2794662 4.6266681,11.1352099 4.61306025,11.1077325 C4.61306025,11.0665164 4.50419747,10.7505265 4.28647191,10.1597628 C4.06874636,9.568999 3.84421687,8.90267243 3.61288347,8.16078307 C3.38155006,7.4188937 3.27268729,6.82812994 3.28629513,6.38849179 C3.28629513,5.79772804 3.38155006,5.38556728 3.57205993,5.15200951 C3.76256979,4.91845175 4.04833458,4.79480352 4.42935431,4.78106483 C4.7423348,4.78106483 5.03490352,4.85662763 5.30706046,5.00775324 C5.57921741,5.15887886 5.79013904,5.31687382 5.93982537,5.48173812 C6.08951169,5.64660242 6.27321763,5.87329084 6.49094318,6.16180338 C6.49094318,6.17554207 6.5249628,6.31292899 6.59300204,6.57396414 C6.66104127,6.83499928 6.75629621,7.2402907 6.87876683,7.78983838 C7.00123746,8.33938606 7.13051201,8.84771767 7.26659048,9.3148332 C7.78368868,11.375637 8.06945347,12.4541243 8.12388486,12.5502952 C8.30078688,12.9212399 8.5933556,13.1067122 9.00159102,13.1067122 C9.17849303,13.1067122 9.32137543,13.0586268 9.43023821,12.9624559 C9.53910099,12.8662851 9.61394415,12.7838529 9.65476769,12.7151595 C9.69559123,12.646466 9.70919908,12.5846419 9.69559123,12.5296871 C9.69559123,12.3510841 9.36219897,10.9085215 8.69541445,8.20199914 C8.02862993,5.49547681 7.64761021,4.01169807 7.55235528,3.75066292 C7.17133555,2.61035149 6.51135495,1.70359781 5.57241349,1.0304019 C4.63347202,0.357205993 3.69453055,0.013738692 2.75558909,0 C2.14323596,0 1.60572599,0.151125612 1.14305918,0.453376837 C0.680392367,0.755628062 0.449058962,1.2090049 0.449058962,1.81350735 C0.449058962,2.11575857 0.496686428,2.36992438 0.591941359,2.57600476 C0.687196291,2.78208514 0.816470841,2.93321075 0.979765009,3.02938159 C1.14305918,3.12555244 1.27913765,3.1942459 1.38800043,3.23546197 C1.49686321,3.27667805 1.61252991,3.29728609 1.73500054,3.29728609 C2.33374582,3.29728609 2.63311846,3.00877355 2.63311846,2.43174849 C2.63311846,2.15697465 2.55147138,1.91654754 2.38817721,1.71046716 C2.22488304,1.50438678 2.0683928,1.36699986 1.91870648,1.2983064 C1.76902015,1.22961294 1.68056915,1.19526621 1.65335345,1.19526621 L1.59211814,1.17465817 C1.61933383,1.10596471 1.74860838,1.02353256 1.97994179,0.927361712 C2.21127519,0.831190868 2.4426086,0.783105446 2.673942,0.783105446 L2.83723617,0.783105446 C3.06856958,0.783105446 3.24547159,0.796844138 3.36794222,0.824321522 C3.81700118,0.94796975 4.23204052,1.2090049 4.61306025,1.60742697 C4.99407997,2.00584904 5.28664869,2.43174849 5.4907664,2.88512533 C5.69488411,3.33850216 5.85137436,3.72318554 5.96023714,4.03917546 C6.06909992,4.35516537 6.1235313,4.56124575 6.1235313,4.6574166 L6.00106068,4.57498445 C5.91941359,4.52002968 5.79013904,4.44446687 5.61323703,4.34829603 C5.43633501,4.25212518 5.259433,4.16969303 5.08253098,4.10099957 C4.81037404,4.03230611 4.54502101,3.99795938 4.28647191,3.99795938 C3.66051094,3.99795938 3.10939312,4.14908499 2.63311846,4.45133622 C2.1568438,4.75358744 1.84386332,5.24131101 1.69417699,5.91450692 C1.68056915,6.01067776 1.67376522,6.22362749 1.67376522,6.5533561 C1.67376522,7.33646154 1.91190255,8.3599941 2.38817721,9.62395377 C2.86445187,10.8879134 3.10258919,11.6916269 3.10258919,12.0350942 C3.10258919,12.0488329 3.10258919,12.0625716 3.10258919,12.0763103 C3.10258919,12.1999585 3.10258919,12.2823907 3.10258919,12.3236068 C3.10258919,12.3648228 3.0753735,12.4129082 3.02094211,12.467863 C2.96651072,12.5228178 2.89166756,12.5502952 2.79641263,12.5502952 L2.71476554,12.5502952 C2.40178506,12.5502952 2.11602026,12.4197776 1.85747116,12.1587424 C1.59892206,11.8977073 1.39480435,11.6160641 1.24511803,11.3138129 C1.09543171,11.0115617 0.979765009,10.7230491 0.898117925,10.4482753 C0.816470841,10.1735014 0.762039451,10.0223758 0.734823757,9.99489845 C0.707608062,9.96742107 0.598745283,9.95368238 0.40823542,9.95368238 L0.122470626,9.95368238 C0.040823542,10.0361145 0,10.0979386 0,10.1391547 Z"></path>
                </g>
                <g transform="translate(3.061766, 15.888797)" id="MJMAIN-5E">
                    <path d="M0,0.597633103 L2.79641263,3.3591102 L2.9597068,3.1942459 C4.72872695,1.49064809 5.61323703,0.625110487 5.61323703,0.597633103 L5.08253098,0 C5.05531529,0.013738692 4.66068772,0.357205993 3.89864826,1.0304019 L2.8168244,1.97837165 L1.69417699,1.00979386 C1.51727498,0.858668252 1.34037296,0.700673293 1.16347095,0.535808989 C0.986568932,0.370944685 0.843686535,0.240427111 0.734823757,0.144256266 L0.571529588,0.020608038 C0.544313894,-0.00686934601 0.442255039,0.0893014982 0.265353023,0.309120571 L0,0.597633103 Z"></path>
                </g>
                <g transform="translate(11.254581, 0.008841)" id="MJMATHI-74">
                    <path d="M0.101017855,5.76967363 C0.0336726183,5.83766641 0,5.88623269 0,5.91537246 C0,5.95422548 0.0144311221,6.03193152 0.0432933663,6.14849058 C0.0721556105,6.26504965 0.0962074807,6.33304243 0.115448977,6.35246894 C0.134690473,6.40103522 0.177983839,6.42531836 0.245329076,6.42531836 C0.312674312,6.42531836 0.558003388,6.43017499 0.981316303,6.43988824 L1.74616578,6.43988824 L2.0203571,7.60547887 C2.04921934,7.71232468 2.08289196,7.85316688 2.12137495,8.02800548 C2.15985794,8.20284407 2.19353056,8.32911639 2.2223928,8.40682243 C2.25125505,8.48452847 2.28011729,8.58166103 2.30897954,8.69822009 C2.33784178,8.81477915 2.37632477,8.89734182 2.42442851,8.9459081 C2.47253225,8.99447438 2.52063599,9.05275391 2.56873974,9.12074669 C2.61684348,9.18873948 2.68418871,9.23244913 2.77077544,9.25187564 C2.85736218,9.27130215 2.94394891,9.28101541 3.03053564,9.28101541 C3.20370911,9.27130215 3.32396846,9.21787925 3.3913137,9.12074669 C3.45865893,9.02361414 3.49233155,8.93133822 3.49233155,8.84391892 C3.49233155,8.77592613 3.44903818,8.54766463 3.36245145,8.15913442 C3.27586472,7.77060421 3.17965724,7.38693063 3.07382901,7.00811367 L2.92951779,6.46902801 C2.92951779,6.4496015 3.17003649,6.43988824 3.65107389,6.43988824 L4.38706112,6.43988824 C4.45440636,6.37189545 4.48807898,6.31847255 4.48807898,6.27961953 C4.48807898,6.06592791 4.42554411,5.89594595 4.30047439,5.76967363 L2.75634432,5.76967363 L2.23682393,3.65704061 C1.86161475,2.10291976 1.67401016,1.26757981 1.67401016,1.15102075 C1.67401016,0.743064028 1.80389026,0.539085667 2.06365046,0.539085667 C2.40037664,0.539085667 2.72748208,0.704211007 3.04496676,1.03446169 C3.36245145,1.36471236 3.61740127,1.77266909 3.80981624,2.25833185 C3.82905773,2.31661138 3.8531096,2.35060777 3.88197185,2.36032103 C3.91083409,2.37003428 3.9829897,2.37974754 4.09843868,2.3894608 L4.15616317,2.3894608 C4.30047439,2.3894608 4.37263,2.35060777 4.37263,2.27290173 C4.37263,2.24376197 4.35819888,2.18548243 4.32933663,2.09806314 C4.28123289,1.94265105 4.19464616,1.7580992 4.06957643,1.54440759 C3.94450671,1.33071597 3.78095399,1.10245447 3.57891828,0.859623091 C3.37688257,0.616791709 3.1315535,0.412813349 2.84293106,0.247688009 C2.55430861,0.0825626697 2.2608758,0 1.96263261,0 C1.67401016,0 1.39981884,0.0728494145 1.14005865,0.218548243 C0.880298449,0.364247072 0.692693861,0.616791709 0.577244884,0.976182154 C0.558003388,1.0538882 0.54838264,1.18501714 0.54838264,1.36956899 L0.54838264,1.63182688 L1.05347191,3.67161049 C1.3901981,5.04117948 1.56337156,5.73082061 1.57299231,5.74053386 C1.57299231,5.75996037 1.32766323,5.76967363 0.837005082,5.76967363 L0.101017855,5.76967363 Z"></path>
                </g>
            </g>
        </g>
        <g id="latex-eq-copy" transform="translate(485.000000, 13.000000)" fill="#000000" fill-rule="nonzero">
            <g id="Group" transform="translate(9.000000, 10.500000) scale(-1, 1) rotate(-180.000000) translate(-9.000000, -10.500000) ">
                <g transform="translate(0.000000, 0.799136)" id="MJMATHI-79">
                    <path d="M0,10.6263499 C0,10.8279338 0.101190476,11.1735061 0.303571429,11.663067 C0.505952381,12.1526278 0.829761905,12.6637869 1.275,13.1965443 C1.7202381,13.7293017 2.21944444,13.9884809 2.77261905,13.9740821 C3.32579365,13.9740821 3.77103175,13.8084953 4.10833333,13.4773218 C4.44563492,13.1461483 4.62103175,12.6853852 4.63452381,12.0950324 C4.60753968,11.8214543 4.58730159,11.6702664 4.57380952,11.6414687 C4.57380952,11.5982721 4.46587302,11.2670986 4.25,10.6479482 C4.03412698,10.0287977 3.81150794,9.33045356 3.58214286,8.55291577 C3.35277778,7.77537797 3.24484127,7.1562275 3.25833333,6.69546436 C3.25833333,6.07631389 3.35277778,5.64434845 3.54166667,5.39956803 C3.73055556,5.15478762 4.01388889,5.02519798 4.39166667,5.01079914 C4.70198413,5.01079914 4.99206349,5.0899928 5.26190476,5.24838013 C5.53174603,5.40676746 5.74087302,5.57235421 5.88928571,5.74514039 C6.03769841,5.91792657 6.21984127,6.15550756 6.43571429,6.45788337 C6.43571429,6.47228222 6.46944444,6.6162707 6.53690476,6.88984881 C6.60436508,7.16342693 6.69880952,7.58819294 6.8202381,8.16414687 C6.94166667,8.74010079 7.06984127,9.27285817 7.2047619,9.76241901 C7.71746032,11.9222462 8.00079365,13.0525558 8.0547619,13.1533477 C8.23015873,13.5421166 8.5202381,13.7365011 8.925,13.7365011 C9.10039683,13.7365011 9.24206349,13.6861051 9.35,13.5853132 C9.45793651,13.4845212 9.53214286,13.3981281 9.57261905,13.3261339 C9.61309524,13.2541397 9.6265873,13.1893449 9.61309524,13.1317495 C9.61309524,12.9445644 9.28253968,11.4326854 8.62142857,8.59611231 C7.96031746,5.75953924 7.58253968,4.20446364 7.48809524,3.93088553 C7.11031746,2.73578114 6.45595238,1.78545716 5.525,1.07991361 C4.59404762,0.37437005 3.66309524,0.0143988481 2.73214286,0 C2.125,0 1.59206349,0.158387329 1.13333333,0.475161987 C0.674603175,0.791936645 0.445238095,1.26709863 0.445238095,1.90064795 C0.445238095,2.21742261 0.492460317,2.4838013 0.586904762,2.69978402 C0.681349206,2.91576674 0.80952381,3.07415407 0.971428571,3.174946 C1.13333333,3.27573794 1.26825397,3.34773218 1.37619048,3.39092873 C1.48412698,3.43412527 1.59880952,3.45572354 1.7202381,3.45572354 C2.31388889,3.45572354 2.61071429,3.15334773 2.61071429,2.54859611 C2.61071429,2.26061915 2.5297619,2.00863931 2.36785714,1.79265659 C2.20595238,1.57667387 2.05079365,1.43268539 1.90238095,1.36069114 C1.75396825,1.2886969 1.66626984,1.25269978 1.63928571,1.25269978 L1.57857143,1.23110151 C1.60555556,1.15910727 1.73373016,1.07271418 1.96309524,0.971922246 C2.19246032,0.87113031 2.4218254,0.820734341 2.65119048,0.820734341 L2.81309524,0.820734341 C3.04246032,0.820734341 3.21785714,0.835133189 3.33928571,0.863930886 C3.78452381,0.993520518 4.19603175,1.26709863 4.57380952,1.68466523 C4.9515873,2.10223182 5.24166667,2.54859611 5.44404762,3.0237581 C5.64642857,3.49892009 5.8015873,3.90208783 5.90952381,4.23326134 C6.01746032,4.56443485 6.07142857,4.78041757 6.07142857,4.8812095 L5.95,4.79481641 C5.86904762,4.73722102 5.74087302,4.65802736 5.56547619,4.55723542 C5.39007937,4.45644348 5.21468254,4.3700504 5.03928571,4.29805616 C4.76944444,4.22606192 4.50634921,4.19006479 4.25,4.19006479 C3.62936508,4.19006479 3.08293651,4.34845212 2.61071429,4.66522678 C2.13849206,4.98200144 1.8281746,5.49316055 1.6797619,6.1987041 C1.66626984,6.29949604 1.65952381,6.52267819 1.65952381,6.86825054 C1.65952381,7.68898488 1.89563492,8.76169906 2.36785714,10.0863931 C2.84007937,11.4110871 3.07619048,12.2534197 3.07619048,12.6133909 C3.07619048,12.6277898 3.07619048,12.6421886 3.07619048,12.6565875 C3.07619048,12.7861771 3.07619048,12.8725702 3.07619048,12.9157667 C3.07619048,12.9589633 3.04920635,13.0093593 2.9952381,13.0669546 C2.94126984,13.12455 2.86706349,13.1533477 2.77261905,13.1533477 L2.69166667,13.1533477 C2.38134921,13.1533477 2.09801587,13.0165587 1.84166667,12.7429806 C1.58531746,12.4694024 1.38293651,12.1742261 1.23452381,11.8574514 C1.08611111,11.5406767 0.971428571,11.2383009 0.89047619,10.950324 C0.80952381,10.662347 0.755555556,10.5039597 0.728571429,10.475162 C0.701587302,10.4463643 0.593650794,10.4319654 0.404761905,10.4319654 L0.121428571,10.4319654 C0.0404761905,10.5183585 0,10.5831533 0,10.6263499 Z"></path>
                </g>
                <g transform="translate(3.035714, 16.479482)" id="MJMAIN-5E">
                    <path d="M0,0.626349892 L2.77261905,3.52051836 L2.93452381,3.34773218 C4.68849206,1.56227502 5.56547619,0.655147588 5.56547619,0.626349892 L5.03928571,0 C5.01230159,0.0143988481 4.62103175,0.37437005 3.86547619,1.07991361 L2.79285714,2.07343413 L1.6797619,1.05831533 C1.50436508,0.899928006 1.32896825,0.734341253 1.15357143,0.561555076 C0.978174603,0.388768898 0.836507937,0.251979842 0.728571429,0.151187905 L0.566666667,0.0215982721 C0.53968254,-0.00719942405 0.438492063,0.0935925126 0.263095238,0.323974082 L0,0.626349892 Z"></path>
                </g>
                <g transform="translate(12.074554, 0.004449)" id="MJMAIN-31">
                    <path d="M1.86008333,8.82604752 L1.674075,8.74969762 C1.54053056,8.6987977 1.34975278,8.64789777 1.10174167,8.59699784 C0.853730556,8.54609791 0.577102778,8.51046796 0.271858333,8.49010799 L0,8.49010799 L0,9.192527 L0.271858333,9.192527 C0.720186111,9.21288697 1.13512778,9.28923686 1.51668333,9.42157667 C1.89823889,9.55391649 2.16532778,9.67607631 2.31795,9.78805616 C2.47057222,9.900036 2.60411667,10.0120158 2.71858333,10.1239957 C2.73766111,10.1545356 2.79489444,10.1698056 2.89028333,10.1698056 C2.97613333,10.1698056 3.05721389,10.1392657 3.133525,10.0781857 L3.133525,5.5124622 L3.14783333,0.931468683 C3.21460556,0.860208783 3.27183889,0.814398848 3.31953333,0.794038877 C3.36722778,0.773678906 3.48169444,0.753318934 3.66293333,0.732958963 C3.84417222,0.712598992 4.13987778,0.702419006 4.55005,0.702419006 L4.92206667,0.702419006 L4.92206667,0 L4.764675,0 C4.56435833,0.0305399568 3.80601667,0.0458099352 2.48965,0.0458099352 C1.19236111,0.0458099352 0.443558333,0.0305399568 0.243241667,0 L0.0715416667,0 L0.0715416667,0.702419006 L0.443558333,0.702419006 C0.653413889,0.702419006 0.834652778,0.702419006 0.987275,0.702419006 C1.13989722,0.702419006 1.25913333,0.707508999 1.34498333,0.717688985 C1.43083333,0.72786897 1.50714444,0.743138949 1.57391667,0.76349892 C1.64068889,0.783858891 1.67884444,0.794038877 1.68838333,0.794038877 C1.69792222,0.794038877 1.72653889,0.819488841 1.77423333,0.870388769 C1.82192778,0.921288697 1.85054444,0.941648668 1.86008333,0.931468683 L1.86008333,8.82604752 Z"></path>
                </g>
            </g>
        </g>
        <g id="latex-eq" transform="translate(644.000000, 269.000000)" fill="#000000" fill-rule="nonzero">
            <g id="Group" transform="translate(9.000000, 6.500000) scale(-1, 1) rotate(-180.000000) translate(-9.000000, -6.500000) ">
                <g transform="translate(0.000000, 2.847076)" id="MJMATHI-78">
                    <path d="M0.332997712,6.10087719 C0.424408848,6.6702924 0.776994661,7.32783138 1.39075515,8.07349415 C2.00451564,8.81915692 2.7619222,9.19876706 3.66297483,9.21232456 C4.12003051,9.21232456 4.53790999,9.09030702 4.91661327,8.84627193 C5.29531655,8.60223684 5.57607933,8.29719298 5.7589016,7.93114035 C6.30736842,8.78526316 6.96683448,9.21232456 7.73729977,9.21232456 C8.22047292,9.21232456 8.6383524,9.06319201 8.99093822,8.7649269 C9.34352403,8.46666179 9.5263463,8.0667154 9.53940503,7.56508772 C9.53940503,7.17192008 9.4479939,6.85331871 9.26517162,6.60928363 C9.08234935,6.36524854 8.90605645,6.21611598 8.73629291,6.16188596 C8.56652937,6.10765595 8.41635393,6.08054094 8.28576659,6.08054094 C8.03765065,6.08054094 7.83524027,6.15510721 7.67853547,6.30423977 C7.52183066,6.45337232 7.44347826,6.64995614 7.44347826,6.89399123 C7.44347826,7.51763645 7.76994661,7.94469786 8.4228833,8.17517544 C8.27923722,8.351423 8.01806255,8.43954678 7.63935927,8.43954678 C7.46959573,8.43954678 7.34553776,8.42598928 7.26718535,8.39887427 C6.77095347,8.18195419 6.40530892,7.73455653 6.17025172,7.05668129 C5.38672769,4.06047271 4.99496568,2.31155458 4.99496568,1.8099269 C4.99496568,1.43031676 5.09943555,1.15916667 5.30837529,0.996476608 C5.51731503,0.83378655 5.74584287,0.75244152 5.99395881,0.75244152 C6.47713196,0.75244152 6.95377574,0.976140351 7.42389016,1.42353801 C7.89400458,1.87093567 8.21394355,2.42001462 8.38370709,3.07077485 C8.4228833,3.2063499 8.4620595,3.28091618 8.5012357,3.29447368 C8.5404119,3.30803119 8.64488177,3.32158869 8.81464531,3.3351462 L8.89299771,3.3351462 C9.08887872,3.3351462 9.18681922,3.28091618 9.18681922,3.17245614 C9.18681922,3.15889864 9.17376049,3.08433236 9.14764302,2.94875731 C8.93870328,2.17597953 8.53388253,1.49132554 7.93318078,0.894795322 C7.33247902,0.298265107 6.63383677,0 5.837254,0 C4.92314264,0 4.23102975,0.427061404 3.76091533,1.28118421 C3.22550725,0.440618908 2.61174676,0.0203362573 1.91963387,0.0203362573 L1.80210526,0.0203362573 C1.16222731,0.0203362573 0.705171625,0.196583821 0.430938215,0.549078947 C0.156704805,0.901574074 0.0130587338,1.27440546 0,1.6675731 C0,2.10141326 0.124057971,2.45390838 0.372173913,2.72505848 C0.620289855,2.99620858 0.914111365,3.13178363 1.25363844,3.13178363 C1.815164,3.13178363 2.09592677,2.84707602 2.09592677,2.27766082 C2.09592677,2.00651072 2.01757437,1.76925439 1.86086957,1.56589181 C1.70416476,1.36252924 1.55398932,1.22695419 1.41034325,1.15916667 C1.26669718,1.09137914 1.18181541,1.05748538 1.15569794,1.05748538 L1.09693364,1.03714912 C1.09693364,1.02359162 1.13610984,0.996476608 1.21446224,0.955804094 C1.29281465,0.915131579 1.39728452,0.867680312 1.52787185,0.813450292 C1.65845919,0.759220273 1.78251716,0.738884016 1.90004577,0.75244152 C2.37016018,0.75244152 2.77498093,1.05748538 3.11450801,1.6675731 C3.23203661,1.88449318 3.38221205,2.34544834 3.56503432,3.0504386 C3.7478566,3.75542885 3.93067887,4.48753411 4.11350114,5.24675439 C4.29632342,6.00597466 4.40079329,6.45337232 4.42691076,6.58894737 C4.49220442,6.955 4.52485126,7.21937135 4.52485126,7.3820614 C4.52485126,7.76167154 4.42691076,8.03282164 4.23102975,8.1955117 C4.03514874,8.35820175 3.81315027,8.43954678 3.56503432,8.43954678 C3.04268497,8.43954678 2.55298246,8.22262671 2.09592677,7.78878655 C1.63887109,7.35494639 1.31893211,6.79908869 1.13610984,6.12121345 C1.10999237,5.99919591 1.07734554,5.93140838 1.03816934,5.91785088 C0.998993135,5.90429337 0.894523265,5.89073587 0.724759725,5.87717836 L0.450526316,5.87717836 C0.372173913,5.95852339 0.332997712,6.03308967 0.332997712,6.10087719 Z"></path>
                </g>
                <g transform="translate(11.210525, 0.008318)" id="MJMAIN-32">
                    <path d="M0.817078444,6.16804785 C0.567800275,6.16804785 0.369300992,6.25431425 0.221580595,6.42684706 C0.0738601983,6.59937987 0,6.8102533 0,7.05946735 C0,7.74001343 0.244661907,8.32950052 0.733985721,8.82792863 C1.22330953,9.32635673 1.83265617,9.57557079 2.56202563,9.57557079 C3.40218539,9.57557079 4.10385727,9.30718642 4.66704128,8.77041769 C5.23022529,8.23364896 5.51643356,7.53872515 5.52566609,6.68564627 C5.52566609,6.27348457 5.43334084,5.88049317 5.24869034,5.50667209 C5.06403985,5.13285101 4.84245925,4.80695571 4.58394856,4.52898618 C4.32543786,4.25101666 3.95613687,3.89636589 3.47604558,3.46503387 C3.14367469,3.16789404 2.68204845,2.72697687 2.09116686,2.14228235 L1.27408842,1.33712925 L2.32659625,1.32275152 C3.77610264,1.32275152 4.54701846,1.34671441 4.63934371,1.39464019 C4.70397138,1.4138105 4.81476168,1.84034994 4.9717146,2.67425851 L4.9717146,2.71739171 L5.52566609,2.71739171 L5.52566609,2.67425851 C5.51643356,2.64550304 5.45642215,2.20937845 5.34563185,1.36588472 C5.23484156,0.522390999 5.16559762,0.0814738255 5.13790005,0.0431332018 L5.13790005,0 L0,0 L0,0.273176944 L0,0.445709751 C0,0.512805843 0.0276975744,0.584694513 0.0830927231,0.66137576 C0.138487872,0.738057008 0.276975744,0.905797237 0.498556339,1.16459645 C0.766299558,1.47132144 0.997112677,1.7397058 1.1909957,1.96974955 C1.27408842,2.06560111 1.43104134,2.24292649 1.66185446,2.5017257 C1.89266758,2.76052491 2.0496205,2.9378503 2.13271323,3.03370186 C2.21580595,3.12955342 2.34967756,3.28770849 2.53432805,3.50816708 C2.71897855,3.72862566 2.8482339,3.89157331 2.9220941,3.99701003 C2.99595429,4.10244674 3.10212833,4.24622408 3.2406162,4.42834205 C3.37910407,4.61046001 3.47604558,4.7638225 3.53144073,4.88842953 C3.58683588,5.01303656 3.65607982,5.15202132 3.73917254,5.30538382 C3.82226526,5.45874631 3.88227667,5.61210881 3.91920677,5.7654713 C3.95613687,5.9188338 3.98845071,6.06261114 4.01614828,6.19680332 C4.04384586,6.3309955 4.05769465,6.48915058 4.05769465,6.67126854 C4.05769465,7.27513336 3.90074172,7.79752436 3.58683588,8.23844154 C3.27293004,8.67935871 2.82515259,8.8998173 2.24350352,8.8998173 C1.93883021,8.8998173 1.67108699,8.81834347 1.44027387,8.65539582 C1.20946075,8.49244817 1.04789156,8.33429309 0.955566316,8.1809306 C0.863241068,8.0275681 0.817078444,7.93650912 0.817078444,7.90775365 C0.817078444,7.8981685 0.840159756,7.89337592 0.88632238,7.89337592 C1.05250783,7.89337592 1.22330953,7.82627983 1.39872751,7.69208765 C1.57414548,7.55789546 1.66185446,7.33743688 1.66185446,7.03071189 C1.66185446,6.79108299 1.58799426,6.58979471 1.44027387,6.42684706 C1.29255347,6.26389941 1.08482166,6.17763301 0.817078444,6.16804785 Z"></path>
                </g>
            </g>
        </g>
        <g id="latex-eq" transform="translate(486.000000, 268.000000)" fill="#000000" fill-rule="nonzero">
            <g id="Group" transform="translate(9.500000, 6.500000) scale(-1, 1) rotate(-180.000000) translate(-9.500000, -6.500000) ">
                <g transform="translate(0.000000, 2.901371)" id="MJMATHI-78">
                    <path d="M0.359309737,6.21722288 C0.457943783,6.79749702 0.838389387,7.46757549 1.50064655,8.22745828 C2.16290371,8.98734108 2.98015723,9.3741905 3.95240711,9.38800656 C4.44557734,9.38800656 4.89647583,9.2636621 5.30510259,9.01497318 C5.71372935,8.76628427 6.01667678,8.45542312 6.21394487,8.08238975 C6.80574914,8.95280095 7.51732333,9.38800656 8.34866742,9.38800656 C8.87001881,9.38800656 9.3209173,9.23603 9.70136291,8.93207688 C10.0818085,8.62812376 10.2790766,8.22055026 10.2931672,7.70935638 C10.2931672,7.3086909 10.1945331,6.98401371 9.99726504,6.73532479 C9.79999695,6.48663588 9.60977415,6.33465932 9.42659664,6.27939511 C9.24341912,6.22413091 9.08137748,6.19649881 8.9404717,6.19649881 C8.67275072,6.19649881 8.45434676,6.27248709 8.28525982,6.42446365 C8.11617289,6.57644021 8.03162942,6.77677294 8.03162942,7.02546186 C8.03162942,7.6610002 8.38389387,8.0962058 9.08842277,8.33107867 C8.93342641,8.51068733 8.65161485,8.60049166 8.24298809,8.60049166 C8.05981058,8.60049166 7.92595009,8.58667561 7.84140662,8.5590435 C7.30596466,8.33798669 6.91142848,7.88205701 6.65779807,7.19125447 C5.8123634,4.13790723 5.38964606,2.35563667 5.38964606,1.84444279 C5.38964606,1.45759337 5.50237068,1.18127235 5.72781993,1.01547974 C5.95326918,0.849687128 6.19985429,0.766790822 6.46757527,0.766790822 C6.98892665,0.766790822 7.50323275,0.994755662 8.01049355,1.45068534 C8.51775436,1.90661502 8.86297352,2.46616508 9.04615103,3.12933552 C9.08842277,3.26749603 9.1306945,3.34348431 9.17296623,3.35730036 C9.21523797,3.37111641 9.32796259,3.38493246 9.5111401,3.39874851 L9.59568357,3.39874851 C9.80704224,3.39874851 9.91272158,3.34348431 9.91272158,3.2329559 C9.91272158,3.21913985 9.898631,3.14315157 9.87044984,3.00499106 C9.64500059,2.21747616 9.20819268,1.51976559 8.56002609,0.911859356 C7.91185951,0.303953119 7.15801359,0 6.29848834,0 C5.31214788,0 4.56534725,0.435205602 4.05808644,1.30561681 C3.48037275,0.449021653 2.81811559,0.0207240763 2.07131496,0.0207240763 L1.94449975,0.0207240763 C1.25406144,0.0207240763 0.760891208,0.200332737 0.464989072,0.55955006 C0.169086935,0.918767382 0.0140905779,1.29870878 0,1.69937426 C0,2.14148788 0.13386049,2.5007052 0.401581471,2.77702622 C0.669302452,3.05334724 0.986340455,3.19150775 1.35269548,3.19150775 C1.95859033,3.19150775 2.26153776,2.90137068 2.26153776,2.32109654 C2.26153776,2.04477553 2.17699429,1.80299464 2.00790736,1.59575387 C1.83882042,1.38851311 1.67677877,1.2503526 1.52178242,1.18127235 C1.36678606,1.11219209 1.2751973,1.07765197 1.24701615,1.07765197 L1.18360855,1.05692789 C1.18360855,1.04311184 1.22588028,1.01547974 1.31042375,0.974031585 C1.39496722,0.932583433 1.50769184,0.884227255 1.64859762,0.828963051 C1.7895034,0.773698848 1.92336389,0.752974772 2.05017909,0.766790822 C2.55743989,0.766790822 2.99424781,1.07765197 3.36060284,1.69937426 C3.48741804,1.92043107 3.64945968,2.3901768 3.84672778,3.10861144 C4.04399587,3.82704609 4.24126396,4.57311283 4.43853205,5.34681168 C4.63580014,6.12051053 4.74852476,6.57644021 4.77670592,6.71460072 C4.84715881,7.08763409 4.88238525,7.35704708 4.88238525,7.52283969 C4.88238525,7.90968911 4.77670592,8.18601013 4.56534725,8.35180274 C4.35398858,8.51759535 4.11444876,8.60049166 3.84672778,8.60049166 C3.28310466,8.60049166 2.75470799,8.37943484 2.26153776,7.93732122 C1.76836753,7.49520759 1.42314837,6.9287495 1.22588028,6.23794696 C1.19769912,6.1136025 1.16247268,6.04452225 1.12020095,6.0307062 C1.07792921,6.01689015 0.965204588,6.0030741 0.782027075,5.98925805 L0.486124939,5.98925805 C0.401581471,6.07215435 0.359309737,6.14814263 0.359309737,6.21722288 Z"></path>
                </g>
                <g transform="translate(12.589452, 0.008476)" id="MJMAIN-31">
                    <path d="M1.94259753,8.46881088 L1.74833777,8.39555127 C1.60886923,8.34671153 1.40962846,8.29787179 1.15061546,8.24903205 C0.891602455,8.20019231 0.602703335,8.16600449 0.2839181,8.14646859 L0,8.14646859 L0,8.820457 L0.2839181,8.820457 C0.752133914,8.8399929 1.18548259,8.91325251 1.58396414,9.04023583 C1.98244568,9.16721915 2.26138276,9.28443453 2.42077538,9.39188196 C2.580168,9.49932939 2.71963654,9.60677681 2.839181,9.71422424 C2.85910508,9.74352808 2.91887731,9.75818001 3.0184977,9.75818001 C3.10815604,9.75818001 3.19283337,9.72887616 3.27252968,9.67026847 L3.27252968,5.28934382 L3.28747274,0.893767238 C3.35720701,0.825391602 3.41697924,0.781435836 3.46678943,0.76189994 C3.51659963,0.742364044 3.63614409,0.722828149 3.82542282,0.703292253 C4.01470155,0.683756357 4.32352475,0.673988409 4.75189241,0.673988409 L5.14041192,0.673988409 L5.14041192,0 L4.97603828,0 C4.76683547,0.0293038439 3.9748534,0.0439557658 2.60009207,0.0439557658 C1.24525482,0.0439557658 0.463234795,0.0293038439 0.254031984,0 L0.0747152895,0 L0.0747152895,0.673988409 L0.463234795,0.673988409 C0.682399644,0.673988409 0.871678377,0.673988409 1.03107099,0.673988409 C1.19046361,0.673988409 1.31498909,0.678872383 1.40464744,0.688640331 C1.49430579,0.698408279 1.5740021,0.713060201 1.64373637,0.732596097 C1.71347064,0.752131992 1.75331879,0.76189994 1.76328083,0.76189994 C1.77324287,0.76189994 1.80312899,0.78631981 1.85293918,0.83515955 C1.90274937,0.88399929 1.93263549,0.903535186 1.94259753,0.893767238 L1.94259753,8.46881088 Z"></path>
                </g>
            </g>
        </g>
        <text id="=" font-family="Helvetica" font-size="33" font-weight="normal" fill="#000000">
            <tspan x="306" y="164">=</tspan>
        </text>
        <g id="latex-eq" transform="translate(558.000000, 131.000000)" fill="#000000" fill-rule="nonzero">
            <g id="Group" transform="translate(9.000000, 7.500000) scale(-1, 1) rotate(-180.000000) translate(-9.000000, -7.500000) ">
                <g transform="translate(0.000000, 3.378898)" id="MJMATHI-72">
                    <path d="M0,7.19222612 C0.0160356332,7.2404961 0.0320712665,7.30485606 0.0481068997,7.38530602 C0.064142533,7.46575598 0.104231616,7.64274588 0.168374149,7.91627573 C0.232516682,8.18980559 0.312694848,8.43920045 0.408908648,8.66446033 C0.505122447,8.88972021 0.625389697,9.15520507 0.769710396,9.4609149 C0.914031095,9.76662474 1.07438743,10.0079746 1.25077939,10.1849645 C1.42717136,10.3619544 1.63563459,10.5389443 1.87616909,10.7159342 C2.11670359,10.8929241 2.38129154,10.9653291 2.66993294,10.9331491 C3.1349663,10.9331491 3.54387495,10.8366092 3.89665888,10.6435293 C4.24944281,10.4504494 4.49799513,10.2734595 4.64231583,10.1125595 C4.78663652,9.95165964 4.87483251,9.79075972 4.90690377,9.62985981 C4.93897504,9.53331986 4.96302849,9.48504989 4.97906412,9.48504989 C4.99509976,9.48504989 5.05924229,9.54136486 5.17149172,9.6539948 C5.94120212,10.4906743 6.83117976,10.9090141 7.84142466,10.9090141 L7.91358501,10.9090141 C8.6832954,10.9090141 9.2605782,10.5791693 9.6454334,9.91947965 C9.77371847,9.61376982 9.837861,9.31610498 9.837861,9.02648513 C9.837861,8.54378539 9.73362938,8.1576256 9.52516615,7.86800576 C9.31670292,7.57838592 9.10823969,7.39335102 8.89977645,7.31290106 C8.69131322,7.2324511 8.49086781,7.20027112 8.29844021,7.21636111 C7.97772754,7.21636111 7.72115741,7.30485606 7.52872981,7.48184597 C7.33630221,7.65883587 7.24008841,7.89214075 7.24008841,8.18176059 C7.24008841,8.95408017 7.68908614,9.4689599 8.5870816,9.72639976 C8.23429767,9.93556964 7.94565627,10.0401546 7.72115741,10.0401546 C6.82316195,10.0401546 5.99732684,9.44482491 5.24365207,8.25416555 C5.08329574,7.99672569 4.96302849,7.73124083 4.88285032,7.45771098 C4.80267216,7.18418113 4.53006639,6.1141967 4.06503303,4.24775771 C3.5198215,1.99515892 3.20712665,0.796454571 3.12694848,0.651644649 C2.91848525,0.217214883 2.57371914,0 2.09265014,0 C1.88418691,0 1.71581276,0.048269974 1.58752769,0.144809922 C1.45924263,0.24134987 1.37104664,0.337889818 1.32293974,0.434429766 C1.27483284,0.530969714 1.25879721,0.61141967 1.27483284,0.675779636 C1.27483284,0.884949523 1.59554551,2.26868878 2.23697084,4.8269974 C2.87839617,7.38530602 3.19910883,8.80927025 3.19910883,9.0988901 C3.19910883,9.72639976 2.9906456,10.0401546 2.57371914,10.0401546 C2.23697084,10.0401546 1.94832944,9.81489471 1.70779494,9.36437495 C1.46726044,8.9138552 1.27483284,8.42311046 1.13051214,7.89214075 C0.986191445,7.36117103 0.897995462,7.07155119 0.865924195,7.02328121 C0.833852929,6.99110123 0.705567863,6.97501124 0.481068997,6.97501124 L0.144320699,6.97501124 C0.0481068997,7.07155119 0,7.14395615 0,7.19222612 Z"></path>
                </g>
                <g transform="translate(11.756051, 0.009871)" id="MJMAIN-31">
                    <path d="M2.21075258,9.86266589 L1.98967732,9.77734872 C1.83095662,9.7204706 1.60421277,9.66359248 1.30944576,9.60671436 C1.01467875,9.54983624 0.685900159,9.51002155 0.323109992,9.48727031 L0,9.48727031 L0,10.2721884 L0.323109992,10.2721884 C0.855958049,10.2949396 1.34912593,10.3802568 1.80261364,10.5281399 C2.25610135,10.676023 2.57354274,10.8125305 2.75493783,10.9376623 C2.93633291,11.0627942 3.09505361,11.1879261 3.23109992,11.3130579 C3.25377431,11.3471848 3.32179746,11.3642482 3.43516939,11.3642482 C3.53720412,11.3642482 3.63357026,11.3301214 3.7242678,11.2618676 L3.7242678,6.15990032 L3.74127359,1.04086958 C3.82063394,0.961240217 3.8886571,0.910049909 3.94534306,0.887298662 C4.00202903,0.864547414 4.13807534,0.841796166 4.353482,0.819044919 C4.56888866,0.796293671 4.92034163,0.784918047 5.40784092,0.784918047 L5.84999144,0.784918047 L5.84999144,0 L5.66292776,0 C5.42484671,0.0341268716 4.52353989,0.0511903074 2.9590073,0.0511903074 C1.41714909,0.0511903074 0.527179461,0.0341268716 0.289098414,0 L0.0850289453,0 L0.0850289453,0.784918047 L0.527179461,0.784918047 C0.7765977,0.784918047 0.992004362,0.784918047 1.17339945,0.784918047 C1.35479453,0.784918047 1.49650944,0.790605859 1.59854417,0.801981483 C1.70057891,0.813357107 1.79127645,0.830420542 1.8706368,0.85317179 C1.94999715,0.875923038 1.99534592,0.887298662 2.00668311,0.887298662 C2.0180203,0.887298662 2.05203188,0.915737721 2.10871784,0.972615841 C2.16540381,1.02949396 2.19941539,1.05224521 2.21075258,1.04086958 L2.21075258,9.86266589 Z"></path>
                </g>
            </g>
        </g>
        <g id="latex-eq" transform="translate(704.000000, 129.000000)" fill="#000000" fill-rule="nonzero">
            <g id="Group" transform="translate(9.000000, 7.500000) scale(-1, 1) rotate(-180.000000) translate(-9.000000, -7.500000) ">
                <g transform="translate(0.000000, 3.368984)" id="MJMATHI-72">
                    <path d="M0,7.17112299 C0.0153061224,7.21925134 0.0306122449,7.28342246 0.0459183673,7.36363636 C0.0612244898,7.44385027 0.0994897959,7.62032086 0.160714286,7.89304813 C0.221938776,8.1657754 0.298469388,8.4144385 0.390306122,8.63903743 C0.482142857,8.86363636 0.596938776,9.12834225 0.734693878,9.43315508 C0.87244898,9.73796791 1.0255102,9.97860963 1.19387755,10.1550802 C1.3622449,10.3315508 1.56122449,10.5080214 1.79081633,10.684492 C2.02040816,10.8609626 2.27295918,10.9331551 2.54846939,10.9010695 C2.99234694,10.9010695 3.38265306,10.8048128 3.71938776,10.6122995 C4.05612245,10.4197861 4.29336735,10.2433155 4.43112245,10.0828877 C4.56887755,9.92245989 4.65306122,9.76203209 4.68367347,9.60160428 C4.71428571,9.50534759 4.7372449,9.45721925 4.75255102,9.45721925 C4.76785714,9.45721925 4.82908163,9.51336898 4.93622449,9.62566845 C5.67091837,10.459893 6.52040816,10.8770053 7.48469388,10.8770053 L7.55357143,10.8770053 C8.28826531,10.8770053 8.83928571,10.5481283 9.20663265,9.89037433 C9.32908163,9.5855615 9.39030612,9.28877005 9.39030612,9 C9.39030612,8.51871658 9.29081633,8.13368984 9.09183673,7.84491979 C8.89285714,7.55614973 8.69387755,7.37165775 8.49489796,7.29144385 C8.29591837,7.21122995 8.10459184,7.17914439 7.92091837,7.19518717 C7.61479592,7.19518717 7.36989796,7.28342246 7.18622449,7.45989305 C7.00255102,7.63636364 6.91071429,7.86898396 6.91071429,8.15775401 C6.91071429,8.92780749 7.33928571,9.44117647 8.19642857,9.69786096 C7.85969388,9.90641711 7.58418367,10.0106952 7.36989796,10.0106952 C6.5127551,10.0106952 5.7244898,9.4171123 5.00510204,8.22994652 C4.85204082,7.97326203 4.7372449,7.70855615 4.66071429,7.43582888 C4.58418367,7.1631016 4.32397959,6.09625668 3.88010204,4.23529412 C3.35969388,1.98930481 3.06122449,0.794117647 2.98469388,0.64973262 C2.78571429,0.21657754 2.45663265,0 1.99744898,0 C1.79846939,0 1.6377551,0.0481283422 1.51530612,0.144385027 C1.39285714,0.240641711 1.30867347,0.336898396 1.2627551,0.43315508 C1.21683673,0.529411765 1.20153061,0.609625668 1.21683673,0.673796791 C1.21683673,0.882352941 1.52295918,2.26203209 2.13520408,4.81283422 C2.74744898,7.36363636 3.05357143,8.78342246 3.05357143,9.07219251 C3.05357143,9.69786096 2.85459184,10.0106952 2.45663265,10.0106952 C2.13520408,10.0106952 1.85969388,9.78609626 1.63010204,9.3368984 C1.4005102,8.88770053 1.21683673,8.39839572 1.07908163,7.86898396 C0.941326531,7.33957219 0.857142857,7.05080214 0.826530612,7.0026738 C0.795918367,6.97058824 0.673469388,6.95454545 0.459183673,6.95454545 L0.137755102,6.95454545 C0.0459183673,7.05080214 0,7.12299465 0,7.17112299 Z"></path>
                </g>
                <g transform="translate(10.685571, 0.009842)" id="MJMAIN-32">
                    <path d="M0.957696429,7.29873529 C0.665517857,7.29873529 0.432857143,7.40081551 0.259714286,7.60497594 C0.0865714286,7.80913636 0,8.05866578 0,8.35356417 C0,9.15886364 0.286767857,9.85641176 0.860303571,10.4462086 C1.43383929,11.0360053 2.14805357,11.3309037 3.00294643,11.3309037 C3.98769643,11.3309037 4.810125,11.0133209 5.47023214,10.3781551 C6.13033929,9.7429893 6.46580357,8.92067647 6.476625,7.91121658 C6.476625,7.4235 6.36841071,6.95846791 6.15198214,6.51612032 C5.93555357,6.07377273 5.67583929,5.68813636 5.37283929,5.35921123 C5.06983929,5.0302861 4.63698214,4.61062299 4.07426786,4.10022193 C3.68469643,3.7486123 3.143625,3.22686898 2.45105357,2.53499198 L1.49335714,1.58224332 L2.727,1.56522995 C4.42596429,1.56522995 5.32955357,1.59358556 5.43776786,1.65029679 C5.51351786,1.67298128 5.643375,2.17771123 5.82733929,3.16448663 L5.82733929,3.21552674 L6.476625,3.21552674 L6.476625,3.16448663 C6.46580357,3.13045989 6.39546429,2.6143877 6.26560714,1.61627005 C6.13575,0.618152406 6.05458929,0.0964090909 6.022125,0.051040107 L6.022125,0 L0,0 L0,0.323254011 L0,0.527414439 C0,0.60681016 0.0324642857,0.691877005 0.0973928571,0.782614973 C0.162321429,0.873352941 0.324642857,1.07184225 0.584357143,1.37808289 C0.898178571,1.74103476 1.16871429,2.05861765 1.39596429,2.33083155 C1.49335714,2.44425401 1.67732143,2.65408556 1.94785714,2.9603262 C2.21839286,3.26656684 2.40235714,3.4763984 2.49975,3.58982086 C2.59714286,3.70324332 2.75405357,3.89039037 2.97048214,4.15126203 C3.18691071,4.41213369 3.33841071,4.60495187 3.42498214,4.72971658 C3.51155357,4.85448128 3.636,5.02461497 3.79832143,5.24011765 C3.96064286,5.45562032 4.07426786,5.63709626 4.13919643,5.78454545 C4.204125,5.93199465 4.28528571,6.09645722 4.38267857,6.27793316 C4.48007143,6.45940909 4.55041071,6.64088503 4.59369643,6.82236096 C4.63698214,7.0038369 4.67485714,7.17397059 4.70732143,7.33276203 C4.73978571,7.49155348 4.75601786,7.67870053 4.75601786,7.89420321 C4.75601786,8.60876471 4.57205357,9.22691711 4.204125,9.74866043 C3.83619643,10.2704037 3.31135714,10.5312754 2.62960714,10.5312754 C2.2725,10.5312754 1.95867857,10.4348663 1.68814286,10.2420481 C1.41760714,10.0492299 1.22823214,9.86208289 1.12001786,9.68060695 C1.01180357,9.49913102 0.957696429,9.39137968 0.957696429,9.35735294 C0.957696429,9.3460107 0.98475,9.34033957 1.03885714,9.34033957 C1.23364286,9.34033957 1.43383929,9.26094385 1.63944643,9.10215241 C1.84505357,8.94336096 1.94785714,8.6824893 1.94785714,8.31953743 C1.94785714,8.03598128 1.86128571,7.79779412 1.68814286,7.60497594 C1.515,7.41215775 1.27151786,7.31007754 0.957696429,7.29873529 Z"></path>
                </g>
            </g>
        </g>
        <circle id="Oval-13" fill="#00A88F" cx="757.5" cy="151.5" r="4.5"></circle>
        <circle id="Oval-13-Copy" fill="#00A88F" cx="776.5" cy="151.5" r="4.5"></circle>
        <circle id="Oval-13-Copy-2" fill="#00A88F" cx="795.5" cy="151.5" r="4.5"></circle>
        <g id="Group" transform="translate(866.000000, 146.000000) scale(-1, 1) rotate(-180.000000) translate(-866.000000, -146.000000) translate(814.000000, 12.000000)" fill="#000000" fill-rule="nonzero">
            <g id="Group-2" transform="translate(0.000000, 136.000000)">
                <g id="Group" transform="translate(0.000000, 3.000000)">
                    <path d="M0,7.33089793 C0.014612711,7.38009859 0.029225422,7.44569946 0.0438381329,7.52770056 C0.0584508439,7.60970165 0.0949826213,7.79010406 0.153433465,8.06890779 C0.211884309,8.34771151 0.284947864,8.60191491 0.37262413,8.83151798 C0.460300396,9.06112104 0.569895728,9.33172466 0.701410127,9.64332882 C0.832924526,9.95493298 0.979051635,10.2009363 1.13979146,10.3813387 C1.30053128,10.5617411 1.49049652,10.7421435 1.70968718,10.9225459 C1.92887785,11.1029483 2.16998758,11.1767493 2.43301638,11.1439489 C2.856785,11.1439489 3.22940913,11.0455476 3.55088877,10.8487449 C3.87236841,10.6519423 4.09886543,10.4715399 4.23037983,10.3075377 C4.36189423,10.1435355 4.44226414,9.97953331 4.47148956,9.81553112 C4.50071498,9.71712981 4.52263405,9.66792915 4.53724676,9.66792915 C4.55185947,9.66792915 4.61031031,9.72532992 4.71259929,9.84013145 C5.41400942,10.6929428 6.22501488,11.1193485 7.14561567,11.1193485 L7.21137287,11.1193485 C7.91278299,11.1193485 8.43884059,10.783144 8.78954565,10.1107351 C8.90644734,9.7991309 8.96489818,9.49572685 8.96489818,9.20052291 C8.96489818,8.70851633 8.86991556,8.31491108 8.67995032,8.01970713 C8.48998508,7.72450319 8.30001983,7.53590067 8.11005459,7.45389957 C7.92008935,7.37189848 7.73743046,7.33909804 7.56207793,7.35549826 C7.26982371,7.35549826 7.03602034,7.44569946 6.8606678,7.62610187 C6.68531527,7.80650428 6.59763901,8.04430746 6.59763901,8.3395114 C6.59763901,9.12672192 7.00679491,9.65152893 7.82510673,9.91393244 C7.50362709,10.1271353 7.24059829,10.2337367 7.03602034,10.2337367 C6.21770852,10.2337367 5.46515391,9.6269286 4.77835649,8.41331239 C4.63222938,8.15090888 4.52263405,7.88030527 4.44957049,7.60150154 C4.37650694,7.32269782 4.12809085,6.23208325 3.70432223,4.32965784 C3.20749006,2.03362717 2.9225422,0.811810845 2.84947864,0.664208873 C2.6595134,0.221402958 2.34534011,0 1.90695878,0 C1.71699354,0 1.56356007,0.0492006572 1.44665839,0.147601972 C1.3297567,0.246003286 1.24938679,0.344404601 1.20554866,0.442805915 C1.16171052,0.54120723 1.14709781,0.623208325 1.16171052,0.688809201 C1.16171052,0.90201205 1.45396474,2.31243089 2.03847318,4.92006572 C2.62298162,7.52770056 2.91523584,8.97911995 2.91523584,9.27432389 C2.91523584,9.91393244 2.7252706,10.2337367 2.34534011,10.2337367 C2.03847318,10.2337367 1.77544438,10.0041336 1.55625372,9.54492751 C1.33706305,9.08572137 1.16171052,8.58551469 1.03019612,8.04430746 C0.898681725,7.50310023 0.818311815,7.20789629 0.789086393,7.15869563 C0.759860971,7.12589519 0.642959283,7.10949497 0.438381329,7.10949497 L0.131514399,7.10949497 C0.0438381329,7.20789629 0,7.28169727 0,7.33089793 Z" id="MJMATHI-72"></path>
                </g>
                <g id="Group" transform="translate(10.000000, 0.000000)">
                    <g transform="translate(0.020521, 0.000000)" id="MJMATHI-54">
                        <path d="M0.325444974,7.60049293 C0.108481658,7.60049293 0,7.64687275 0,7.73963239 C0,7.79760716 0.0913529753,8.1222659 0.274058926,8.7136086 C0.456764876,9.3049513 0.650889949,9.89049652 0.856434143,10.4702443 L1.14762175,11.3224735 C1.20471736,11.5311826 1.27894165,11.6819171 1.37029463,11.7746767 L9.38651821,11.7746767 L10.9280997,11.7746767 C11.2935116,11.7746767 11.5104749,11.7688792 11.5789896,11.7572843 C11.6475043,11.7456893 11.6874713,11.693512 11.6988904,11.6007524 C11.6988904,11.5311826 11.6018279,10.8702702 11.4077028,9.61801508 C11.2135777,8.36575995 11.1050961,7.73383491 11.0822578,7.72223996 C11.0822578,7.64107527 10.9737762,7.60049293 10.7568128,7.60049293 C10.6540407,7.60049293 10.585526,7.60049293 10.5512686,7.60049293 C10.5170113,7.60049293 10.4827539,7.62948032 10.4484965,7.68745509 L10.4142392,7.73963239 C10.4142392,7.80920212 10.4484965,8.0700886 10.5170113,8.52229185 C10.585526,8.97449509 10.6197834,9.32814121 10.6197834,9.58323022 C10.6197834,9.98905364 10.5455591,10.2963199 10.3971105,10.5050291 C10.2486619,10.7137383 9.93463606,10.8586753 9.45503294,10.9398399 C9.39793733,10.9514349 9.0667828,10.9630299 8.46156934,10.9746248 C7.93628973,10.9746248 7.60513519,10.9688273 7.46810573,10.9572324 C7.33107627,10.9456374 7.22830417,10.8992576 7.15978944,10.8180929 C7.14837032,10.806498 6.74299149,9.18900175 5.94365295,5.96560429 C5.14431442,2.74220683 4.74464515,1.10152071 4.74464515,1.04354594 C4.74464515,0.904406482 5.24708652,0.823241797 6.25196925,0.800051888 C6.61738115,0.800051888 6.85147315,0.79425441 6.95424524,0.782659455 C7.05701734,0.7710645 7.10840339,0.718887203 7.10840339,0.626127564 C7.10840339,0.56815279 7.09127471,0.486988105 7.05701734,0.382633511 C7.01134085,0.173924323 6.9599548,0.052177297 6.90285919,0.0173924323 L6.86860183,0 C6.83434446,0 6.79437754,0 6.74870105,0 C6.69160544,0 6.39470827,0.00579747745 5.85800954,0.0173924323 C5.32131081,0.0289873872 4.55052008,0.0347848647 3.54563735,0.0347848647 C2.07257063,0.0347848647 1.13620263,0.0231899098 0.736533363,0 L0.47960312,0 C0.411088389,0.0695697293 0.376831023,0.121747026 0.376831023,0.156531891 C0.376831023,0.191316756 0.388250145,0.29567135 0.411088389,0.469595673 C0.456764876,0.620330087 0.513860486,0.730482158 0.582375217,0.800051888 L1.06197834,0.800051888 L1.25039385,0.800051888 C2.1639236,0.800051888 2.70633189,0.852229185 2.87761872,0.956583779 C2.88903784,0.968178733 2.90045697,0.973976211 2.91187609,0.973976211 C2.9689717,1.00876108 3.02606731,1.12471062 3.08316292,1.32182486 C3.14025853,1.51893909 3.36864096,2.42914305 3.76831023,4.05243673 C3.9624353,4.84089367 4.12230301,5.48441366 4.24791335,5.98299672 C5.04725188,9.17160932 5.44692115,10.8007005 5.44692115,10.8702702 C5.44692115,10.928245 5.28134388,10.9572324 4.95018935,10.9572324 L4.41920018,10.9572324 C3.65411901,10.9572324 3.15167765,10.9224475 2.91187609,10.8528778 C2.3980156,10.7369282 1.99834633,10.4992317 1.71286829,10.1397881 C1.42739024,9.78034445 1.11907395,9.10783707 0.787919412,8.1222659 C0.707985558,7.86717689 0.650889949,7.71644248 0.616632583,7.67006266 C0.582375217,7.62368284 0.502441364,7.60049293 0.376831023,7.60049293 L0.325444974,7.60049293 Z"></path>
                    </g>
                    <g transform="translate(13.158220, 4.000259)" id="MJMAIN-2212">
                        <path d="M0,0.121747026 C0,0.121747026 0,0.197114233 0,0.347848647 C0,0.49858306 0.0799338534,0.614532609 0.23980156,0.695697293 L10.1915663,0.695697293 C10.3628531,0.602937654 10.4484965,0.486988105 10.4484965,0.347848647 C10.4484965,0.208709188 10.3628531,0.0927596391 10.1915663,0 L0.23980156,0 C0.0799338534,0.0811646842 0,0.197114233 0,0.347848647 L0,0.121747026 Z"></path>
                    </g>
                    <g transform="translate(26.484336, 0.000000)" id="MJMAIN-31">
                        <path d="M2.22672877,10.0528259 L2.0040559,9.96586373 C1.84418819,9.90788895 1.61580575,9.84991418 1.31890858,9.79193941 C1.02201141,9.73396463 0.690856876,9.69338229 0.325444974,9.67019238 L0,9.67019238 L0,10.4702443 L0.325444974,10.4702443 C0.862143704,10.4934342 1.35887551,10.5803963 1.81564038,10.7311308 C2.27240526,10.8818652 2.59214067,11.0210046 2.77484662,11.1485491 C2.95755257,11.2760936 3.11742028,11.4036381 3.25444974,11.5311826 C3.27728799,11.5659675 3.34580272,11.5833599 3.45999394,11.5833599 C3.56276604,11.5833599 3.65982857,11.5485751 3.75118155,11.4790053 L3.75118155,6.27866807 L3.76831023,1.06093837 C3.84824408,0.979773688 3.91675882,0.927596391 3.97385442,0.904406482 C4.03095003,0.881216572 4.1679795,0.858026662 4.38494281,0.834836752 C4.60190613,0.811646842 4.95589891,0.800051888 5.44692115,0.800051888 L5.89226691,0.800051888 L5.89226691,0 L5.70385139,0 C5.46404983,0.0347848647 4.55622964,0.052177297 2.98039082,0.052177297 C1.42739024,0.052177297 0.530989169,0.0347848647 0.291187609,0 L0.0856434143,0 L0.0856434143,0.800051888 L0.530989169,0.800051888 C0.782209851,0.800051888 0.999173167,0.800051888 1.18187912,0.800051888 C1.36458507,0.800051888 1.50732409,0.805849365 1.61009619,0.81744432 C1.71286829,0.829039275 1.80422126,0.846431707 1.88415512,0.869621617 C1.96408897,0.892811527 2.00976546,0.904406482 2.02118458,0.904406482 C2.0326037,0.904406482 2.06686107,0.933393869 2.12395668,0.991368643 C2.18105228,1.04934342 2.21530965,1.07253333 2.22672877,1.06093837 L2.22672877,10.0528259 Z"></path>
                    </g>
                </g>
            </g>
            <g transform="translate(81.000000, 0.000000)">
                <g transform="translate(0.000000, 2.798287)" id="MJMATHI-78">
                    <path d="M0.350330379,5.9963301 C0.446499502,6.55598758 0.81743755,7.20225871 1.46314452,7.9351435 C2.10885149,8.66802829 2.90568137,9.04113328 3.85363416,9.05445845 C4.33447978,9.05445845 4.77411006,8.93453185 5.172525,8.69467865 C5.57093994,8.45482544 5.86631653,8.15500894 6.05865478,7.79522913 C6.63566952,8.63471535 7.32946106,9.05445845 8.14002938,9.05445845 C8.64835189,9.05445845 9.08798217,8.9078815 9.45892022,8.61472758 C9.82985827,8.32157366 10.0221965,7.92848091 10.035935,7.43544933 C10.035935,7.04901916 9.93976584,6.73587748 9.74742759,6.49602428 C9.55508934,6.25617107 9.36962032,6.10959412 9.19102052,6.0562934 C9.01242072,6.00299269 8.85442859,5.97634234 8.71704412,5.97634234 C8.45601365,5.97634234 8.24306773,6.04963081 8.07820638,6.19620777 C7.91334502,6.34278473 7.83091434,6.53599981 7.83091434,6.77585302 C7.83091434,7.3888112 8.1743755,7.80855431 8.86129781,8.03508234 C8.7101749,8.20830965 8.43540598,8.29492331 8.03699104,8.29492331 C7.85839124,8.29492331 7.727876,8.28159813 7.64544532,8.25494777 C7.12338436,8.04174493 6.73870787,7.60201405 6.49141584,6.93575515 C5.66710906,3.99089081 5.25495568,2.27194285 5.25495568,1.77891126 C5.25495568,1.40580628 5.36486325,1.13930272 5.58467839,0.979400583 C5.80449353,0.819498447 6.04491634,0.739547379 6.30594681,0.739547379 C6.81426932,0.739547379 7.31572261,0.959412816 7.81030667,1.39914369 C8.30489074,1.83887456 8.64148267,2.37854427 8.82008247,3.01815282 C8.86129781,3.1514046 8.90251315,3.22469308 8.94372849,3.23801826 C8.98494383,3.25134343 9.0948514,3.26466861 9.2734512,3.27799379 L9.35588187,3.27799379 C9.56195857,3.27799379 9.66499691,3.22469308 9.66499691,3.11809165 C9.66499691,3.10476648 9.65125847,3.031478 9.62378158,2.89822622 C9.40396644,2.13869107 8.9780746,1.46576958 8.34610608,0.879461748 C7.71413755,0.293153916 6.97913068,0 6.14108546,0 C5.17939422,0 4.45125657,0.419743107 3.95667251,1.25922932 C3.39339622,0.433068285 2.74768924,0.019987767 2.01955159,0.019987767 L1.89590558,0.019987767 C1.22272171,0.019987767 0.741876096,0.193215081 0.453368725,0.539669709 C0.164861355,0.886124337 0.0137384462,1.25256673 0,1.63899689 C0,2.06540259 0.130515239,2.41185722 0.391545717,2.67836078 C0.652576195,2.94486434 0.961691235,3.07811612 1.31889084,3.07811612 C1.90964402,3.07811612 2.20502062,2.79828738 2.20502062,2.2386299 C2.20502062,1.97212634 2.12258994,1.73893573 1.95772859,1.53905806 C1.79286723,1.33918039 1.6348751,1.20592861 1.48375219,1.13930272 C1.33262928,1.07267683 1.24332938,1.03936388 1.21585249,1.03936388 L1.15402948,1.01937612 C1.15402948,1.00605094 1.19524482,0.979400583 1.2776755,0.939425049 C1.36010618,0.899449515 1.47001375,0.852811392 1.60739821,0.79951068 C1.74478267,0.746209968 1.87529791,0.726222201 1.99894392,0.739547379 C2.49352799,0.739547379 2.91941982,1.03936388 3.27661942,1.63899689 C3.40026544,1.85219974 3.55825757,2.30525579 3.75059582,2.99816505 C3.94293406,3.69107431 4.13527231,4.41063392 4.32761056,5.15684389 C4.51994881,5.90305386 4.62985638,6.34278473 4.65733327,6.47603651 C4.7260255,6.83581632 4.76037161,7.09565729 4.76037161,7.25555942 C4.76037161,7.62866441 4.65733327,7.89516797 4.45125657,8.0550701 C4.24517988,8.21497224 4.0116263,8.29492331 3.75059582,8.29492331 C3.20105797,8.29492331 2.68586624,8.08172046 2.20502062,7.65531476 C1.724175,7.22890907 1.38758307,6.68257677 1.19524482,6.01631787 C1.16776793,5.89639127 1.13342181,5.82976538 1.09220647,5.8164402 C1.05099114,5.80311502 0.941083566,5.78978984 0.762483765,5.77646467 L0.473976395,5.77646467 C0.391545717,5.85641573 0.350330379,5.92970421 0.350330379,5.9963301 Z"></path>
                </g>
                <g transform="translate(11.371518, 0.008175)" id="MJMATHI-54">
                    <path d="M0.276822822,6.17540051 C0.092274274,6.17540051 0,6.21308411 0,6.28845132 C0,6.33555582 0.0777046518,6.59934105 0.233113955,7.07980699 C0.388523259,7.56027293 0.553645644,8.03602842 0.728481111,8.50707347 L0.976164688,9.19950968 C1.0247301,9.36908589 1.08786513,9.49155761 1.16556978,9.56692481 L7.98415297,9.56692481 L9.29541897,9.56692481 C9.60623758,9.56692481 9.79078613,9.56221436 9.84906462,9.55279346 C9.90734311,9.54337256 9.94133889,9.50097851 9.95105197,9.4256113 C9.95105197,9.36908589 9.86849078,8.83209455 9.70336839,7.81463725 C9.53824601,6.79717996 9.44597174,6.28374087 9.42654557,6.27431997 C9.42654557,6.20837366 9.3342713,6.17540051 9.14972275,6.17540051 C9.06230502,6.17540051 9.00402653,6.17540051 8.97488728,6.17540051 C8.94574804,6.17540051 8.91660879,6.19895276 8.88746955,6.24605726 L8.85833031,6.28845132 C8.85833031,6.34497672 8.88746955,6.55694699 8.94574804,6.92436212 C9.00402653,7.29177726 9.03316577,7.57911473 9.03316577,7.78637455 C9.03316577,8.11610608 8.97003074,8.36575995 8.84376068,8.53533617 C8.71749062,8.70491238 8.45038088,8.82267365 8.04243146,8.88861995 C7.99386605,8.89804085 7.71218669,8.90746175 7.19739337,8.91688265 C6.75059163,8.91688265 6.46891226,8.9121722 6.35235529,8.9027513 C6.23579831,8.8933304 6.14838057,8.8556468 6.09010209,8.78970049 C6.080389,8.78027959 5.73557461,7.46606392 5.05565891,4.84705349 C4.3757432,2.22804305 4.03578535,0.894985581 4.03578535,0.847881076 C4.03578535,0.734830266 4.46316094,0.66888396 5.31791211,0.650042159 C5.62873072,0.650042159 5.82784889,0.645331708 5.91526662,0.635910807 C6.00268435,0.626489906 6.04639322,0.584095853 6.04639322,0.508728646 C6.04639322,0.461624142 6.0318236,0.395677836 6.00268435,0.310889728 C5.96383203,0.141313513 5.92012316,0.0423940538 5.87155775,0.0141313513 L5.84241851,0 C5.81327926,0 5.77928348,0 5.74043115,0 C5.69186574,0 5.43932563,0.00471045042 4.9828108,0.0141313513 C4.52629597,0.0235522521 3.87066297,0.0282627025 3.0159118,0.0282627025 C1.76292429,0.0282627025 0.966451607,0.0188418017 0.626493755,0 L0.407949422,0 C0.349670933,0.0565254051 0.320531689,0.0989194589 0.320531689,0.127182161 C0.320531689,0.155444864 0.33024477,0.240232972 0.349670933,0.381546484 C0.388523259,0.504018195 0.437088666,0.593516754 0.495367155,0.650042159 L0.903316577,0.650042159 L1.06358242,0.650042159 C1.84062894,0.650042159 2.30200031,0.692436212 2.44769653,0.77722432 C2.45740961,0.786645221 2.46712269,0.791355671 2.47683578,0.791355671 C2.52540118,0.819618374 2.57396659,0.913827382 2.622532,1.0739827 C2.67109741,1.23413801 2.86535904,1.97367873 3.20531689,3.29260485 C3.37043927,3.9332261 3.50642241,4.4560861 3.61326631,4.86118484 C4.29318201,7.45193257 4.63313986,8.77556914 4.63313986,8.83209455 C4.63313986,8.87919905 4.49230018,8.9027513 4.21062082,8.9027513 L3.75896253,8.9027513 C3.10818607,8.9027513 2.68081049,8.8744886 2.47683578,8.8179632 C2.03974711,8.72375419 1.69978926,8.53062572 1.45696222,8.23857779 C1.21413518,7.94652987 0.951881985,7.40011762 0.670202622,6.59934105 C0.602211051,6.39208123 0.553645644,6.26960952 0.5245064,6.23192591 C0.495367155,6.19424231 0.427375585,6.17540051 0.320531689,6.17540051 L0.276822822,6.17540051 Z"></path>
                </g>
            </g>
            <g transform="translate(82.000000, 248.000000)">
                <g transform="translate(0.000000, 0.758510)" id="MJMATHI-79">
                    <path d="M0,10.0861347 C0,10.2774706 0.103038347,10.605475 0.30911504,11.0701479 C0.515191733,11.5348208 0.844914442,12.0199939 1.29828317,12.5256673 C1.75165189,13.0313407 2.2599744,13.277344 2.8232507,13.2636772 C3.38652699,13.2636772 3.83989572,13.1065084 4.18335687,12.7921709 C4.52681803,12.4778334 4.70541783,12.0404942 4.71915628,11.4801534 C4.69167938,11.2204832 4.67107171,11.0769813 4.65733327,11.0496476 C4.65733327,11.0086471 4.5474257,10.6943095 4.32761056,10.106635 C4.10779542,9.51896049 3.88111106,8.8561183 3.64755747,8.11810845 C3.41400389,7.38009859 3.30409632,6.79242407 3.31783476,6.35508489 C3.31783476,5.76741038 3.41400389,5.3574049 3.60634213,5.12506846 C3.79868038,4.89273203 4.08718775,4.76973038 4.47186424,4.75606353 C4.78784851,4.75606353 5.0832251,4.8312312 5.35799402,4.98156655 C5.63276295,5.13190189 5.84570887,5.28907065 5.99683177,5.45307285 C6.14795468,5.61707504 6.33342371,5.84257805 6.55323885,6.12958188 C6.55323885,6.14324873 6.58758496,6.27991722 6.65627719,6.53958736 C6.72496942,6.79925749 6.82113855,7.20242955 6.94478456,7.74910352 C7.06843058,8.29577749 7.19894582,8.80145091 7.33633028,9.26612378 C7.85839124,11.3161512 8.14689861,12.3889988 8.20185239,12.4846668 C8.38045219,12.8536717 8.67582879,13.0381742 9.08798217,13.0381742 C9.26658197,13.0381742 9.41083566,12.9903402 9.52074323,12.8946723 C9.6306508,12.7990043 9.70621225,12.7170032 9.74742759,12.648669 C9.78864293,12.5803347 9.80238138,12.5188339 9.78864293,12.4641665 C9.78864293,12.2864975 9.452051,10.8514783 8.77886713,8.15910899 C8.10568327,5.46673969 7.72100677,3.99071998 7.62483765,3.73104984 C7.24016116,2.59670135 6.57384652,1.69468931 5.62589373,1.02501369 C4.67794094,0.35533808 3.72998815,0.0136668492 2.78203536,0 C2.16380528,0 1.62113665,0.150335342 1.15402948,0.451006025 C0.686922311,0.751676708 0.453368725,1.20268273 0.453368725,1.8040241 C0.453368725,2.10469478 0.501453287,2.35753149 0.59762241,2.56253423 C0.693791534,2.76753697 0.824306773,2.91787231 0.989168128,3.01354026 C1.15402948,3.1092082 1.29141394,3.17754245 1.40132151,3.218543 C1.51122908,3.25954354 1.62800588,3.28004382 1.75165189,3.28004382 C2.35614353,3.28004382 2.65838934,2.99303998 2.65838934,2.41903231 C2.65838934,2.14569533 2.57595867,1.90652547 2.41109731,1.70152273 C2.24623596,1.49651999 2.08824383,1.3598515 1.93712092,1.29151725 C1.78599801,1.22318301 1.69669811,1.18901588 1.66922122,1.18901588 L1.60739821,1.16851561 C1.6348751,1.10018136 1.76539034,1.01818027 1.99894392,0.922512323 C2.23249751,0.826844379 2.4660511,0.779010406 2.69960468,0.779010406 L2.86446604,0.779010406 C3.09801962,0.779010406 3.27661942,0.792677256 3.40026544,0.820010954 C3.85363416,0.943012597 4.27265677,1.20268273 4.65733327,1.59902136 C5.04200976,1.99535999 5.33738636,2.41903231 5.54346305,2.87003834 C5.74953974,3.32104436 5.90753187,3.70371614 6.01743944,4.01805368 C6.12734701,4.33239121 6.1823008,4.53739395 6.1823008,4.63306189 L6.05865478,4.5510608 C5.9762241,4.4963934 5.84570887,4.42122573 5.66710906,4.32555778 C5.48850926,4.22988984 5.30990946,4.14788874 5.13130966,4.0795545 C4.85654074,4.01122025 4.58864104,3.97705313 4.32761056,3.97705313 C3.69564203,3.97705313 3.13923496,4.12738847 2.65838934,4.42805915 C2.17754373,4.72872984 1.86155946,5.21390298 1.71043655,5.8835786 C1.69669811,5.97924654 1.68982888,6.1910827 1.68982888,6.51908709 C1.68982888,7.29809749 1.93025169,8.31627776 2.41109731,9.57362789 C2.89194293,10.830978 3.13236574,11.6304887 3.13236574,11.9721599 C3.13236574,11.9858268 3.13236574,11.9994936 3.13236574,12.0131605 C3.13236574,12.1361621 3.13236574,12.2181632 3.13236574,12.2591638 C3.13236574,12.3001643 3.10488885,12.3479983 3.04993506,12.4026657 C2.99498128,12.4573331 2.91941982,12.4846668 2.8232507,12.4846668 L2.74082002,12.4846668 C2.42483576,12.4846668 2.13632839,12.3548317 1.87529791,12.0951616 C1.61426743,11.8354914 1.40819074,11.555321 1.25706783,11.2546503 C1.10594492,10.9539797 0.989168128,10.6669758 0.90673745,10.3936388 C0.824306773,10.1203019 0.769352988,9.96996652 0.741876096,9.94263282 C0.714399203,9.91529912 0.604491634,9.90163227 0.412153387,9.90163227 L0.123646016,9.90163227 C0.0412153387,9.98363337 0,10.0451342 0,10.0861347 Z"></path>
                </g>
                <g transform="translate(3.091150, 15.641709)" id="MJMAIN-5E">
                    <path d="M0,0.594507942 L2.8232507,3.34154464 L2.98811205,3.17754245 C4.77411006,1.48285314 5.66710906,0.62184164 5.66710906,0.594507942 L5.13130966,0 C5.10383277,0.0136668492 4.70541783,0.35533808 3.93606484,1.02501369 L2.84385837,1.96802629 L1.71043655,1.00451342 C1.53183675,0.854178077 1.35323695,0.697009311 1.17463715,0.53300712 C0.996037351,0.369004929 0.851783665,0.239169862 0.741876096,0.143501917 L0.577014741,0.0205002739 C0.549537849,-0.00683342462 0.446499502,0.08883452 0.267899701,0.307504108 L0,0.594507942 Z"></path>
                </g>
                <g transform="translate(11.391734, 0.004223)" id="MJMATHI-54">
                    <path d="M0.276822822,6.33374411 C0.092274274,6.33374411 0,6.37239396 0,6.44969366 C0,6.49800597 0.0777046518,6.76855492 0.233113955,7.2613405 C0.388523259,7.75412608 0.553645644,8.24208044 0.728481111,8.72520356 L0.976164688,9.43539454 C1.0247301,9.60931887 1.08786513,9.73493088 1.16556978,9.81223058 L7.98415297,9.81223058 L9.29541897,9.81223058 C9.60623758,9.81223058 9.79078613,9.80739935 9.84906462,9.79773688 C9.90734311,9.78807442 9.94133889,9.74459334 9.95105197,9.66729364 C9.95105197,9.60931887 9.86849078,9.05855851 9.70336839,8.01501257 C9.53824601,6.97146663 9.44597174,6.44486243 9.42654557,6.43519996 C9.42654557,6.36756273 9.3342713,6.33374411 9.14972275,6.33374411 C9.06230502,6.33374411 9.00402653,6.33374411 8.97488728,6.33374411 C8.94574804,6.33374411 8.91660879,6.35790027 8.88746955,6.40621258 L8.85833031,6.44969366 C8.85833031,6.50766843 8.88746955,6.72507384 8.94574804,7.10190987 C9.00402653,7.47874591 9.03316577,7.77345101 9.03316577,7.98602518 C9.03316577,8.32421137 8.97003074,8.58026662 8.84376068,8.75419094 C8.71749062,8.92811527 8.45038088,9.04889605 8.04243146,9.11653328 C7.99386605,9.12619575 7.71218669,9.13585821 7.19739337,9.14552067 C6.75059163,9.14552067 6.46891226,9.14068944 6.35235529,9.13102698 C6.23579831,9.12136451 6.14838057,9.08271467 6.09010209,9.01507743 C6.080389,9.00541497 5.73557461,7.65750146 5.05565891,4.97133691 C4.3757432,2.28517236 4.03578535,0.917933929 4.03578535,0.869621617 C4.03578535,0.753672068 4.46316094,0.686034831 5.31791211,0.666709906 C5.62873072,0.666709906 5.82784889,0.661878675 5.91526662,0.652216213 C6.00268435,0.64255375 6.04639322,0.599072669 6.04639322,0.52177297 C6.04639322,0.473460658 6.0318236,0.405823421 6.00268435,0.31886126 C5.96383203,0.144936936 5.92012316,0.0434810808 5.87155775,0.0144936936 L5.84241851,0 C5.81327926,0 5.77928348,0 5.74043115,0 C5.69186574,0 5.43932563,0.0048312312 4.9828108,0.0144936936 C4.52629597,0.024156156 3.87066297,0.0289873872 3.0159118,0.0289873872 C1.76292429,0.0289873872 0.966451607,0.0193249248 0.626493755,0 L0.407949422,0 C0.349670933,0.0579747745 0.320531689,0.101455855 0.320531689,0.130443243 C0.320531689,0.15943063 0.33024477,0.246392791 0.349670933,0.391329728 C0.388523259,0.516941739 0.437088666,0.608735132 0.495367155,0.666709906 L0.903316577,0.666709906 L1.06358242,0.666709906 C1.84062894,0.666709906 2.30200031,0.710190987 2.44769653,0.797153149 C2.45740961,0.806815611 2.46712269,0.811646842 2.47683578,0.811646842 C2.52540118,0.84063423 2.57396659,0.937258854 2.622532,1.10152071 C2.67109741,1.26578258 2.86535904,2.02428587 3.20531689,3.37703061 C3.37043927,4.03407806 3.50642241,4.57034472 3.61326631,4.9858306 C4.29318201,7.64300777 4.63313986,9.00058373 4.63313986,9.05855851 C4.63313986,9.10687082 4.49230018,9.13102698 4.21062082,9.13102698 L3.75896253,9.13102698 C3.10818607,9.13102698 2.68081049,9.10203959 2.47683578,9.04406482 C2.03974711,8.94744019 1.69978926,8.74935971 1.45696222,8.44982338 C1.21413518,8.15028704 0.951881985,7.58986422 0.670202622,6.76855492 C0.602211051,6.55598074 0.553645644,6.43036873 0.5245064,6.39171888 C0.495367155,6.35306903 0.427375585,6.33374411 0.320531689,6.33374411 L0.276822822,6.33374411 Z"></path>
                </g>
            </g>
        </g>
        <g id="latex-eq" transform="translate(247.000000, 119.000000)" fill="#000000" fill-rule="nonzero">
            <g id="Group" transform="translate(8.500000, 7.500000) scale(-1, 1) rotate(-180.000000) translate(-8.500000, -7.500000) ">
                <g transform="translate(0.000000, 3.269722)" id="MJMATHI-72">
                    <path d="M0,6.58363017 C0.0154859438,6.62781561 0.0309718876,6.68672953 0.0464578313,6.76037192 C0.0619437751,6.83401432 0.100658635,6.99602759 0.16260241,7.24641173 C0.224546185,7.49679588 0.301975904,7.72508731 0.394891566,7.93128601 C0.487807229,8.13748472 0.603951807,8.38050463 0.743325301,8.66034573 C0.882698795,8.94018683 1.03755823,9.16111402 1.20790361,9.32312729 C1.378249,9.48514056 1.57956627,9.64715383 1.81185542,9.8091671 C2.04414458,9.97118037 2.29966265,10.0374585 2.57840964,10.0080016 C3.02750201,10.0080016 3.42239357,9.9196307 3.76308434,9.74288895 C4.1037751,9.5661472 4.34380723,9.40413393 4.48318072,9.25684914 C4.62255422,9.10956434 4.70772691,8.96227955 4.7386988,8.81499476 C4.76967068,8.72662389 4.7928996,8.68243845 4.80838554,8.68243845 C4.82387149,8.68243845 4.88581526,8.73398813 4.99421687,8.83708748 C5.73754217,9.6029684 6.59701205,9.98590885 7.57262651,9.98590885 L7.64231325,9.98590885 C8.38563855,9.98590885 8.94313253,9.68397503 9.31479518,9.08010739 C9.43868273,8.80026628 9.50062651,8.52778942 9.50062651,8.26267679 C9.50062651,7.82082242 9.39996787,7.46733892 9.1986506,7.2022263 C8.99733333,6.93711367 8.79601606,6.76773616 8.5946988,6.69409377 C8.39338153,6.62045137 8.19980723,6.59099441 8.0139759,6.60572289 C7.70425703,6.60572289 7.45648193,6.68672953 7.2706506,6.8487428 C7.08481928,7.01075607 6.99190361,7.22431902 6.99190361,7.48943164 C6.99190361,8.19639864 7.42551004,8.66770997 8.29272289,8.90336564 C7.95203213,9.09483587 7.67328514,9.19057098 7.45648193,9.19057098 C6.58926908,9.19057098 5.79174297,8.64561725 5.06390361,7.5557098 C4.90904418,7.32005413 4.7928996,7.07703422 4.71546988,6.82665008 C4.63804016,6.57626593 4.37477912,5.59682207 3.92568675,3.88831849 C3.39916466,1.82633141 3.09718876,0.729059717 3.01975904,0.596503405 C2.81844177,0.198834468 2.48549398,0 2.02091566,0 C1.81959839,0 1.65699598,0.0441854374 1.53310843,0.132556312 C1.40922088,0.220927187 1.32404819,0.309298062 1.27759036,0.397668937 C1.23113253,0.486039811 1.21564659,0.559682207 1.23113253,0.618596124 C1.23113253,0.810066352 1.54085141,2.07671556 2.16028916,4.41854374 C2.77972691,6.76037192 3.08944578,8.06384233 3.08944578,8.32895495 C3.08944578,8.90336564 2.88812851,9.19057098 2.48549398,9.19057098 C2.16028916,9.19057098 1.88154217,8.98437227 1.64925301,8.57197486 C1.41696386,8.15957744 1.23113253,7.71035883 1.09175904,7.22431902 C0.952385542,6.7382792 0.867212851,6.47316658 0.836240964,6.42898114 C0.805269076,6.39952418 0.681381526,6.3847957 0.464578313,6.3847957 L0.139373494,6.3847957 C0.0464578313,6.47316658 0,6.53944474 0,6.58363017 Z"></path>
                </g>
                <g transform="translate(10.302001, 0.013963)" id="MJMATHI-74">
                    <path d="M0.114959904,6.18534264 C0.0383199679,6.25823388 0,6.31029906 0,6.34153816 C0,6.3831903 0.0164228434,6.46649458 0.0492685301,6.591451 C0.0821142169,6.71640741 0.109485622,6.78929866 0.131382747,6.81012472 C0.153279871,6.8621899 0.202548402,6.88822249 0.279188337,6.88822249 C0.355828273,6.88822249 0.63501661,6.893429 1.11675335,6.90384204 L1.98716405,6.90384204 L2.29919807,8.15340621 C2.33204376,8.26794959 2.37036373,8.41893859 2.41415798,8.60637322 C2.45795222,8.79380784 2.49627219,8.9291773 2.52911788,9.01248157 C2.56196357,9.09578585 2.59480925,9.1999162 2.62765494,9.32487262 C2.66050063,9.44982903 2.70429488,9.53833983 2.75903769,9.590405 C2.8137805,9.64247018 2.86852331,9.70494838 2.92326612,9.77783963 C2.97800893,9.85073087 3.05464887,9.89758953 3.15318593,9.9184156 C3.25172299,9.93924167 3.35026005,9.9496547 3.44879711,9.9496547 C3.64587123,9.93924167 3.78272826,9.88196998 3.85936819,9.77783963 C3.93600813,9.67370928 3.9743281,9.57478545 3.9743281,9.48106814 C3.9743281,9.40817689 3.92505957,9.16347058 3.82652251,8.74694919 C3.72798545,8.3304278 3.61849982,7.91911293 3.49806564,7.51300457 L3.3338372,6.93508114 C3.3338372,6.91425507 3.60755126,6.90384204 4.15497937,6.90384204 L4.99254439,6.90384204 C5.06918432,6.83095079 5.10750429,6.7736791 5.10750429,6.73202696 C5.10750429,6.5029402 5.03633863,6.32071209 4.89400733,6.18534264 L3.13676308,6.18534264 L2.54554072,3.92050758 C2.1185468,2.25442202 1.90504983,1.35890103 1.90504983,1.23394462 C1.90504983,0.796597158 2.05285542,0.577923428 2.3484666,0.577923428 C2.73166628,0.577923428 3.1039174,0.754945019 3.46521995,1.1089882 C3.82652251,1.46303138 4.11665941,1.90037884 4.33563065,2.42103058 C4.35752778,2.48350879 4.38489918,2.51995441 4.41774487,2.53036744 C4.45059055,2.54078048 4.53270477,2.55119351 4.66408752,2.56160655 L4.72977889,2.56160655 C4.89400733,2.56160655 4.97612154,2.51995441 4.97612154,2.43665013 C4.97612154,2.40541103 4.9596987,2.34293282 4.92685301,2.24921551 C4.8721102,2.08260695 4.77357314,1.88475929 4.63124183,1.65567252 C4.48891052,1.42658576 4.30278496,1.18187944 4.07286516,0.921553575 C3.84294535,0.661227706 3.56375701,0.442553977 3.23530014,0.265532386 C2.90684328,0.0885107954 2.57291213,0 2.2335067,0 C1.90504983,0 1.59301581,0.0780977606 1.29740463,0.234293282 C1.00179345,0.390488803 0.788296482,0.661227706 0.656913735,1.04650999 C0.63501661,1.12981427 0.624068048,1.27039024 0.624068048,1.4682379 L0.624068048,1.74938984 L1.19886757,3.93612713 C1.58206724,5.40436503 1.77914137,6.1436905 1.79008993,6.15410354 C1.79008993,6.17492961 1.51090159,6.18534264 0.952524916,6.18534264 L0.114959904,6.18534264 Z"></path>
                </g>
            </g>
        </g>
        <g id="Group-3" transform="translate(642.000000, 13.000000)" fill="#000000" fill-rule="nonzero">
            <g id="latex-eq">
                <g id="Group" transform="translate(5.000000, 10.500000) scale(-1, 1) rotate(-180.000000) translate(-5.000000, -10.500000) ">
                    <g transform="translate(0.000000, 0.799136)" id="MJMATHI-79">
                        <path d="M0,10.6263499 C0,10.8279338 0.101190476,11.1735061 0.303571429,11.663067 C0.505952381,12.1526278 0.829761905,12.6637869 1.275,13.1965443 C1.7202381,13.7293017 2.21944444,13.9884809 2.77261905,13.9740821 C3.32579365,13.9740821 3.77103175,13.8084953 4.10833333,13.4773218 C4.44563492,13.1461483 4.62103175,12.6853852 4.63452381,12.0950324 C4.60753968,11.8214543 4.58730159,11.6702664 4.57380952,11.6414687 C4.57380952,11.5982721 4.46587302,11.2670986 4.25,10.6479482 C4.03412698,10.0287977 3.81150794,9.33045356 3.58214286,8.55291577 C3.35277778,7.77537797 3.24484127,7.1562275 3.25833333,6.69546436 C3.25833333,6.07631389 3.35277778,5.64434845 3.54166667,5.39956803 C3.73055556,5.15478762 4.01388889,5.02519798 4.39166667,5.01079914 C4.70198413,5.01079914 4.99206349,5.0899928 5.26190476,5.24838013 C5.53174603,5.40676746 5.74087302,5.57235421 5.88928571,5.74514039 C6.03769841,5.91792657 6.21984127,6.15550756 6.43571429,6.45788337 C6.43571429,6.47228222 6.46944444,6.6162707 6.53690476,6.88984881 C6.60436508,7.16342693 6.69880952,7.58819294 6.8202381,8.16414687 C6.94166667,8.74010079 7.06984127,9.27285817 7.2047619,9.76241901 C7.71746032,11.9222462 8.00079365,13.0525558 8.0547619,13.1533477 C8.23015873,13.5421166 8.5202381,13.7365011 8.925,13.7365011 C9.10039683,13.7365011 9.24206349,13.6861051 9.35,13.5853132 C9.45793651,13.4845212 9.53214286,13.3981281 9.57261905,13.3261339 C9.61309524,13.2541397 9.6265873,13.1893449 9.61309524,13.1317495 C9.61309524,12.9445644 9.28253968,11.4326854 8.62142857,8.59611231 C7.96031746,5.75953924 7.58253968,4.20446364 7.48809524,3.93088553 C7.11031746,2.73578114 6.45595238,1.78545716 5.525,1.07991361 C4.59404762,0.37437005 3.66309524,0.0143988481 2.73214286,0 C2.125,0 1.59206349,0.158387329 1.13333333,0.475161987 C0.674603175,0.791936645 0.445238095,1.26709863 0.445238095,1.90064795 C0.445238095,2.21742261 0.492460317,2.4838013 0.586904762,2.69978402 C0.681349206,2.91576674 0.80952381,3.07415407 0.971428571,3.174946 C1.13333333,3.27573794 1.26825397,3.34773218 1.37619048,3.39092873 C1.48412698,3.43412527 1.59880952,3.45572354 1.7202381,3.45572354 C2.31388889,3.45572354 2.61071429,3.15334773 2.61071429,2.54859611 C2.61071429,2.26061915 2.5297619,2.00863931 2.36785714,1.79265659 C2.20595238,1.57667387 2.05079365,1.43268539 1.90238095,1.36069114 C1.75396825,1.2886969 1.66626984,1.25269978 1.63928571,1.25269978 L1.57857143,1.23110151 C1.60555556,1.15910727 1.73373016,1.07271418 1.96309524,0.971922246 C2.19246032,0.87113031 2.4218254,0.820734341 2.65119048,0.820734341 L2.81309524,0.820734341 C3.04246032,0.820734341 3.21785714,0.835133189 3.33928571,0.863930886 C3.78452381,0.993520518 4.19603175,1.26709863 4.57380952,1.68466523 C4.9515873,2.10223182 5.24166667,2.54859611 5.44404762,3.0237581 C5.64642857,3.49892009 5.8015873,3.90208783 5.90952381,4.23326134 C6.01746032,4.56443485 6.07142857,4.78041757 6.07142857,4.8812095 L5.95,4.79481641 C5.86904762,4.73722102 5.74087302,4.65802736 5.56547619,4.55723542 C5.39007937,4.45644348 5.21468254,4.3700504 5.03928571,4.29805616 C4.76944444,4.22606192 4.50634921,4.19006479 4.25,4.19006479 C3.62936508,4.19006479 3.08293651,4.34845212 2.61071429,4.66522678 C2.13849206,4.98200144 1.8281746,5.49316055 1.6797619,6.1987041 C1.66626984,6.29949604 1.65952381,6.52267819 1.65952381,6.86825054 C1.65952381,7.68898488 1.89563492,8.76169906 2.36785714,10.0863931 C2.84007937,11.4110871 3.07619048,12.2534197 3.07619048,12.6133909 C3.07619048,12.6277898 3.07619048,12.6421886 3.07619048,12.6565875 C3.07619048,12.7861771 3.07619048,12.8725702 3.07619048,12.9157667 C3.07619048,12.9589633 3.04920635,13.0093593 2.9952381,13.0669546 C2.94126984,13.12455 2.86706349,13.1533477 2.77261905,13.1533477 L2.69166667,13.1533477 C2.38134921,13.1533477 2.09801587,13.0165587 1.84166667,12.7429806 C1.58531746,12.4694024 1.38293651,12.1742261 1.23452381,11.8574514 C1.08611111,11.5406767 0.971428571,11.2383009 0.89047619,10.950324 C0.80952381,10.662347 0.755555556,10.5039597 0.728571429,10.475162 C0.701587302,10.4463643 0.593650794,10.4319654 0.404761905,10.4319654 L0.121428571,10.4319654 C0.0404761905,10.5183585 0,10.5831533 0,10.6263499 Z"></path>
                    </g>
                    <g transform="translate(3.035714, 16.479482)" id="MJMAIN-5E">
                        <path d="M0,0.626349892 L2.77261905,3.52051836 L2.93452381,3.34773218 C4.68849206,1.56227502 5.56547619,0.655147588 5.56547619,0.626349892 L5.03928571,0 C5.01230159,0.0143988481 4.62103175,0.37437005 3.86547619,1.07991361 L2.79285714,2.07343413 L1.6797619,1.05831533 C1.50436508,0.899928006 1.32896825,0.734341253 1.15357143,0.561555076 C0.978174603,0.388768898 0.836507937,0.251979842 0.728571429,0.151187905 L0.566666667,0.0215982721 C0.53968254,-0.00719942405 0.438492063,0.0935925126 0.263095238,0.323974082 L0,0.626349892 Z"></path>
                    </g>
                </g>
            </g>
            <g id="Group" transform="translate(14.000000, 18.000000) scale(1, -1) translate(-14.000000, -18.000000) translate(11.000000, 13.000000)">
                <path d="M0.817078444,6.16804785 C0.567800275,6.16804785 0.369300992,6.25431425 0.221580595,6.42684706 C0.0738601983,6.59937987 0,6.8102533 0,7.05946735 C0,7.74001343 0.244661907,8.32950052 0.733985721,8.82792863 C1.22330953,9.32635673 1.83265617,9.57557079 2.56202563,9.57557079 C3.40218539,9.57557079 4.10385727,9.30718642 4.66704128,8.77041769 C5.23022529,8.23364896 5.51643356,7.53872515 5.52566609,6.68564627 C5.52566609,6.27348457 5.43334084,5.88049317 5.24869034,5.50667209 C5.06403985,5.13285101 4.84245925,4.80695571 4.58394856,4.52898618 C4.32543786,4.25101666 3.95613687,3.89636589 3.47604558,3.46503387 C3.14367469,3.16789404 2.68204845,2.72697687 2.09116686,2.14228235 L1.27408842,1.33712925 L2.32659625,1.32275152 C3.77610264,1.32275152 4.54701846,1.34671441 4.63934371,1.39464019 C4.70397138,1.4138105 4.81476168,1.84034994 4.9717146,2.67425851 L4.9717146,2.71739171 L5.52566609,2.71739171 L5.52566609,2.67425851 C5.51643356,2.64550304 5.45642215,2.20937845 5.34563185,1.36588472 C5.23484156,0.522390999 5.16559762,0.0814738255 5.13790005,0.0431332018 L5.13790005,0 L0,0 L0,0.273176944 L0,0.445709751 C0,0.512805843 0.0276975744,0.584694513 0.0830927231,0.66137576 C0.138487872,0.738057008 0.276975744,0.905797237 0.498556339,1.16459645 C0.766299558,1.47132144 0.997112677,1.7397058 1.1909957,1.96974955 C1.27408842,2.06560111 1.43104134,2.24292649 1.66185446,2.5017257 C1.89266758,2.76052491 2.0496205,2.9378503 2.13271323,3.03370186 C2.21580595,3.12955342 2.34967756,3.28770849 2.53432805,3.50816708 C2.71897855,3.72862566 2.8482339,3.89157331 2.9220941,3.99701003 C2.99595429,4.10244674 3.10212833,4.24622408 3.2406162,4.42834205 C3.37910407,4.61046001 3.47604558,4.7638225 3.53144073,4.88842953 C3.58683588,5.01303656 3.65607982,5.15202132 3.73917254,5.30538382 C3.82226526,5.45874631 3.88227667,5.61210881 3.91920677,5.7654713 C3.95613687,5.9188338 3.98845071,6.06261114 4.01614828,6.19680332 C4.04384586,6.3309955 4.05769465,6.48915058 4.05769465,6.67126854 C4.05769465,7.27513336 3.90074172,7.79752436 3.58683588,8.23844154 C3.27293004,8.67935871 2.82515259,8.8998173 2.24350352,8.8998173 C1.93883021,8.8998173 1.67108699,8.81834347 1.44027387,8.65539582 C1.20946075,8.49244817 1.04789156,8.33429309 0.955566316,8.1809306 C0.863241068,8.0275681 0.817078444,7.93650912 0.817078444,7.90775365 C0.817078444,7.8981685 0.840159756,7.89337592 0.88632238,7.89337592 C1.05250783,7.89337592 1.22330953,7.82627983 1.39872751,7.69208765 C1.57414548,7.55789546 1.66185446,7.33743688 1.66185446,7.03071189 C1.66185446,6.79108299 1.58799426,6.58979471 1.44027387,6.42684706 C1.29255347,6.26389941 1.08482166,6.17763301 0.817078444,6.16804785 Z" id="MJMAIN-32"></path>
            </g>
        </g>
        <g id="latex-eq" transform="translate(401.000000, 127.000000)" fill="#000000" fill-rule="nonzero">
            <g id="Group" transform="translate(10.500000, 8.723598) scale(-1, 1) rotate(-180.000000) translate(-10.500000, -8.723598) translate(0.000000, 0.723598)">
                <g transform="translate(0.000000, 3.859192)" id="MJMATHI-72">
                    <path d="M0,7.77053455 C0.0173837462,7.82268579 0.0347674924,7.89222077 0.0521512386,7.9791395 C0.0695349848,8.06605824 0.11299435,8.25727944 0.182529335,8.55280313 C0.25206432,8.84832681 0.338983051,9.11777488 0.443285528,9.36114733 C0.547588005,9.60451977 0.677966102,9.89135159 0.834419817,10.2216428 C0.990873533,10.5519339 1.164711,10.8126901 1.3559322,11.0039113 C1.54715341,11.1951326 1.77314211,11.3863538 2.03389831,11.577575 C2.2946545,11.7687962 2.58148631,11.847023 2.89439374,11.8122555 C3.39852238,11.8122555 3.84180791,11.7079531 4.22425033,11.4993481 C4.60669274,11.2907432 4.87614081,11.0995219 5.03259452,10.9256845 C5.18904824,10.751847 5.28465884,10.5780096 5.31942634,10.4041721 C5.35419383,10.2998696 5.38026945,10.2477184 5.39765319,10.2477184 C5.41503694,10.2477184 5.48457193,10.3085615 5.60625815,10.4302477 C6.44067797,11.3342025 7.40547588,11.7861799 8.50065189,11.7861799 L8.57887875,11.7861799 C9.41329857,11.7861799 10.0391134,11.4298131 10.4563233,10.7170795 C10.5953933,10.3867884 10.6649283,10.065189 10.6649283,9.75228162 C10.6649283,9.23076923 10.5519339,8.81355932 10.3259452,8.50065189 C10.0999565,8.18774446 9.87396784,7.98783138 9.64797914,7.90091265 C9.42199044,7.81399392 9.20469361,7.77922642 8.99608866,7.79661017 C8.64841373,7.79661017 8.37027379,7.89222077 8.16166884,8.08344198 C7.95306389,8.27466319 7.84876141,8.52672751 7.84876141,8.83963494 C7.84876141,9.67405476 8.3355063,10.2303346 9.30899609,10.5084746 C8.92655367,10.7344633 8.61364624,10.8474576 8.37027379,10.8474576 C7.39678401,10.8474576 6.50152108,10.204259 5.68448501,8.9178618 C5.51064754,8.63972186 5.38026945,8.35289005 5.29335072,8.05736636 C5.20643199,7.76184268 4.9109083,6.60582355 4.40677966,4.589309 C3.81573229,2.15558453 3.47674924,0.860495437 3.38983051,0.704041721 C3.16384181,0.234680574 2.79009126,0 2.26857888,0 C2.04259018,0 1.86006084,0.0521512386 1.72099087,0.156453716 C1.5819209,0.260756193 1.4863103,0.36505867 1.43415906,0.469361147 C1.38200782,0.573663625 1.36462408,0.660582355 1.38200782,0.73011734 C1.38200782,0.956106041 1.72968275,2.45110821 2.42503259,5.21512386 C3.12038244,7.9791395 3.46805737,9.51760104 3.46805737,9.83050847 C3.46805737,10.5084746 3.24206867,10.8474576 2.79009126,10.8474576 C2.42503259,10.8474576 2.11212516,10.6040852 1.85136897,10.1173403 C1.59061278,9.63059539 1.38200782,9.10039113 1.22555411,8.52672751 C1.06910039,7.95306389 0.973489787,7.64015645 0.938722295,7.58800522 C0.903954802,7.55323772 0.764884833,7.53585398 0.521512386,7.53585398 L0.156453716,7.53585398 C0.0521512386,7.64015645 0,7.71838331 0,7.77053455 Z"></path>
                </g>
                <g transform="translate(11.841043, 0.016480)" id="MJMATHI-6F">
                    <path d="M3.07872229,0 C2.15694915,0 1.41338548,0.30111256 0.848031291,0.903337679 C0.282677097,1.5055628 0,2.230691 0,3.07872229 C0,3.87759235 0.184354628,4.63344633 0.553063885,5.34628422 C0.921773142,6.05912212 1.42567579,6.6797827 2.06477184,7.20826597 C2.99883529,7.95797479 3.9513342,8.3328292 4.92226858,8.3328292 C5.31555845,8.3328292 5.56136462,8.32668405 5.65968709,8.31439374 C5.8194611,8.27752282 5.97923512,8.23450674 6.13900913,8.1853455 C6.29878314,8.13618427 6.51386354,8.0378618 6.78425033,7.8903781 C7.05463711,7.74289439 7.27586267,7.55853977 7.44792699,7.33731421 C7.61999131,7.11608866 7.77976532,6.8149761 7.92724902,6.43397653 C8.07473272,6.05297697 8.14847458,5.62281617 8.14847458,5.14349413 C8.14847458,3.82843112 7.61999131,2.64241634 6.56302477,1.5854498 C5.50605824,0.528483268 4.34462408,0 3.07872229,0 Z M1.60388527,2.41504563 C1.60388527,1.8005302 1.76365928,1.3580791 2.0832073,1.08769231 C2.40275532,0.817305519 2.76531943,0.682112125 3.17089961,0.682112125 C3.71167319,0.682112125 4.22172099,0.878757062 4.70104302,1.27204694 C5.18036506,1.66533681 5.56136462,2.18152977 5.84404172,2.82062581 C5.9546545,3.07872229 6.09599305,3.53346371 6.26805737,4.18485007 C6.44012169,4.83623642 6.52615385,5.40159061 6.52615385,5.88091265 C6.52615385,6.42168622 6.41554107,6.83341156 6.19431551,7.11608866 C5.89934811,7.48479791 5.50605824,7.66915254 5.01444589,7.66915254 C4.24015645,7.66915254 3.55804433,7.31273359 2.96810952,6.5998957 C2.5133681,6.05912212 2.17538462,5.34013907 1.95415906,4.44294654 C1.73293351,3.54575402 1.61617558,2.86978705 1.60388527,2.41504563 Z"></path>
                </g>
            </g>
        </g>
        <text id="unfolding" font-family="Helvetica" font-size="18" font-weight="normal" fill="#000000">
            <tspan x="281" y="140">unfolding</tspan>
        </text>
        <g id="Group-2" transform="translate(84.000000, 117.000000)">
            <g id="Group-4">
                <circle id="Oval-4" stroke="#979797" stroke-width="4" fill="#D8D8D8" cx="39" cy="33" r="33"></circle>
                <text id="RNN-Cell" font-family="Helvetica-Bold, Helvetica" font-size="16" font-weight="bold" fill="#000000">
                    <tspan x="22.1679688" y="29">RNN</tspan>
                    <tspan x="27.5791016" y="48" font-size="13">Cell</tspan>
                </text>
            </g>
        </g>
        <g id="Group-2-Copy" transform="translate(452.000000, 117.000000)">
            <g id="Group-4">
                <circle id="Oval-4" stroke="#979797" stroke-width="4" fill="#D8D8D8" cx="39" cy="33" r="33"></circle>
                <text id="RNN-Cell" font-family="Helvetica-Bold, Helvetica" font-size="16" font-weight="bold" fill="#000000">
                    <tspan x="22.1679688" y="29">RNN</tspan>
                    <tspan x="27.5791016" y="48" font-size="13">Cell</tspan>
                </text>
            </g>
        </g>
        <g id="Group-2-Copy-2" transform="translate(611.000000, 117.000000)">
            <g id="Group-4">
                <circle id="Oval-4" stroke="#979797" stroke-width="4" fill="#D8D8D8" cx="39" cy="33" r="33"></circle>
                <text id="RNN-Cell" font-family="Helvetica-Bold, Helvetica" font-size="16" font-weight="bold" fill="#000000">
                    <tspan x="22.1679688" y="29">RNN</tspan>
                    <tspan x="27.5791016" y="48" font-size="13">Cell</tspan>
                </text>
            </g>
        </g>
        <g id="Group-2-Copy-3" transform="translate(866.000000, 117.000000)">
            <g id="Group-4">
                <circle id="Oval-4" stroke="#979797" stroke-width="4" fill="#D8D8D8" cx="39" cy="33" r="33"></circle>
                <text id="RNN-Cell" font-family="Helvetica-Bold, Helvetica" font-size="16" font-weight="bold" fill="#000000">
                    <tspan x="22.1679688" y="29">RNN</tspan>
                    <tspan x="27.5791016" y="48" font-size="13">Cell</tspan>
                </text>
            </g>
        </g>
    </g>
</svg>